<?xml version="1.0" standalone="no"?>
<!DOCTYPE svg PUBLIC "-//W3C//DTD SVG 1.1//EN" "http://www.w3.org/Graphics/SVG/1.1/DTD/svg11.dtd" >
<svg xmlns="http://www.w3.org/2000/svg" xmlns:xlink="http://www.w3.org/1999/xlink" version="1.1">
<metadata>
Created by FontForge 20170731 at Tue Feb 26 20:45:14 2019
 By Aleksey,,,
Copyright (c) 2019 by Elena Genova. All rights reserved. |DCNT
</metadata>
<defs>
<font id="Lumios-Marker" horiz-adv-x="490" >
  <font-face 
    font-family="Lumios Marker"
    font-weight="400"
    font-style="italic"
    font-stretch="normal"
    units-per-em="1000"
    panose-1="0 0 5 0 0 0 0 0 0 0"
    ascent="679"
    descent="-321"
    x-height="317"
    cap-height="602"
    bbox="-2731.7 -598 1394.91 975"
    underline-thickness="50"
    underline-position="-300"
    slope="-20"
    unicode-range="U+0020-E3C9"
  />
<missing-glyph horiz-adv-x="477" 
d="M211 394q10 -12 18 -1l9 13q18 24 31 37t22 18q25 17 55 17q38 -1 59.5 -29t21.5 -68q0 -64 -55 -147q-56 -84 -126 -132q-13 -8 -27 -8q-55 0 -112 105t-57 191q0 76 54 76q8 0 24 -4q34 -8 54 -32q9 -9 21 -25q3 -4 6 -9zM287 323q2 5 -2 10q-12 19 -71 -28
q-39 39 -56 36q-12 -3 -7 -20q3 -14 31 -46q-27 -29 -27 -48l-1 -5q0 -4 1 -4q3 -13 22 -4q15 8 36 26q7 -9 32 -34q10 -10 18 -8q2 1 5 3l3 2q7 7 3 21q-9 23 -28 46q36 36 41 53z" />
    <glyph glyph-name="f_f" unicode="ff" horiz-adv-x="481" 
d="M100 -150q-8 0 -15 3q-20 6 -30 30q-7 17 -12 42q-8 37 -8 80q0 32 8 102q11 73 15 87q-4 0 -17 -1.5t-15 -1.5q-16 0 -23 19q-8 21 -8 27q0 16 44 24l40 7q118 421 226 421q33 0 61 -28q29 -28 35 -61q2 -32 -7 -55l-9 -22q-2 -7 -12 -26l-11 -21q-1 -2 -4 -7
q-14 -26 -24 -30q-5 -3 -14 -5q-34 -2 -34 11q0 4 10 30t12 28q27 71 27 101q0 20 -13 20h-2q-1 -1 -3 -1.5t-4 -0.5q-21 -7 -44 -48l-17 -33l-16 -36l-10 -25q-18 -40 -42 -111q-25 -74 -29 -94l178 12q12 32 13 35l12 31q48 127 99 219q4 13 17 30l10 16q1 1 22 32
q36 45 76 49q31 3 45 -20q7 -11 10 -26t2.5 -25.5t-2 -28.5t-1.5 -24q-4 -34 -25 -89q-20 -50 -44 -51q-12 0 -25.5 10t-8.5 24q24 39 41 99q17 58 7 62q-5 2 -16.5 -12.5t-30.5 -47.5q-36 -64 -64 -128q-49 -127 -55 -149q167 9 177 -22q3 -13 -7 -30q-23 -1 -194 -20
q-31 -101 -42 -153q-10 -51 -4 -105q8 -54 47 -74q9 -6 -7 -13q-33 -14 -67 10q-10 8 -18 18q-21 27 -25 68t-1 71q3 27 12 76q16 74 23 98l-178 -16q-3 -7 -16 -62q-5 -34 -13 -90q-3 -37 -2 -87q2 -58 14 -101q-3 -11 -14 -11z" />
    <glyph glyph-name="f_i" unicode="fi" horiz-adv-x="418" 
d="M138 -130q-22 -18 -54 8q-31 26 -39 50q-11 26 -15 54q-7 54 -2 97l7 45l10 51l11 49q-3 0 -14.5 -1.5t-22.5 -2.5l-11 -2q-17 0 -16 33.5t16 36.5q15 4 31 6t24 2.5t9 0.5q68 239 186 377q68 77 124 65q25 -5 39.5 -27t15.5 -54q0 -44 -12 -105q-12 -62 -31 -92
q-12 -22 -50 -24t-41 26q-1 15 11 47q12 33 28 51q32 113 12 113q-32 0 -108 -151q-75 -152 -90 -217q44 3 145 7q29 2 52 -14q24 -16 19 -36l-65 -241q-6 -25 -12 -28.5t-26 4.5q-22 9 -30.5 30t-2.5 35l19 70l25 90q3 11 1 16.5t-7 5.5t-12 -1q-102 -11 -130 -15
q-24 -84 -35 -166q-16 -117 27 -157q6 -5 10 -6q11 -5 14.5 -9.5t1 -9t-11.5 -11.5z" />
    <glyph glyph-name="t_t" unicode="tt" horiz-adv-x="462" 
d="M542 318q15 1 14 -5q0 -1 -1 -2q-9 -18 -63 -39q-37 -15 -73 -18q-6 -17 -7 -21q-26 -89 -36 -138q-21 -109 4 -128q10 -7 -15 -18l-15 -3q-61 0 -55 87q5 70 50 215q-3 -1 -11 -1q-64 -97 -140 -184q-81 -95 -113 -95q-23 0 -35 19t-12 49q0 41 51 194q-11 -1 -27 -1
q-14 0 -18 6t-3 24q1 9 2 14.5t4 9t5 5.5t9.5 3t12 1.5t16.5 1t21 0.5q54 158 116 289q8 10 24 7.5t29 -16.5t6 -26q-29 -50 -103 -250l148 8q55 78 90 141q1 2 8.5 23t12.5 29q8 12 18 13q12 2 29 -10q18 -10 13 -23l-60 -167q19 1 43.5 2.5t41 2.5t19.5 1zM102 51
q11 -8 63 49q45 49 116 143q-108 -7 -124 -8q-62 -179 -55 -184z" />
    <glyph glyph-name=".notdef" horiz-adv-x="477" 
d="M211 394q10 -12 18 -1l9 13q18 24 31 37t22 18q25 17 55 17q38 -1 59.5 -29t21.5 -68q0 -64 -55 -147q-56 -84 -126 -132q-13 -8 -27 -8q-55 0 -112 105t-57 191q0 76 54 76q8 0 24 -4q34 -8 54 -32q9 -9 21 -25q3 -4 6 -9zM287 323q2 5 -2 10q-12 19 -71 -28
q-39 39 -56 36q-12 -3 -7 -20q3 -14 31 -46q-27 -29 -27 -48l-1 -5q0 -4 1 -4q3 -13 22 -4q15 8 36 26q7 -9 32 -34q10 -10 18 -8q2 1 5 3l3 2q7 7 3 21q-9 23 -28 46q36 36 41 53z" />
    <glyph glyph-name=".null" horiz-adv-x="0" 
 />
    <glyph glyph-name="nonmarkingreturn" horiz-adv-x="333" 
 />
    <glyph glyph-name="space" unicode=" " horiz-adv-x="220" 
 />
    <glyph glyph-name="exclam" unicode="!" horiz-adv-x="293" 
d="M177 185q-6 -19 -24 -6q-23 17 -21 45q5 46 80 245q68 180 77 207q3 9 14 9q15 0 32 -14t17 -35q0 -12 -32 -82q-22 -48 -76 -176q-47 -114 -67 -193zM89 -10q-15 0 -24 12.5t-9 31.5q0 22 19 42.5t44 20.5q35 0 35 -38q0 -23 -23 -46t-42 -23z" />
    <glyph glyph-name="quotedbl" unicode="&#x22;" horiz-adv-x="335" 
d="M181 401q-31 13 -31 38q0 17 15 50q6 15 26 77q16 55 28 77.5t26 22.5q12 0 25 -16q9 -6 9 -28q0 -21 -8.5 -51.5t-21 -60t-26.5 -55.5t-25.5 -41t-16.5 -13zM322 408q-8 -5 -17 10q-8 15 -6 23q0 5 3 16q2 7 6 19.5t9.5 29l8.5 25.5q33 128 70 128q12 0 22 -18t10 -39
q0 -10 -3 -18q-11 -37 -45 -106q-34 -70 -58 -70z" />
    <glyph glyph-name="numbersign" unicode="#" horiz-adv-x="487" 
d="M394 237q83 -11 80 -36q0 -8 -8 -10q-2 -1 -3 0q-12 5 -139 9l-21 -65q34 -2 53 -5q77 -12 74 -35q-2 -11 -13 -14q-3 -1 -4 0q-15 7 -124 8q-15 -48 -23 -83q-2 -10 -12.5 -14t-19.5 0t-8 14q3 36 16 85h-55q-23 -90 -33 -145q-2 -10 -20 -5t-21 10q-6 15 -3 38l21 100
q-67 -6 -87 -12q-11 -3 -22 8.5t-5 23.5q8 21 126 28q14 56 16 62q-91 -6 -105 -12q-16 -6 -30.5 6t-6.5 26q7 21 155 30q32 116 55 169q5 6 21 5.5t30 -11t8 -24.5q-27 -64 -53 -139l54 -3l21 61l24 71q2 9 17.5 9.5t27.5 -8t6 -20.5q-23 -58 -44 -116q1 0 23.5 -2t31.5 -4
zM254 138q14 49 19 63h-55l-18 -61q10 0 23 -0.5t20 -1t11 -0.5z" />
    <glyph glyph-name="dollar" unicode="$" horiz-adv-x="476" 
d="M158 -100q-20 0 -20 24l12 94q-89 69 -89 116q0 15 10.5 24.5t25.5 9.5q11 0 21 -7q14 -11 22.5 -19t11 -12.5t3.5 -7t0 -5.5t-1 -4q0 -3 3 -8q25 -34 51 -34q21 0 21 26q0 52 -53 173t-53 184q0 58 43 101t115 43q1 2 25 104q3 16 20 16q11 0 21.5 -6t9.5 -11
q-3 -33 -21 -115q45 -26 56 -58q13 -36 13 -162q1 -23 -28 -31q-34 -10 -51 14q-7 12 -7 28q0 13 6 50q7 35 7 55q0 48 -51 48q-18 0 -37 -6.5t-34.5 -29.5t-8.5 -59q13 -81 59 -187q45 -104 48 -143q2 -22 2 -29q0 -38 -14 -63q-16 -28 -55 -28q-14 0 -30 4
q-14 -52 -14 -53q-11 -31 -21 -34z" />
    <glyph glyph-name="percent" unicode="%" 
d="M223 -38q-15 -31 -44 -19q-32 12 -40 62q-3 21 2 49q11 57 50 130q37 72 72 133q32 56 27 70q-3 12 -44 -5q3 -10 -4.5 -30.5t-22.5 -35.5q-19 -14 -51 -42q-10 -10 -33 -20q-28 -10 -45 11q-26 33 7 97q33 65 65 80q5 3 58 8q43 4 85 2q73 -8 54 -72q-3 -10 -43 -83
q-38 -67 -79 -156q-37 -84 -42 -132q0 -16 13 -20q14 -6 20 -6q6 -1 -5 -21zM135 333q-2 -5 -2 -7t1.5 -3t5.5 0q17 6 41 35q16 19 5 19q-15 0 -29 -11q-18 -15 -22 -33zM313 4q-6 0 -25 19q-17 17 -13 47q1 8 15 36q3 6 21 36l3 6q6 15 16 30t31.5 30t47.5 15q23 0 39 -28
q18 -27 18 -43q0 -38 -32 -70q-78 -78 -121 -78zM356 86q13 -7 32 24q20 32 18 40q-2 11 -29 -18q-35 -35 -21 -46z" />
    <glyph glyph-name="ampersand" unicode="&#x26;" horiz-adv-x="668" 
d="M381 -79q-37 0 -63.5 17.5t-38.5 44.5q-7 -3 -27 -15.5t-40 -21.5t-41 -13q-18 -7 -39 -7q-38 0 -61 30.5t-25 83.5q5 41 15 71q15 45 22 58l13 24q3 7 16 26l15 23l17 24l17 24q-16 63 -16 97q0 17 2 31q20 103 78 149q59 47 126 47q51 0 85.5 -24.5t34.5 -58.5
q0 -13 -9 -27l-238 -242q34 -107 59 -156q11 -23 17 -23t26 16l25 21q18 17 89 79q-62 -3 -105 23q-7 6 -7 14q0 12 12.5 23t19.5 8q28 -12 70 -12q22 0 38 1q32 2 34 2q46 0 53 -30q5 -13 -11 -20q-7 -4 -44 -36l-89 -79q-50 -44 -79 -67q-3 -6 13 -30q17 -20 40 -20
q31 0 85 36q12 9 27 22.5t23 20t12 4.5q8 0 18 -9q14 -12 14 -25q0 -29 -69 -67q-68 -37 -114 -37zM214 343q42 52 163 176q15 19 15 23q0 8 -32 8q-65 0 -106.5 -48t-41.5 -125q0 -2 2 -34zM154 -13q28 0 61 21q33 22 33 36q-22 43 -39 79.5t-24.5 56t-9.5 22.5
q-35 -55 -48.5 -90t-13.5 -74q0 -51 41 -51z" />
    <glyph glyph-name="quotesingle" unicode="'" horiz-adv-x="205" 
d="M194 402q-17 0 -17 31q0 30 15 78q19 45 32 96q7 29 14 41t18 12q6 0 12 -2q35 -12 35 -45q0 -31 -35 -101q-13 -47 -34 -78.5t-40 -31.5z" />
    <glyph glyph-name="parenleft" unicode="(" horiz-adv-x="270" 
d="M45 -268q-62 0 -62 83q0 101 38 239q36 133 118 292q81 154 186 264q7 8 20.5 2t19.5 -17t-1 -20q-39 -35 -101 -137q-63 -104 -119 -228q-56 -128 -84 -250q-27 -123 3 -201q5 -12 -0.5 -19.5t-17.5 -7.5z" />
    <glyph glyph-name="parenright" unicode=")" horiz-adv-x="304" 
d="M17 -257q-12 -12 -43 -11q-21 3 -11 16q98 110 159 262q119 289 91 584q-1 5 6.5 9.5t21.5 8.5q28 7 33 -11q39 -194 -40 -452q-78 -260 -217 -406z" />
    <glyph glyph-name="asterisk" unicode="*" horiz-adv-x="354" 
d="M344 331q5 -10 3 -15.5t-11 -4.5q-18 1 -39 22q-31 31 -52 81l-49 -66q-13 -18 -21 -1q-7 17 1 42q6 18 18 39q-19 3 -28 5q-25 4 -40 35t5 37q2 1 7 1q1 0 79 -2q-11 59 -6 97q3 28 19 32q7 1 12 -8l12 -47q1 -3 14 -51q43 47 77 70q23 16 36 5q6 -5 0 -14
q-24 -38 -62 -86q94 -2 101 -2q22 0 21 -12q-3 -20 -56 -41q-31 -11 -80 -20q-3 0 -4 -1q11 -31 43 -95z" />
    <glyph glyph-name="plus" unicode="+" horiz-adv-x="353" 
d="M142 93q-7 16 -7 46q0 4 2.5 17t2.5 15t4 15t4 15q-3 0 -12.5 -0.5t-17 -0.5t-18 1.5t-16 4.5t-12 10t-5 17.5t4.5 26.5q2 4 12 6q7 1 39 1q34 0 47 1q29 90 43 99q10 6 19 -12q12 -17 10 -33q0 -3 -7.5 -24t-10.5 -31q13 1 29.5 3t27.5 3.5t22 2t17 -0.5t8 -5
q2 -8 -4 -25q-6 -18 -18 -21q-38 -9 -98 -15q-13 -29 -25 -68q-2 -8 -3 -22.5t-2 -18.5q-7 -13 -19.5 -17t-16.5 10z" />
    <glyph glyph-name="comma" unicode="," horiz-adv-x="270" 
d="M85 -108q-15 -2 -23.5 4.5t-6.5 21.5q0 2 15 24q11 16 21 32q9 11 12.5 23.5t4.5 30.5v19q6 37 40 44q31 7 43 -22q17 -42 -26 -113q-17 -28 -48 -50q-15 -12 -32 -14z" />
    <glyph glyph-name="hyphen" unicode="-" horiz-adv-x="486" 
d="M139 172q-7 -2 -9 9q-4 23 12 45q8 9 15 9q201 8 219 4q16 -3 23 -28q5 -18 -4 -18q-42 0 -135 -6t-121 -15z" />
    <glyph glyph-name="period" unicode="." horiz-adv-x="293" 
d="M129 -10q-15 0 -24 12.5t-9 31.5q0 22 19 42.5t44 20.5q35 0 35 -38q0 -23 -23 -46t-42 -23z" />
    <glyph glyph-name="slash" unicode="/" horiz-adv-x="462" 
d="M26 -132q-27 0 -22 29q3 21 110 164q176 239 233 316q124 170 163 249q2 3 15 3q35 0 35 -28q0 -11 -4 -19q-19 -53 -126 -193l-225 -289q-117 -152 -153 -222q-4 -10 -26 -10z" />
    <glyph glyph-name="zero" unicode="0" horiz-adv-x="350" 
d="M153 12q-27 0 -51 12q-45 20 -45 95q0 94 58 200q59 108 114 108q13 0 23 -6q26 -12 37.5 -25t17.5 -35q1 -5 0 -10t-3.5 -9.5t-5 -7.5t-4.5 -6l-2 -2q0 -3 7 -6q25 -10 25 -70q0 -67 -25 -118q-65 -120 -146 -120zM137 63q14 0 38 24q40 36 66 86.5t26 97.5q0 4 -2 22
q-2 13 -7 22t-8.5 10t-5 4.5t4.5 5.5q12 7 12 14q0 6 -5.5 7.5t-15 -1t-19.5 -9.5q-27 -16 -56 -74.5t-45 -154.5q-1 -4 -1 -19q0 -35 18 -35z" />
    <glyph glyph-name="one" unicode="1" horiz-adv-x="281" 
d="M167 13q-1 -16 -25 -7q-29 12 -35 40l-1 6q0 79 87 283q-7 -4 -40 -31q-66 -53 -88 -43q-28 9 -39 19.5t-4 21.5q8 10 15 18q28 23 43 28l47 36q30 25 44 35q17 12 35 22q36 20 52 -10q4 -5 10.5 -9.5t9.5 -6.5t5 -10.5t-4 -20.5q-16 -47 -40 -110l-36 -100
q-30 -87 -36 -161z" />
    <glyph glyph-name="two" unicode="2" horiz-adv-x="368" 
d="M77 -6q-15 0 -30 7q-25 7 -25 27q0 19 32 57q30 35 73 74q39 36 81 89q40 50 52 93q5 20 5 25q0 14 -11 14q-3 0 -16.5 -5.5t-34 -17.5t-33.5 -25q-6 -6 -8 -20.5t-5 -25t-12 -10.5q-54 8 -54 42q0 39 57 82q59 45 104 45q28 0 38 -21q9 -20 18 -24t13 -22q2 -16 2 -19
q0 -52 -43 -116t-133 -157q12 0 57 3q103 8 138 -13q6 -4 0 -15.5t-20.5 -22t-30.5 -12.5l-44 -4l-54 -5q-57 -6 -96 -19q-8 -4 -20 -4z" />
    <glyph glyph-name="three" unicode="3" horiz-adv-x="394" 
d="M157 -7q-30 0 -67 14q-35 14 -40 29q-9 18 -9 29q0 12 11 12q8 0 25 -11q25 -14 56 -14q51 0 95 31q45 31 45 64q0 20 -26 34q-18 8 -33 8q-16 0 -45 -12q-28 -11 -39 -11q-13 0 -24 8q-28 13 -28 34q0 13 8 19t34 14q42 10 96 64q52 52 47 72q0 8 -13 8q-21 0 -59 -20
q-37 -19 -54 -42q-7 -9 -18 -9t-22 9t-14 22q-7 31 45 67q52 37 107 37q38 0 60.5 -24t22.5 -71q0 -58 -54 -112q25 -15 41 -31q27 -27 27 -90t-53 -96q-53 -32 -122 -32z" />
    <glyph glyph-name="four" unicode="4" horiz-adv-x="384" 
d="M238 -31q-14 0 -20 13q-12 23 -12 62q0 20 1 37q0 7 0.5 14t1 10.5t0.5 4.5q-8 0 -79 -15q-75 -16 -88 -17q-21 -3 -34.5 5t-13.5 24q0 11 8 29q87 159 149 286q8 17 24 17q14 0 26 -21q13 -20 13 -32q0 -10 -18 -44q-23 -44 -54 -97l-48 -86q45 4 126 14q60 198 67 215
q8 19 16 14q14 -6 31 -29q18 -22 13 -39l-22 -66q-21 -66 -26 -89q9 0 25 1l16 1q11 0 13 -8q2 -10 2 -21q0 -34 -10 -34q-1 0 -6 0.5t-6 0.5q-19 0 -45 -6q-3 -5 -14 -58q-4 -19 -13 -67q-4 -19 -23 -19z" />
    <glyph glyph-name="five" unicode="5" horiz-adv-x="349" 
d="M151 -31q-5 0 -14.5 0.5t-12.5 0.5l-5 1q-15 4 -26.5 19t-11.5 28q0 12 12 12q6 0 8 -1q9 -4 25 -4q44 0 78 39q36 39 36 74q0 31 -32 31q-27 0 -61 -28t-44 -31q-10 -2 -13 -2q-18 0 -32.5 8.5t-15.5 20.5q-2 23 10 62q17 51 40 111l32 81v9q1 10 3.5 19t7.5 13
q7 6 13 6q1 0 9.5 -2t21 -4t23.5 -2q14 0 37 3q18 3 37 7t39.5 6.5t63.5 7.5q5 1 12 -6t8 -7q12 -3 12 -11q0 -12 -27 -28q-29 -17 -83.5 -29.5t-113.5 -12.5q-7 -19 -31 -70l-37 -86q41 27 86 27q49 0 73.5 -26t24.5 -70q0 -55 -51 -111q-49 -55 -101 -55z" />
    <glyph glyph-name="six" unicode="6" horiz-adv-x="365" 
d="M156 -32q-36 0 -74 20q-43 28 -43 110q0 70 30 148q32 79 87 134q56 57 118 57q19 0 34 -18t15 -37q0 -16 -13 -16q-75 0 -125 -59q-48 -59 -66 -144q42 20 63 20q39 0 67.5 -23t28.5 -58q0 -41 -38 -88q-37 -46 -84 -46zM130 34q18 0 42 12q49 31 49 61q0 18 -25 18
q-17 0 -37 -7q-25 -12 -39.5 -29.5t-14.5 -33.5q0 -21 25 -21z" />
    <glyph glyph-name="seven" unicode="7" horiz-adv-x="334" 
d="M124 -3q-46 0 -35 37q4 17 11 33q9 20 19 38l17 30q-69 -7 -85 33q-9 23 4 32q2 2 5 2q86 7 131 17q65 123 69 134q2 9 0 14q-8 17 -97 -7q-22 -6 -45.5 -15.5t-38 -16.5t-16.5 -8q-14 -2 -34 11q-21 13 -18 27q11 38 108 63q181 44 194 -40q9 -58 -45 -148
q15 -2 29.5 -0.5t24.5 -0.5t8 -10q0 -19 -3 -25q-18 -21 -96 -38q-36 -51 -77 -147q-7 -14 -12.5 -17.5t-11 -0.5t-6.5 3z" />
    <glyph glyph-name="eight" unicode="8" horiz-adv-x="403" 
d="M153 -56q-21 0 -31 8q-4 2 -8 2.5t-7 1t-15 8t-32 22.5q-30 23 -30 67q0 25 11 25q7 0 15 -14q7 7 99 116q-49 62 -49 124q0 59 50 103q52 52 108 52q30 0 55.5 -14t29.5 -28q28 -6 28 -30q0 -26 -28 -67q-33 -48 -64 -86q-36 -44 -42 -54q28 -38 34 -46q25 -33 25 -70
q0 -53 -62 -100l-6 -2q-50 -18 -81 -18zM192 229q12 10 73 83q46 56 46 66t-22 10q-6 2 -15 2q-30 0 -54 -24l-10 -10q-5 -4 -20 -21q-15 -22 -15 -44q0 -26 17 -62zM159 1q35 0 60 22t25 43q0 6 -3 10q-5 7 -12.5 16.5t-15 18.5t-9.5 12q-82 -86 -82 -108q0 -6 6 -9
q15 -5 31 -5z" />
    <glyph glyph-name="nine" unicode="9" horiz-adv-x="368" 
d="M215 -24q-4 -6 -16 -7t-24.5 8.5t-11.5 25.5q5 47 94 236q-15 -15 -61 -42q-44 -24 -63 -24q-83 0 -90 82q-6 53 25 96q33 46 74 64q44 21 88 20t64 -27q5 -7 11.5 -17.5t7.5 -11.5q1 0 8.5 7.5t10.5 8.5q20 10 39 -31q7 -12 -7 -51q-3 -8 -28 -64l-53 -118
q-13 -28 -68 -155zM118 233q23 0 76 38q50 37 93 77q-38 32 -80 19q-41 -12 -75 -47q-32 -35 -32 -60q0 -27 18 -27z" />
    <glyph glyph-name="colon" unicode=":" horiz-adv-x="273" 
d="M214 250q-15 0 -24 12.5t-9 31.5q0 22 19 42.5t44 20.5q35 0 35 -38q0 -23 -23 -46t-42 -23zM129 -10q-15 0 -24 12.5t-9 31.5q0 22 19 42.5t44 20.5q35 0 35 -38q0 -23 -23 -46t-42 -23z" />
    <glyph glyph-name="semicolon" unicode=";" horiz-adv-x="271" 
d="M56 -108q-15 -2 -23.5 4.5t-6.5 21.5q0 2 15 24q11 16 21 32q9 11 12.5 23.5t3.5 30.5l1 19q6 37 40 44q31 7 43 -22q17 -42 -26 -113q-17 -28 -48 -50q-15 -12 -32 -14z" />
    <glyph glyph-name="equal" unicode="=" horiz-adv-x="356" 
d="M123 229q-3 1 -12.5 -2t-18 -2t-13.5 11q-7 13 -2.5 30t16.5 18q244 13 244 -9q-1 -7 4 -12.5t6.5 -7t-6.5 -9.5q-9 -3 -59 -7q-34 -3 -106 -7q-51 -3 -53 -3zM140 124q-71 0 -76 1q-22 0 -25.5 15.5t12.5 35.5q5 8 108 12q105 4 123 0q4 -2 4.5 -5t-0.5 -9t1 -16
q2 -5 -11 -15q-84 -14 -136 -19z" />
    <glyph glyph-name="question" unicode="?" horiz-adv-x="394" 
d="M167 164q-20 26 -20 49q0 27 22 53q23 27 68 65q45 36 66 59q70 74 94 113q26 41 26 90q0 64 -40 64q-60 0 -102 -68q-41 -68 -20 -134q2 -6 -4.5 -12t-16 -7.5t-19.5 2.5q-31 20 -31 65q0 87 62 149q62 63 122 63q50 0 78.5 -36.5t28.5 -94.5q0 -54 -36.5 -109
t-112.5 -130q-18 -17 -48.5 -44t-41.5 -37q-59 -49 -39 -78q6 -8 -1.5 -16t-18 -9t-16.5 3zM128 -7q-15 0 -24 12.5t-9 31.5q0 22 19 42.5t44 20.5q35 0 35 -38q0 -23 -23 -46t-42 -23z" />
    <glyph glyph-name="at" unicode="@" horiz-adv-x="600" 
d="M170 -53q-68 58 -91 138q-21 79 2 150q23 72 86 131q65 59 154 81q20 5 36.5 5.5t33 -1.5t23.5 -2q43 -2 77 -21t50 -47q28 -48 33 -82q4 -31 -16 -86q-20 -53 -61 -96q-42 -43 -91 -40q-23 1 -41 20t-18 51q-28 -67 -91 -76q-65 8 -65 62q0 55 58 122q59 68 103 68
q19 0 40 -32q1 0 8.5 2.5t12 -0.5t9.5 -15q4 -7 10.5 -14t8.5 -9t4 -8t-3 -12l-8 -18q-42 -89 -23 -89q37 0 69 47q31 46 39 94q5 39 -9.5 69.5t-44.5 40.5q-46 13 -91 9q-78 -9 -135 -50q-18 -7 -54 -62q-35 -55 -53 -123t26 -124q34 -44 99 -51q109 -15 239 46
q28 13 28 -4q1 -16 -34 -51q-31 -29 -92 -47q-59 -19 -128 -14q-67 5 -100 38zM275 176q11 -9 39 25q29 35 26 40q-5 7 -25 -7.5t-34 -33.5t-6 -24z" />
    <glyph glyph-name="A" unicode="A" horiz-adv-x="448" 
d="M420 230q56 -5 65 -38q2 -16 -5 -17q-26 6 -127 4q-43 -216 -34 -245q4 -11 -16 -16q-31 -8 -48 11q-7 7 -9 19q1 15 -1 22q-1 3 2 27l5 30l6 34q7 29 8 37l8 38l9 40q-91 -5 -142 -10h-3q-128 -200 -184 -247q-20 -17 -33.5 -23t-35.5 -6q-54 0 -27 31l3 3l2 2
q97 106 185 231q-40 -6 -58 -6q-11 -1 -21.5 14.5t-10.5 30t13 20.5q33 7 126 11q100 149 258 424q9 17 33.5 18.5t44 -11.5t13.5 -31l-82 -395q18 0 56 -2zM314 448l-135 -217q104 2 115 2l5 32q18 112 45 230z" />
    <glyph glyph-name="B" unicode="B" horiz-adv-x="443" 
d="M51 -40q-10 0 -28 11t-22 20q-2 8 -2 11q0 14 9 44q10 29 10 31l20 86q9 39 17 64q3 10 14 40q1 8 10 26l-3 6q-9 11 -5 20t26 20q6 13 19 57q9 23 41 136q8 30 14 60q8 39 12 53q5 15 36 15q27 0 44 -27q57 7 93 7q55 0 88.5 -20.5t37.5 -60.5q11 -55 -49 -107
q-13 -12 -41 -32l-46 -29l-57 -33q-10 -6 -59 -34q52 0 95 -12q36 -9 73 -46t37 -86q0 -40 -40 -80q-38 -38 -91.5 -64.5t-104.5 -35.5q-84 -16 -117 -18q-19 -22 -31 -22zM192 380q121 68 169 115q44 42 44 67q0 20 -32 20q-63 1 -126 -34l-35 -110q-12 -32 -20 -58zM96 41
q59 5 133 38q79 35 111 73q19 22 19 45q0 29 -29.5 49.5t-68.5 20.5q-65 0 -119 -20q-30 -87 -46 -206z" />
    <glyph glyph-name="C" unicode="C" horiz-adv-x="334" 
d="M148 -44q-54 0 -95 47q-40 46 -34 151q6 95 54 217q48 121 117 210q69 88 127 88q53 0 81.5 -32t28.5 -87q0 -46 -19 -91t-36 -56q-20 -12 -47 -6q-19 4 -12 20q11 21 31 76q19 53 19 70q0 30 -29 30q-48 0 -107 -87q-56 -82 -98 -194q-39 -106 -45 -179
q-6 -61 15.5 -91.5t62.5 -30.5q55 0 112 43l46 34l45 39q4 3 7 4t4.5 -0.5t0.5 -5.5q-2 -26 -45 -74q-83 -95 -184 -95z" />
    <glyph glyph-name="D" unicode="D" horiz-adv-x="423" 
d="M71 -30q-39 0 -65.5 13.5t-26.5 31.5q0 14 11.5 31t25.5 18q15 35 60 193q46 161 60 216q11 43 27 89q-37 4 -37 12q0 15 6.5 27.5t15.5 16.5q21 9 79 9q65 0 112 -30t66 -76q18 -42 24 -92q10 -77 0 -121q-43 -189 -154 -269q-96 -69 -204 -69zM181 376l-94 -338
q71 -8 148 61q78 68 113 160q26 67 26 149q0 31 -5.5 55t-19.5 46.5t-41.5 36t-68.5 16.5q-47 -155 -58 -186z" />
    <glyph glyph-name="E" unicode="E" horiz-adv-x="376" 
d="M197 -51q-73 -19 -135 26q-62 46 -46 122q3 15 17 59q13 37 18 56q-30 18 -44 31q-7 7 -9 24q-1 16 7 18q5 0 18 2.5t31 6t27 5.5q-1 1 41 125q0 2 2 6.5t5 13.5t6 17q30 74 28 83q-1 5 -9.5 12.5t-9.5 10.5q-1 8 -0.5 11.5t5 12t5.5 11.5q20 45 49 45q15 0 37 -15
q18 10 53 13q44 7 107 -5q61 -10 84 -35q16 -16 19 -32q2 -11 -9 -11l-12 5q-12 4 -29 6q-103 5 -201 -15l-32 -86q-56 -154 -58 -163q88 5 193 5q25 0 12 -16q-28 -31 -117 -53l-37 -8q-62 -12 -82 -17q-5 -15 -8 -27q-35 -116 -30 -136q4 -22 22 -37t47 -15q36 0 102 26
l28 14q31 16 31 10q-1 -28 -29 -54q-43 -38 -97 -52z" />
    <glyph glyph-name="F" unicode="F" horiz-adv-x="354" 
d="M37 -62q-25 6 -17 49q1 5 2.5 12t3 13l2.5 10q3 8 8.5 24t9.5 27t4 13l18 61l18 60q-14 15 -17 32q-7 40 18 49l27 6l25 75q41 117 48 156q-7 3 -12.5 9.5t-7 16t1 18.5t15.5 18.5t34 15.5q53 15 120 16q80 2 121 -2q93 0 131 -6q21 -3 5 -24q-22 -29 -78 -40
q-20 -3 -36 -2q-57 2 -153 -8q-32 -3 -56 -12q-46 -101 -79 -228q29 0 45 1q36 3 137 10q23 2 21 -12q-3 -20 -39 -41q-15 -8 -33 -13q-101 -24 -165 -34q-31 -61 -67 -214v-25q0 -24 -4 -25q-15 -22 -51 -6z" />
    <glyph glyph-name="G" unicode="G" horiz-adv-x="520" 
d="M407 -140q-23 6 -30.5 13t-7.5 28q0 118 16 198q-51 -52 -133 -106q-82 -55 -125 -55q-21 0 -38 5q-51 16 -74 72q-18 42 -18 94q0 115 64 244q65 132 155 219q91 88 166 88q39 0 71 -29t32 -70q0 -20 -14 -70q-15 -49 -24.5 -67t-21.5 -18q-7 0 -15 5q-26 17 -26 36
q0 8 6 23q7 15 7 17q20 60 20 83q0 28 -20 28q-18 0 -48 -15q-28 -13 -44 -25q-105 -73 -177 -212t-65 -263q6 -81 40 -87q2 -1 8 -1q22 0 53 16q34 18 52 33l112 93q30 24 68 67q-10 -5 -44.5 -12.5t-35.5 -7.5q-41 -12 -71 -9q-17 2 -32 13.5t-15 25.5q0 9 15 13
q6 3 24.5 7t19.5 4l56 12q76 17 124 21q8 5 35 3q28 -1 32 -16q0 -1 6.5 -9t9 -13.5t-1.5 -11.5q-4 -3 -20 -6t-20 -5q-17 -63 -29 -152q-11 -96 -11 -172q0 -36 -31 -29z" />
    <glyph glyph-name="H" unicode="H" horiz-adv-x="502" 
d="M318 -12q-13 -13 -28.5 0t-9.5 38q14 47 30 110q22 78 32 107q-92 -8 -173 -31q-59 -122 -63 -203q-1 -12 -5.5 -18t-12.5 -5q-19 1 -30 34q-7 17 -5 46q1 12 9 35q5 17 18 53l12 35q-13 -5 -26 -10.5t-18 -7.5l-6 -2q-8 -2 -13 3t-12 23q-3 5 -4.5 10t-2.5 8.5t0.5 7.5
t2.5 6.5t4.5 6l5 5t7 4.5t7 4t8 4t7.5 4q11 5 37 13l34 10q37 104 69 216q17 49 35 123q5 23 32 0q26 -22 28 -45v-4l-8 -32q-3 -13 -24 -77q-10 -31 -16 -46l-21 -60l-22 -65l39 6q82 13 125 14q33 105 59 172q30 70 43 114q5 11 35 83q11 17 32.5 2t23.5 -35q1 -5 -16 -47
q-29 -69 -49 -119q-27 -67 -56 -164q68 -3 82 -29q4 -9 -4 -11l-92 -17q-18 -51 -34 -104q-44 -142 -66 -165z" />
    <glyph glyph-name="I" unicode="I" horiz-adv-x="351" 
d="M75 -40q-36 46 23 77q18 10 57 19q56 204 156 506q-88 -19 -94 -15q-12 6 -7 24q12 37 27 52q15 18 95 26q84 8 142 5q42 -2 60 -24q9 -10 -2 -12q-75 -14 -144 -36q-16 -56 -79 -239q-65 -195 -82 -277q75 8 141 -10q24 -7 10 -21q-10 -9 -39 -17q-19 -4 -44 -8
q-63 -11 -78 -18q0 -1 -2 -5.5t-2.5 -5.5t-3 -4t-5 -4t-7.5 -1.5t-11 -0.5q-14 2 -31 10q-10 -4 -23 -9t-20.5 -8.5t-15 -5.5t-13 -1.5t-8.5 3.5z" />
    <glyph glyph-name="J" unicode="J" horiz-adv-x="509" 
d="M160 -100q-14 0 -32 5q-72 20 -109 85q-19 32 -19 84q0 50 20 79q9 13 23 13q12 0 23 -10t12 -24q0 -4 -7 -17q-6 -13 -6 -15q-6 -22 -6 -50q0 -4 2 -28q9 -69 65 -69q37 0 80 28q45 27 70 58q106 136 156 337q16 60 33 146q-99 -31 -279 -31q-14 0 -24.5 19.5
t-10.5 38.5q0 11 5 11q19 -1 77 -1q84 0 137 8q51 9 116 30q9 4 22 4q32 0 32 -44q0 -29 -12 -69q-8 -24 -33 -129q-25 -103 -45 -160q-43 -128 -129 -214q-85 -85 -161 -85z" />
    <glyph glyph-name="K" unicode="K" horiz-adv-x="398" 
d="M398 -97q-59 29 -118 86q-92 91 -148 190q-4 -4 -14.5 -13t-13.5 -12q-19 -53 -29 -90q-8 -31 -20 -82.5t-15 -61.5q-5 -9 -21.5 -9t-33.5 10t-16 22q8 65 40 167l53 163q22 66 50 164q29 102 36 122q27 85 43 123q9 18 37 8t31 -25q1 -5 -5 -22q-11 -33 -27 -69
q-36 -120 -100 -305q61 26 143 102q78 72 129 130q40 48 65 100q10 22 37 -12q9 -12 12 -20q6 -16 0 -37q0 -2 -4.5 -8.5t-4.5 -7.5l-12 -16q-62 -74 -128 -135q-66 -59 -186 -154l34 -48l30 -44q36 -48 50 -62q76 -78 132 -107l27 -8q24 -7 35 -14t7 -15q-22 -42 -95 -10z
" />
    <glyph glyph-name="L" unicode="L" horiz-adv-x="302" 
d="M129 -58q-32 0 -62 14q-25 13 -32 36q-10 33 -8 50q7 52 8 58l8 29q1 5 8 30q2 7 4 13t3 9.5t1 4.5q18 59 70 217q34 95 43 131q1 4 1 29t3.5 45.5t14.5 24.5q20 15 37 -2q18 -17 24 -39q5 -25 -16 -90q-24 -83 -64 -199q-44 -131 -66 -207q-19 -64 -12 -79q6 -10 19 -10
q31 0 91 24l42 18q32 14 63 25q5 2 12 6t12 7t9.5 4.5t6.5 -2t2 -11.5l-7 -7q-19 -21 -62 -52l-38 -23l-36 -22q-58 -36 -79 -32z" />
    <glyph glyph-name="M" unicode="M" horiz-adv-x="639" 
d="M-69 -74q-11 3 -13.5 12.5t3.5 26t13 30.5t19 35t16 30l85 191l48 113q79 181 112 245q20 38 48 38q48 0 63 -32q5 -23 4 -31q0 -7 -5 -32.5t-5 -30.5q-26 -287 -25 -317q3 -65 8 -65q13 0 61 100q21 44 33 64q13 22 36 67q30 54 43 75q57 96 102 158q12 11 33 10.5
t40 -12.5t14 -26q-8 -21 -42 -162q-32 -133 -55 -346q-3 -40 -2 -82q0 -13 0.5 -25.5t1 -18.5t0.5 -7q-1 -16 -27 -6q-24 10 -34 28q-8 12 -9 28q-2 15 0 38q0 7 0.5 13.5t1 10t0.5 4.5q0 96 12 180q15 93 46 237q-20 -30 -41 -72l-27 -51q-29 -52 -48 -94q1 0 -1 -5t-8 -18
l-12 -26t-17.5 -37.5t-20.5 -45.5q-36 -78 -52 -99q-14 -18 -38 -18q-30 0 -41 18q-16 28 -23 185l-2 30q-2 42 8 270q-12 -41 -25 -69q-71 -157 -151 -359l-38 -90q-18 -45 -25 -60q-2 -5 -7 -7t-14 -1.5t-14.5 1.5t-16 4t-12.5 3z" />
    <glyph glyph-name="N" unicode="N" horiz-adv-x="543" 
d="M364 -47q-10 13 -49 243q-38 233 -38 256q0 9 -16 -35q-1 -3 -2 -5q-66 -175 -129 -388q-13 -46 -15 -59q-4 -30 -35 -14q-28 15 -35 39q-2 6 -2 7q0 28 104 340q105 311 117 311q15 0 38 -17q24 -16 24 -34q0 -9 17 -119q17 -111 36 -218q4 -21 7 -40t5.5 -32.5t4 -23.5
t2.5 -16.5t1 -7.5q16 37 103 284q86 242 87 256q1 13 19 4q27 -12 29 -47q1 -9 -2 -21q-2 -8 -106 -325q-100 -304 -102 -329q-1 -19 -13.5 -25t-27 -0.5t-22.5 16.5z" />
    <glyph glyph-name="O" unicode="O" horiz-adv-x="448" 
d="M209 -49q-74 0 -111.5 49.5t-37.5 136.5q0 102 43 218q43 117 114 200t139 83q62 0 108 -70q27 -37 27 -100q0 -62 -25 -143q-25 -84 -46 -136q-21 -55 -18 -60q7 -7 7 -18q0 -31 -81 -96q-79 -64 -119 -64zM196 4q50 0 106 87q57 90 91 204q35 119 35 207q0 73 -49 73
q-44 0 -121 -77q-133 -199 -133 -362q0 -56 17.5 -92.5t43.5 -38.5q2 -1 10 -1z" />
    <glyph glyph-name="P" unicode="P" horiz-adv-x="403" 
d="M75 0q-7 -12 -14 -13.5t-11.5 2t-11.5 13t-10 12.5q-12 4 5 62q21 65 24 79l69 228q36 110 40 145q-26 0 -36 25q0 1 -5 11.5t-6 12.5q0 11 11 20q39 26 65 40q2 7 4.5 10.5t4 4.5t6.5 2h3q3 0 14.5 -4t15.5 -5q55 4 106 -17q48 -20 82 -63.5t44 -94.5q3 -21 -1 -68
q-5 -43 -22 -73q-25 -46 -56 -77q-55 -55 -137 -85q-85 -29 -129 -25q-2 -5 -16 -46l-17 -44q-18 -44 -22 -52zM141 187q37 3 84 28q67 36 115 79q44 39 67 83q22 36 18.5 82.5t-33.5 75.5q-48 43 -132 36l-43 -148l-15 -48q-36 -108 -61 -188z" />
    <glyph glyph-name="Q" unicode="Q" horiz-adv-x="489" 
d="M420 -143q-13 20 -27 46l-37 70l-31 59q-29 -10 -45 -15q-45 -13 -98 16q-47 27 -68 82t-15 121q12 131 68 235q68 127 140 162q52 27 115 -3q62 -30 85 -86q58 -151 -114 -395q10 -16 11 -24q1 -10 -20 -37l38 -85q34 -72 49 -119q4 -16 -19 -28q-22 -13 -32 1zM304 92
q-18 43 -39 86q-8 18 10 25q19 9 38 8q10 -1 16 -4t8.5 -6t7 -10t7.5 -11q63 100 85 179q17 62 22 113q3 43 -10.5 69.5t-47.5 25.5q-50 -1 -91.5 -30.5t-70.5 -81.5q-47 -84 -65 -174q-22 -122 14.5 -174t115.5 -15z" />
    <glyph glyph-name="R" unicode="R" horiz-adv-x="379" 
d="M449 34q6 -4 -3 -15.5t-27.5 -21.5t-37.5 -10q-69 0 -124.5 61.5t-88.5 172.5q-47 -9 -74 -7l-57 -151q-18 -74 -30 -77q-19 2 -32 16.5t-11 32.5q21 55 67 197l-3 3q-12 15 -16 31q-3 12 4 12q2 0 13.5 -0.5t15.5 -0.5q67 205 91 292q-26 -12 -26 13q0 28 22 47
q7 7 13 8q53 19 125 19q44 0 101 -18q56 -16 79 -45q41 -56 41 -111q0 -48 -41 -93.5t-123 -100.5q-26 -17 -93 -49q23 -71 72 -137q49 -64 91 -75q10 -2 12 -2q7 0 16.5 3.5t15.5 5.5t8 0zM119 282q113 11 205 79q93 71 93 157q0 31 -42 52q-40 21 -90 22t-88 -15
q21 -17 -78 -295z" />
    <glyph glyph-name="S" unicode="S" horiz-adv-x="420" 
d="M237 -35q-54 0 -102.5 31t-76.5 88q-22 31 -22 83q0 35 27 35q1 0 9 1t15 0t13 -5q2 -1 5.5 -12t10 -34t10.5 -36q10 -31 34 -59.5t55 -39.5q16 -16 45.5 -2t29.5 45q0 32 -22 94q-20 61 -48 124q-24 59 -48 136q-21 74 -21 125q0 75 46 109q34 26 107 26t108 -50
q34 -49 34 -119q0 -49 -15 -90q-3 -8 -15 -8q-17 0 -37 14t-15 26q5 42 5 69q0 54 -21 88q-16 25 -40 25q-19 0 -47 -19q-12 -9 -20 -24q-8 -17 -9 -55q-2 -46 32 -137l71 -185q36 -91 36 -134q0 -17 -6 -28q-12 -38 -47 -60t-81 -22z" />
    <glyph glyph-name="T" unicode="T" horiz-adv-x="399" 
d="M563 639q73 -7 92 -22q13 -10 -34 -15h-3l-199 -22q-28 -63 -58 -153q-117 -355 -135 -450q-4 -19 -30 -8q-25 10 -25 29v2q23 131 79 295l12 41l24 78l27 86q16 50 24 71q-58 -6 -211 -25q-14 -2 -19.5 14t-1 34t15.5 23q37 18 195 26q151 7 247 -4z" />
    <glyph glyph-name="U" unicode="U" horiz-adv-x="529" 
d="M468 -40q-33 4 -45 15q-18 13 -33 39q-26 54 -26 183l-26 -36l-26 -36q-41 -54 -50 -65q-28 -35 -48 -51q-42 -34 -74 -39q-9 -3 -19 -3q-29 0 -56 19t-34 45q-7 20 -7 47q0 51 42 183t96 247t82 115q15 0 30.5 -12.5t15.5 -26.5q0 -12 -19 -38q-70 -99 -122 -252
q-53 -156 -53 -233q0 -43 24 -43q28 0 104 99q72 94 134 198q10 13 24 42l30 62q5 9 9.5 19.5t7 16t3.5 7.5q13 32 25.5 46.5t29.5 14.5q14 0 33 -11q15 -10 15 -19q0 -8 -15 -23q-12 -14 -20 -31q-68 -168 -68 -307q0 -21 3 -45t8 -45.5t13.5 -34t19.5 -8.5h5q13 0 22 -15
l2 -6q0 -6 -5 -11q-7 -7 -32 -7z" />
    <glyph glyph-name="V" unicode="V" horiz-adv-x="278" 
d="M117 -22q-19 -15 -43.5 -2.5t-30.5 42.5q-6 27 -7 53q-2 22 -1.5 56.5t0.5 41.5q-3 60 -3 118q-1 109 -8 203l-8 51q-7 46 -5 86q1 22 31 19q30 -2 39 -21q2 -6 2 -7q17 -138 18 -174q0 -6 3 -68q3 -46 7 -135l4 -118l31 62l24 47l70 135l53 100q47 90 72 131l11 20
l17 30q1 4 18 33q34 66 56 75q15 6 32 -8q18 -13 12 -31q-5 -12 -21 -33q-16 -19 -18 -23q-2 -3 -5.5 -12.5t-4.5 -11.5q-128 -228 -182 -341l-28 -56q-46 -91 -58 -123q-10 -27 -36 -76q-3 -4 -19 -36q-7 -14 -22 -27z" />
    <glyph glyph-name="W" unicode="W" horiz-adv-x="639" 
d="M82 -29q-24 0 -40 15q-40 37 -40 115q0 92 64 266q40 108 78 185l17 36l21 42q23 45 49 69q5 5 13 5q18 0 38 -24q19 -24 13 -35q-53 -75 -97 -163q-33 -71 -80 -206q-43 -122 -38 -183q0 -38 19 -38q10 0 46 44q38 47 56 78q9 13 67 118l57 104q13 15 37 9q23 -4 47 -23
q23 -18 18 -30q-8 -17 -14 -41q-3 -13 -7 -41q0 -4 -0.5 -23t-0.5 -23v-28v-28q0 -33 3 -66q0 -17 7 -36t22 -19q16 -1 42 30.5t61 96.5q93 159 97 294q3 75 -24 139q-11 27 -11 31q0 12 21 15q39 6 67 -58q25 -54 25 -116q0 -45 -17 -108q-16 -60 -33 -103l-52 -122
q-15 -32 -66 -98q-31 -45 -82 -58q-11 -3 -21 -3q-32 0 -57 23t-38 60q-20 60 -20 176q-33 -70 -83 -140q-54 -74 -92 -109q-40 -29 -72 -29z" />
    <glyph glyph-name="X" unicode="X" horiz-adv-x="376" 
d="M50 -40q-17 0 -32 21q-19 22 -18 28q0 2 12 14.5t27.5 29t21.5 25.5q16 24 31 44q46 61 71 106q-12 55 -23 129q-24 173 -24 193q0 17 7 24q11 12 30 12h9.5h8.5t6.5 -0.5t6.5 -1.5t4.5 -3t4 -5t2.5 -7q1 -83 23 -260l47 61q11 15 30 39l29 36q18 25 36.5 51t26 36
t8.5 11l45 51q3 4 13 -2t17.5 -18t3.5 -23q-38 -59 -125 -177q-95 -129 -113 -155q15 -51 31 -87q13 -28 42 -57q19 -19 28 -19l14 6q14 7 25 8q4 0 16 -12q13 -10 13 -12q0 -8 -17 -20t-26 -15q-9 -4 -25 -4q-37 0 -74 27q-18 13 -40.5 43t-35.5 64l-27 -43l-31 -50
q-22 -38 -44.5 -64.5t-34.5 -23.5z" />
    <glyph glyph-name="Y" unicode="Y" horiz-adv-x="468" 
d="M344 -212q-46 5 -63 35q-20 38 -20 73q2 61 7 88l9 41l9 38l7 29q12 45 25 90q17 55 31 111q-41 -53 -110 -112q-67 -56 -96 -56q-34 -1 -54 32q-19 32 -19 70q0 52 21 118l25 65l22 55q12 30 17 39q11 22 27 51l22 42q12 25 38 -4q25 -27 22 -51l-3 -9q-31 -45 -74 -155
q-26 -64 -42 -124q-1 -4 -4 -14.5t-4 -17t-2 -14.5t1 -12t7 -4q29 0 155 158q128 159 156 222q10 22 18 32t21.5 9t30.5 -20q19 -24 5 -55q-3 -9 -15 -32l-11 -23q-22 -50 -46 -126q-71 -219 -97 -321q-24 -94 -24 -177q0 -31 21 -51q12 -11 9 -16t-22 -4z" />
    <glyph glyph-name="Z" unicode="Z" horiz-adv-x="438" 
d="M120 -60q-30 0 -54 10q-46 22 -46 70q0 45 42 112q41 64 105 134q63 68 126 129q65 63 114 114q49 49 61 71q-13 4 -34 4q-99 0 -223 -97q-20 -16 -40 -43q-21 -28 -33 -40q-14 -12 -25 -12q-10 1 -20 23q-10 21 -8 33q5 35 65 86q59 50 112 73q2 1 18.5 8.5t20.5 8.5
q2 1 11.5 5t18.5 7.5t14 4.5q52 20 95 20q34 0 56 -13q30 -19 40 -63q4 -13 4 -27q0 -23 -33 -50q-45 -35 -113 -109l-248 -278q-47 -53 -47 -77q0 -23 37 -23q4 0 22 2q101 15 293 110q43 22 40 5q-4 -22 -64 -71q-20 -16 -30 -23q-59 -41 -101.5 -61t-96.5 -32
q-58 -11 -79 -11z" />
    <glyph glyph-name="bracketleft" unicode="[" horiz-adv-x="311" 
d="M-23 -266q-19 0 -19 35q0 71 73 274q72 200 144 376q70 172 69 175q-2 9 7 12t42 6l28 2q7 1 34.5 4.5t42.5 6.5l9 1q6 1 15 1q39 0 39 -26q0 -3 -8.5 -9t-17.5 -9l-65 -18q-28 -2 -74 -11q-36 -64 -84 -210q-68 -157 -77 -194q-6 -26 -13 -38q-3 -5 -9 -9t-7 -6t2 -10
q5 -3 6 -6t-1 -8t-5.5 -11t-9 -16.5t-9.5 -22.5q-65 -196 -71 -227l31 -2q31 -3 62.5 -9t37.5 -15q3 -6 -10.5 -14t-26.5 -8q-84 -2 -102 -7q-18 -7 -33 -7z" />
    <glyph glyph-name="backslash" unicode="\" horiz-adv-x="476" 
d="M317 -226q-17 -20 -36 1q-16 17 -59 190q-58 231 -98 380q-56 205 -93 282q-2 5 7 14q24 24 44 9q9 -7 13 -15q36 -63 117 -407q82 -346 114 -427q4 -11 -9 -27z" />
    <glyph glyph-name="bracketright" unicode="]" horiz-adv-x="310" 
d="M-75 -297q-13 0 -2 20q13 22 32 22q49 7 78 5q6 16 16 59q101 291 156 420q34 88 73 192l41 112q7 21 16 42q-3 7 -13 8q-6 1 -34 -1t-40 -2q-5 0 -13.5 -1t-13.5 -1t-11 2t-11 8q-8 10 -10 30q0 20 10 21q29 0 52 1q43 2 54 1q93 0 116 -35q3 -9 0.5 -20t-9.5 -16
q-19 -17 -62 -124l-40 -105l-48 -130q-35 -95 -50 -131l-111 -317q0 -37 -14.5 -51.5t-43.5 -7.5q-44 6 -58 6q-11 0 -32 -3.5t-28 -3.5z" />
    <glyph glyph-name="underscore" unicode="_" horiz-adv-x="460" 
d="M-107 -113q-16 0 -8 29q7 29 24 31h130q73 -1 219 -1q73 -1 113 -1q14 0 16 -20q2 -21 -12 -26q-7 -3 -54 -3h-94t-87 -1q-20 -2 -83 -3q-140 -5 -164 -5z" />
    <glyph glyph-name="grave" unicode="`" horiz-adv-x="600" 
d="M315 394q-44 0 -104 45q-59 47 -46 70q17 27 36 27q16 0 28 -9q9 -7 26 -26t21 -23l27 -21q37 -28 37 -43q0 -9 -11 -17q-6 -3 -14 -3z" />
    <glyph glyph-name="a" unicode="a" horiz-adv-x="377" 
d="M308 -21q-44 -5 -74.5 26.5t-34.5 87.5q-86 -94 -148 -89q-39 4 -52.5 30.5t-3.5 63t32.5 76.5t53.5 74q24 27 53 45t61 22.5t59 -14.5q13 19 47 0q32 -16 22 -37q-26 -47 -44 -101q-20 -58 -20 -96q0 -19 8 -28.5t25 -8.5q7 0 17 2.5t20 7.5t21 11t20.5 12.5t19 12.5
t16 11t10.5 9l5 3q7 6 7 0q-1 -17 -37 -62q-44 -54 -83 -58zM55 71q-2 -8 -0.5 -11.5t7.5 -1.5q29 9 92 78q69 77 69 110q-12 15 -45 -8.5t-69 -71t-54 -95.5z" />
    <glyph glyph-name="b" unicode="b" horiz-adv-x="347" 
d="M168 -20q-48 0 -70 39q-10 19 -3 23q2 0 12.5 -5t15.5 -6q32 -5 70 41q19 22 48 93q34 87 5 87h-3q-22 -3 -56 -55q-31 -48 -52 -93q-1 -1 -4 -8t-3.5 -8t-3.5 -6.5t-4.5 -6t-4.5 -3.5t-5.5 -2.5t-6.5 0t-8.5 0.5t-9.5 3q-39 15 -34 71q2 29 5 43q13 59 21 84l12 39
l16 43l15 39q60 164 114 276q8 11 23.5 7.5t29.5 -18.5t10 -27q-9 -24 -48 -113q-38 -87 -73 -178q-32 -87 -32 -116q50 75 100 75q39 0 63 -33q37 -51 3 -139q-29 -78 -87 -124q-25 -22 -55 -22z" />
    <glyph glyph-name="c" unicode="c" horiz-adv-x="250" 
d="M124 -15q-55 0 -84 29q-34 34 -34 86q0 48 26 98t64 85q40 36 70 36q24 0 47 -20q26 -24 26 -50q0 -18 -20 -18l-14 2q-7 2 -16 6.5t-11 4.5q-5 0 -19 -8q-13 -9 -48 -56q-46 -62 -46 -104q0 -17 9 -29q10 -12 30 -12q64 0 186 84q2 1 3 -1t1 -6q0 -24 -27 -56
q-18 -19 -63 -50q-32 -21 -80 -21z" />
    <glyph glyph-name="d" unicode="d" horiz-adv-x="410" 
d="M339 -12q-47 -4 -77 30.5t-30 101.5q-2 -4 -27 -40q-13 -17 -41 -42q-29 -26 -66 -26q-48 0 -69 45q-9 19 -9 41q0 70 70 155q48 60 87 60q28 0 56 -25q17 -15 19 -15t13 26l36 95q13 33 28 66q41 94 59 145q12 36 29 36q13 0 29 -22q19 -28 -4 -86l-93 -227
q-26 -52 -39 -94q-23 -75 -23 -117q0 -44 19 -51q7 -4 21 -4q24 0 51 13q17 7 37 19t32 20t13 8q7 3 7 -1q-1 -16 -41 -57q-48 -50 -87 -54zM82 75q22 0 80 66q59 67 59 87q0 5 -7 13t-12 8q-27 0 -76 -64q-50 -65 -50 -99q0 -11 6 -11z" />
    <glyph glyph-name="e" unicode="e" horiz-adv-x="269" 
d="M135 -15q-49 0 -89 33q-22 18 -29 37t-7 49q0 77 65 145q66 68 124 68q17 0 32 -9q21 -12 25 -37q1 -4 1 -17q0 -23 -8 -47q-12 -36 -38.5 -63t-61.5 -35q-3 -1 -13 -1q-33 0 -59 17q-17 -53 6 -77q12 -13 42 -13q98 0 186 88q1 1 3 -3q3 -24 -22 -55l-4 -5
q-27 -31 -71 -53t-82 -22zM100 167q20 -11 49 17q14 10 39 40q27 31 22 40q-1 8 -23.5 -6.5t-49 -41.5t-37.5 -49z" />
    <glyph glyph-name="f" unicode="f" horiz-adv-x="256" 
d="M80 -149q-6 0 -14 3q-27 9 -39 74q-7 35 -4 80q3 49 13 102q8 51 20 86q-22 -5 -30 -5q-16 0 -23 19q-8 21 -8 27q0 8 7.5 11.5t36.5 10.5q7 2 22 4.5t19 3.5l30 86q22 60 35 90q25 61 41 91q81 155 140 145q33 -1 60 -32q28 -29 32 -62q1 -30 -14 -64q-2 -6 -17 -32
l-14 -26q-3 -5 -8 -12.5t-6.5 -10t-5 -6t-6.5 -5t-7 -3t-11 -2.5q-34 -2 -34 12q2 9 25 57l3 7q3 8 7.5 19t6.5 18q15 34 15 56q2 20 -12 20q-6 0 -9 -1q-25 -7 -56 -63q-11 -17 -15 -27l-14 -28q-8 -19 -9 -20q-21 -44 -48 -109q-27 -68 -33 -92q31 6 94 9q65 3 97 -1
q38 -5 16 -20q-27 -17 -102 -29q-69 -10 -132 -26q-2 -3 -20 -67l-13 -67q-4 -22 -9 -63q-8 -80 8 -148q-3 -12 -15 -10z" />
    <glyph glyph-name="g" unicode="g" horiz-adv-x="385" 
d="M7 -405q-56 0 -92.5 39.5t-36.5 98.5q0 36 10 52q5 8 8 -4q18 -63 43.5 -93t66.5 -30q39 0 77.5 33.5t68.5 91.5q58 108 88 222q4 13 10 39q8 36 15 59q3 7 9 44q-38 -55 -93 -114q-56 -57 -88 -57q-21 0 -42.5 15.5t-27.5 34.5q-4 9 -4 27q0 44 37 117q44 88 112 131
q24 15 45 15q46 0 86 -43q17 17 33 21q4 1 16 -4t18 -10q15 -12 15 -28t-19 -44q-18 -29 -21 -37q-12 -65 -36 -159q-21 -84 -32 -116q-109 -301 -266 -301zM83 40q23 0 91 74q69 77 95 120q-22 17 -32 17q-29 0 -88 -72l-25 -34q-18 -25 -31 -51q-17 -31 -17 -44
q0 -10 7 -10z" />
    <glyph glyph-name="h" unicode="h" horiz-adv-x="424" 
d="M346 -12q-38 0 -65 26.5t-27 69.5q0 30 21 156q-49 -46 -78 -82q-28 -34 -71 -105q-23 -45 -48 -52q-2 -1 -10 -1q-24 0 -39.5 13.5t-15.5 32.5q0 83 74 281q102 270 141 329q18 28 29 28q17 0 29.5 -10t12.5 -22q0 -20 -21 -59q-34 -58 -104 -239q-66 -172 -66 -215
q44 71 93 120q50 50 84 50q19 0 42 -26q24 -27 25 -47q2 -22 -10 -77t-12 -82q0 -36 24 -36q8 0 11 1q33 8 67 40q7 6 17 16.5t16.5 17t7.5 6.5q6 6 8 6q7 0 -8 -31q-16 -33 -46 -66t-61 -41q-8 -2 -20 -2z" />
    <glyph glyph-name="i" unicode="i" horiz-adv-x="213" 
d="M148 361q-10 0 -18 14q-6 11 -6 37q0 21 11 51q12 29 31 29q14 0 31 -17q9 -9 9 -30q0 -20 -20 -52t-38 -32zM126 -12q-50 -5 -85 32q-34 37 -18 115q10 52 41 130q9 23 18.5 29t24.5 -1q43 -10 30 -35q-54 -113 -54 -181q0 -25 14 -33q26 -20 86 16q18 9 40 25l24 15
q7 3 7 -1q-1 -16 -41 -57q-48 -51 -87 -54z" />
    <glyph glyph-name="j" unicode="j" horiz-adv-x="200" 
d="M143 396q-17 29 9 110q6 18 13.5 24.5t18 2.5t26.5 -20q26 -32 -10 -94l-3 -5q-31 -58 -54 -18zM-201 -366q-42 14 -57 64t10 113q27 -90 52 -115q32 -33 81 25q11 12 24 33q22 38 32 57q57 119 159 472q6 18 21 18q11 0 14 -1q5 0 17.5 -3.5t13.5 -3.5q14 -2 2 -42
q-4 -16 -15.5 -54.5t-13.5 -48.5q-25 -103 -101 -296q-24 -62 -62 -121q-80 -124 -177 -97z" />
    <glyph glyph-name="k" unicode="k" horiz-adv-x="360" 
d="M35 -26q-22 7 -30.5 15t-8.5 24q0 18 50 168q64 191 121 346q21 59 37 97q9 21 37 2q26 -19 25 -38q0 -4 -1 -5q-4 -10 -10.5 -29t-9.5 -27l-11 -31q-85 -228 -87 -238l-21 -63q-18 -57 -39 -117q-1 -3 -4.5 -14t-6 -19.5t-6.5 -20.5t-8 -20.5t-8.5 -16.5t-9.5 -11.5
t-9 -1.5zM269 -19q-2 0 -8 0.5t-7 0.5q-35 5 -60 22q-34 25 -53 57q-6 11 -13 33q-8 26 -9 36q-1 24 17 42l32 35q59 63 107 90q33 18 50 18q28 0 33 -44q1 -8 -9.5 -17.5t-30 -22t-24.5 -16.5l-27 -18q-24 -17 -32 -24q-32 -24 -48 -51q0 -52 55 -76q19 -6 31 -9l21 -3
t24 -3.5t14 -2.5q-15 -47 -63 -47z" />
    <glyph glyph-name="l" unicode="l" horiz-adv-x="276" 
d="M161 -22q-51 0 -85 21q-28 16 -37.5 44.5t-9.5 77.5q0 66 37 183q24 74 58 150q36 77 79 140q30 46 63 56q6 2 17 2q29 0 53 -16.5t25 -42.5q2 -78 -29 -149q-45 -106 -98 -184q-81 -125 -140 -167q0 -69 55 -69q54 0 109 49q7 5 23 21q16 15 19 11l2 -4q2 -9 -8 -31
t-23 -35q-57 -57 -110 -57zM97 162q36 40 66 84q47 66 70 118l17 37l20 42q35 71 39 130q1 3 1 11q0 13 -6 13q-17 0 -69 -97q-50 -94 -90 -191q-31 -73 -48 -147z" />
    <glyph glyph-name="m" unicode="m" horiz-adv-x="634" 
d="M69 -30q-28 0 -46 13t-18 36q0 47 79 257q20 52 26 58q8 8 28 -4q36 -19 25 -45q-5 -17 -57 -156q12 22 46 62q42 47 53 58l35 34q34 31 58 27q17 -3 29 -22t15 -39q1 -16 0 -26q0 -1 -2 -35l-3 -41q35 50 74 93q36 40 51 40q23 0 43 -20q19 -20 18 -36q-9 -78 -10 -126
t11 -54q24 -14 89 17q23 12 41 24l24 15q7 3 7 0q-1 -17 -41 -58q-48 -50 -87 -54q-49 -4 -83 22q-55 43 -22 175q-25 -30 -57 -76q-37 -55 -56.5 -78t-32.5 -23q-12 0 -22 7q-24 15 -24 44q0 1 1 7t4 22.5t6 31.5l21 120q-37 -27 -103 -107q-77 -94 -108 -155q-5 -8 -12 -8
z" />
    <glyph glyph-name="n" unicode="n" horiz-adv-x="421" 
d="M337 -12q-22 0 -45 11t-35 30q-32 50 3 172l-91 -91q-49 -50 -72 -78q-30 -41 -48 -41q-13 0 -27 17q-13 17 -13 31q0 10 9 40l28 97l38 134q6 25 15.5 29t29.5 -9q36 -19 25 -45q-1 -1 -9.5 -25.5t-21.5 -61t-21 -58.5l95 94q19 19 46 36q28 19 44 19q13 0 29.5 -14
t16.5 -28q0 -5 -12 -62q-13 -53 -13 -87q0 -65 35 -65q19 0 45 15l40 26l37 22q3 2 3 -3q0 -16 -23 -44l-6 -7q-40 -43 -76 -51q-12 -3 -26 -3z" />
    <glyph glyph-name="o" unicode="o" horiz-adv-x="293" 
d="M110 0q-20 0 -39 10q-48 16 -48 74q0 60 38 128q0 1 12 23t19 34q42 71 65 73q11 1 26.5 -10.5t22.5 -22.5q6 -13 6 -19v-2q0 -4 12 -14q6 -5 46 -34q21 -15 21 -45q0 -11 -1 -14q-2 -27 -24 -57q-8 -10 -11 -14l-27 -31q-70 -79 -118 -79zM93 58q21 0 79 63q59 64 59 87
q0 7 -6 13l-12 3q-34 9 -48 1q-35 -20 -68 -110q-12 -31 -12 -45q0 -12 8 -12z" />
    <glyph glyph-name="p" unicode="p" horiz-adv-x="401" 
d="M-3 -387q8 -11 -10 -13q-30 -4 -54 23q-12 16 -16 32q-10 37 13 128q0 1 0.5 4.5t1.5 4.5q34 136 103 320q33 91 71 181q32 76 47 83q11 4 42 -3q24 -6 7 -42q-20 -37 -81 -175q30 41 51 62q61 67 101 81q9 4 24 4q33 0 56 -32q22 -30 17 -69q-1 -25 -25 -74
q-23 -46 -63 -87q-40 -40 -82 -40q-36 0 -52 31q-10 19 1 22q2 2 5 0q28 -6 58 11.5t48 46.5q50 81 49 126q0 15 -7 15q-19 0 -65 -40q-68 -60 -121.5 -143t-79.5 -167q-42 -136 -49 -182q-13 -69 10 -108z" />
    <glyph glyph-name="q" unicode="q" horiz-adv-x="348" 
d="M162 -300q-7 0 -21 14q-23 23 -23 65q0 26 23 112l54 192q-37 -54 -81 -79q-10 -6 -24 -6q-36 0 -61 28q-19 22 -19 55q0 74 77 156q78 82 144 82q45 0 66 -54q14 -36 14 -61q0 -23 -8 -44q-66 -184 -67 -189q-9 -30 -16 -59q-11 -49 -19 -69q-9 -25 -17 -76
q-1 -4 -3 -22.5t-6 -31.5t-13 -13zM75 72q15 0 59 44q48 48 79 87q36 44 33 44q-59 11 -126 -71q-46 -55 -52 -91q-1 -13 7 -13z" />
    <glyph glyph-name="r" unicode="r" horiz-adv-x="304" 
d="M67 -13q-32 0 -44 7.5t-12 23.5q0 5 5 30q5 27 12 52l10 36q18 79 35 129q17 47 24 54q8 9 16 6q30 -12 37.5 -20t5.5 -23q-4 -30 -36 -111q37 71 101 126q16 14 34 7t25 -30q15 -45 47 -73q4 -2 -1 -10t-14 -14.5t-16 -6.5q-24 0 -39 13.5t-30 47.5q-17 -11 -44 -44
q-26 -30 -39 -55q-24 -45 -38 -78q-25 -67 -39 -67z" />
    <glyph glyph-name="s" unicode="s" horiz-adv-x="240" 
d="M153 -34q-12 0 -16 1q-31 0 -81 47q-49 48 -49 73q0 11 16 20q6 3 11 3q10 0 38 -40t44 -47q9 6 -26 107q-22 60 -22 103q0 90 79 100q41 4 69 -25t28 -73q0 -48 -27 -48q-14 0 -27 13q-8 8 -8 16q0 1 2 12t2 16q0 8 -3 18q-7 21 -22 21q-33 0 -20 -79q7 -35 24 -94
q19 -92 19 -105q0 -22 -7 -30.5t-24 -8.5z" />
    <glyph glyph-name="t" unicode="t" horiz-adv-x="231" 
d="M48 -12q-23 2 -34 25q-7 9 -5 36q4 74 46 179q-2 1 -13 0l-11 -1q-22 0 -22 24q0 23 9 29q4 3 12 4.5t22 3.5t25 4l34 85l45 106q26 66 39 72q8 2 9 2q17 0 32 -16q15 -17 11 -27l-5 -12q-5 -13 -19 -46t-29 -67q-13 -28 -39 -94q8 0 30 2t27 2q8 0 38.5 2t40.5 2
q23 0 0 -20q-31 -30 -77 -39q-1 -1 -3 -1l-40 -6l-41 -7q-15 -27 -43 -119q-4 -22 -9 -44t-6 -31l-2 -8q-1 -5 0 -16l2 -11q-3 -15 -24 -13z" />
    <glyph glyph-name="u" unicode="u" horiz-adv-x="423" 
d="M67 -30q-87 15 -43 176q18 65 38 121q26 71 40 77q15 5 37 -14q24 -20 24 -41q0 -10 -7 -23q-36 -67 -65 -138q-26 -82 -17 -86h4q1 0 18 18q32 39 94 106l24 31q17 22 34 41q2 2 14 20.5t24 32t18 12.5q11 1 24.5 -8t19.5 -20q5 -8 6 -13.5t0 -9t-3.5 -11.5t-4.5 -15
q-22 -61 -33 -113q-14 -71 14 -71q38 0 111 42l29 16q7 3 7 -1q-1 -16 -41 -57q-48 -50 -87 -54q-48 -4 -77 37t-12 124q-21 -24 -62 -72q-93 -111 -128 -107z" />
    <glyph glyph-name="v" unicode="v" horiz-adv-x="315" 
d="M113 -30q-9 0 -22.5 8t-19.5 20q-12 24 -18 173q-2 41 -9 125q-1 5 -1 20q0 16 14 16q10 0 14 -1q33 -4 41 -16q9 -11 9 -52v-71q0 -53 2 -99l44 74q77 130 87 144q26 35 39 35q9 0 21 -12t12 -21q0 -5 -9 -15.5t-12 -17.5q-12 -20 -41 -78l-39 -78q-24 -47 -29 -57
q-15 -28 -42 -64q-26 -33 -41 -33z" />
    <glyph glyph-name="w" unicode="w" horiz-adv-x="516" 
d="M86 -10q-56 11 -56 82q0 58 31 136q19 52 80 149q4 7 15 7q12 0 29 -10.5t23 -18.5q3 -5 -9 -28q-3 -7 -28 -52q-3 -6 -7.5 -13.5t-7 -11.5t-4.5 -8.5t-3 -6.5q-25 -60 -42 -108t-6 -48q8 0 44 48q6 9 17.5 23t14.5 18q9 11 20 26t17.5 23.5t7.5 9.5q2 2 16 25
q28 46 47 50q22 4 38 -20q16 -25 12 -46q-19 -4 -19 -71q0 -28 4.5 -52.5t11.5 -27.5q15 -5 36 27q33 51 52 115q10 36 10 71q0 22 -6 37q-3 7 -3 12q0 6 6 6q16 0 34 -24q25 -28 25 -83q0 -3 -2 -33q-8 -53 -54 -123t-92 -70q-36 0 -61 46q-17 33 -16 101
q-4 -5 -27.5 -37.5t-24.5 -34.5l-15 -20q-14 -20 -33 -39q-25 -25 -75 -26z" />
    <glyph glyph-name="x" unicode="x" horiz-adv-x="307" 
d="M190 -20q-27 1 -67 34q-13 11 -34 42l-17.5 -22.5t-16 -20t-12.5 -14t-12 -10t-9 -2.5q-10 0 -21 32q-1 2 -1 9q0 12 8 26q10 15 31 36q14 14 29 32q-7 66 -7 118q0 58 13 93q6 18 16 19q32 4 42 4q32 0 32 -21q0 -9 -12 -54q-11 -40 -16 -84q8 10 25 27q10 11 56.5 60
t75.5 80q6 -2 17 -24q1 -3 1 -11q0 -13 -11 -33q-35 -62 -157 -168q-1 -19 6 -50q8 -30 23 -41q4 -4 14 -4q13 0 36 13q25 14 32 14q13 0 18 -26q3 -27 -25 -40q-28 -14 -57 -14z" />
    <glyph glyph-name="y" unicode="y" horiz-adv-x="411" 
d="M94 -394q-29 -3 -53.5 18t-29.5 51l-1 5v7q0 7 2 17q8 14 12 14t17 -18l16 -19q7 -7 19 -5q12 3 47 59q19 35 66 132q15 32 55 135q7 15 32 98q23 75 26 106q-47 -62 -143 -143q-49 -42 -72 -42q-29 0 -45.5 23.5t-16.5 62.5q0 22 6 46q32 134 59 140q12 3 37 -16
q19 -15 19 -23q0 -4 -3 -10q-16 -33 -27 -61q-20 -49 -20 -76q0 -24 151 127l4 4l22 24q29 34 53 49q10 6 24 6q19 0 33 -11.5t13 -29.5q0 -7 -10.5 -36t-12.5 -43q-11 -66 -58 -199q-45 -134 -113 -265q-64 -127 -108 -127z" />
    <glyph glyph-name="z" unicode="z" horiz-adv-x="328" 
d="M60 0q-19 0 -28 4q-14 6 -23 23.5t-9 34.5q0 11 14.5 27t33.5 29l41 28l29 20q136 103 136 130q-3 2 -12 0q-23 0 -90 -45q-14 -9 -39 -29q-41 -31 -51 -31q-3 0 -18 12q-22 16 -22 32q0 36 118 97q63 33 107 33q25 0 46 -19.5t21 -44.5q0 -4 0.5 -13.5t0 -13t-1.5 -11.5
t-4 -13.5t-8 -13t-13 -16.5q-29 -30 -84 -74q-55 -43 -115 -77q55 12 136 12q39 0 71 -7q39 -7 50 -37q2 -7 2 -10.5t-4 -2.5q-42 5 -59 5q-22 0 -60 -5l-48 -6q-15 -2 -53 -10q-45 -8 -64 -8z" />
    <glyph glyph-name="braceleft" unicode="{" horiz-adv-x="323" 
d="M9 -317q-53 0 -53 63q0 43 26 118q26 74 54 134q28 61 30 68q4 12 4 16q0 8 -29 8q-12 0 -22 14.5t-10 30.5q0 9 3 13q1 1 2 1q7 0 9 1q30 13 56 66q25 54 45 120q47 161 77 214q39 72 88 70q9 0 20 -3q19 -3 32 -18t13 -32q0 -20 -18 -20q-10 0 -23 7q-31 6 -61 -54
q-31 -64 -49 -138q-19 -76 -45 -147q-25 -69 -49 -79q29 -18 29 -59t-28 -103q-34 -75 -56 -118q-28 -55 -28 -76q-3 -18 -3 -28q0 -17 9 -17q4 0 20.5 7t20.5 8q8 1 12.5 -2.5t8.5 -10t9 -9.5q14 -11 -20 -27q-25 -13 -53 -16q-4 0 -9 -0.5t-8 -1t-4 -0.5z" />
    <glyph glyph-name="bar" unicode="|" horiz-adv-x="249" 
d="M61 -130q-10 0 -16 4.5t-5 13.5q20 100 60 201l58 154q39 101 85 227q15 36 36 116q24 88 40.5 129t33.5 41q35 0 35 -38q0 -10 -1 -13q-4 -27 -151 -407q-145 -375 -145 -408q0 -9 -9 -14.5t-21 -5.5z" />
    <glyph glyph-name="braceright" unicode="}" horiz-adv-x="365" 
d="M52 -316q-20 0 -40 11t-29 24t-4 18q17 26 26 23q3 0 20.5 -10.5t23.5 -10.5q41 0 73 230l3 29q4 21 19 58q16 41 43 67q8 8 15 14t10.5 8.5t6.5 4t4 2.5t1 2l-2 3q-12 20 -12 50q0 39 25 92q27 58 55 98t56 91q25 46 25 73q0 21 -16 31q-7 4 -26 -7q-28 -18 -36 -5
q-12 16 -12 30q0 15 13 23t32 8q36 0 69 -24t33 -68q0 -27 -23 -84q-6 -17 -73 -122q-64 -101 -64 -141q0 -21 14 -29q10 -6 24 -6h10q10 0 10 -10q0 -2 2.5 -11.5t2.5 -13.5q1 -4 -7.5 -9t-23 -9.5t-32 -12.5t-32.5 -18t-26.5 -27.5t-13.5 -38.5q-13 -190 -60 -268
q-39 -65 -84 -65z" />
    <glyph glyph-name="exclamdown" unicode="&#xa1;" horiz-adv-x="293" 
d="M238 355q15 0 24 -12.5t9 -31.5q0 -22 -19 -42.5t-44 -20.5q-35 0 -35 38q0 24 22 46q23 23 43 23zM150 160q6 20 24 6q22 -16 21 -45q-5 -46 -80 -245q-68 -180 -77 -207q-3 -9 -14 -9q-15 0 -32 14t-17 35q0 14 31 82q39 86 76 176q47 110 68 193z" />
    <glyph glyph-name="cent" unicode="&#xa2;" horiz-adv-x="600" 
d="M308 -66q-14 0 -35 18q-8 8 -8 22t9 49q10 33 12 43q-35 17 -58.5 58t-23.5 86q0 96 94 142q28 13 53 18q21 73 33 120q4 13 17 13q17 0 34 -20q18 -19 12 -36q-20 -39 -32 -93q31 -10 35 -36q2 -18 2 -20q0 -22 -11 -35t-27 -13q-24 0 -24 22q0 25 -26 25q-25 0 -51 -21
t-38 -55q-8 -18 -8 -39q0 -37 25 -48.5t63 11.5q26 19 40 31q22 19 32 24q10 4 21 -6.5t11 -22.5q0 -5 -3 -10q-17 -26 -50 -54q-29 -25 -49 -34q-7 -58 -17 -100q-14 -39 -32 -39z" />
    <glyph glyph-name="sterling" unicode="&#xa3;" horiz-adv-x="513" 
d="M80 -6q-21 19 7 110q8 27 23.5 70t17.5 51q-4 0 -14.5 -1t-17.5 -1t-18 2.5t-20 8.5q-11 7 -16 16.5t-3.5 16.5t6.5 9q61 18 111 27q9 1 40 80q14 35 40.5 71.5t57.5 56.5q43 26 74.5 23.5t49.5 -16t20 -28.5q3 -16 -12 -28q-7 -7 -13 -7q-1 0 -18 4.5t-25 4.5
q-66 0 -127 -150q37 4 111 6q26 0 36 -25q8 -20 -4 -21q-88 -9 -173 -30q-1 -6 -9.5 -28.5t-22 -62t-25.5 -78.5q24 11 56 17q31 8 82.5 3t93.5 -23q30 -14 32 -44q1 -10 -2 -14.5t-9 -3.5q-3 0 -5 1q-141 29 -206 5l-26 -9q-14 -3 -26.5 -12t-19 -14.5t-18 -3.5t-28.5 17z
" />
    <glyph glyph-name="yen" unicode="&#xa5;" horiz-adv-x="501" 
d="M166 -31q-3 37 24 128q-1 1 -10 -1l-59 -13q-12 -2 -22 16q-11 21 -7 36q5 12 26 17q23 7 52 8q21 1 42 4q4 12 9 32t6 23q-9 2 -14 0q-1 0 -13 -0.5t-28 -0.5h-29q-1 0 -4.5 -1t-6.5 -1t-4 3q-32 50 14 58q21 3 102 2q-41 206 -54 236q-4 10 16 16q30 8 41 -5
q17 -28 55 -220q4 5 31.5 37t39.5 48q35 46 52.5 80t20.5 49l2 14q17 15 37 -5t17 -37q-2 -16 -57 -95q-53 -79 -95 -111q34 -3 110 4q10 1 14 -1.5t3 -8.5q-3 -17 -35 -35l-24 -10q-43 -10 -109 -11q-3 -4 -21 -45l45 3q27 3 31 3q44 3 60 0.5t16 -14.5q0 -19 -12 -30
q-105 -18 -165 -33q-10 -28 -33 -125q-6 -23 -33 -31q-25 -8 -30 12q-1 2 -1 5z" />
    <glyph glyph-name="section" unicode="&#xa7;" horiz-adv-x="415" 
d="M168 -190q-80 -5 -110 53q-15 28 5 69q16 34 36 26q3 -1 8 -6q0 -1 1 -3.5t2 -8.5l2 -12q7 -42 37 -43q24 3 30 30t-11 80q-43 82 -61 142q-15 57 -9 118q3 34 28 53q45 35 96 11q-31 120 -34 129q-23 73 30 126.5t111 38.5q91 -22 89 -125q2 -21 -23 -34q-26 -14 -48 8
q-1 33 -12.5 56t-25 27t-25.5 0q-19 -10 -25.5 -21t-9.5 -29q0 -5 12 -50l26 -67q6 -17 22 -68q9 -28 18 -72q11 -42 9 -74q1 -54 -24 -90.5t-82 -37.5q12 -33 23 -102q8 -52 -14 -86t-71 -38zM227 96q14 2 22.5 22.5t7.5 51.5q-3 48 -19 73t-36 19q-19 -5 -26 -30t2 -64
q9 -37 21 -55t28 -17z" />
    <glyph glyph-name="dieresis" unicode="&#xa8;" horiz-adv-x="293" 
d="M57 401q-8 0 -15 7q-12 18 -12 42q0 16 5 34.5t11.5 29.5t10.5 10q45 -8 45 -52q0 -26 -14.5 -48.5t-30.5 -22.5zM190 395q-14 0 -22 21.5t-8 50.5q0 49 21 57q7 -1 16 -6q12 -4 27.5 -18t15.5 -28q0 -7 -1 -9q-26 -68 -49 -68z" />
    <glyph glyph-name="copyright" unicode="&#xa9;" horiz-adv-x="886" 
d="M352 -80q-7 0 -33 2q-219 34 -219 216q0 109 64 204t168 151t214 56q120 0 196 -72q77 -72 77 -160q0 -107 -51 -191t-117 -136q-23 -18 -52 -18q-23 0 -23 10q0 4 5 9q157 153 157 319q0 66 -48 124q-47 59 -127 59q-63 0 -125.5 -23t-104.5 -56q-40 -31 -72 -70
q-47 -55 -65 -94q-30 -62 -30 -118q0 -51 24.5 -90t65.5 -57q47 -22 106 -22t134 30q8 4 20 4q20 0 22 -8q0 -1 -1 -2q-41 -48 -83 -53q-6 -4 -39 -9q-35 -5 -63 -5zM425 92q-1 0 -31 2q-36 8 -57 33.5t-21 61.5q0 62 68 132q21 21 52 35t58 14q43 0 58 -37q11 -16 11 -29
q0 -12 -10 -19.5t-23 -7.5q-12 0 -21 7t-9 19q0 5 -6 5q-3 0 -13 -2q-29 0 -65 -47t-36 -81q0 -21 17 -27q7 -4 22 -4q23 0 54.5 12.5t46.5 27.5q7 7 17 7q15 0 15 -20q0 -31 -34 -56.5t-93 -25.5z" />
    <glyph glyph-name="guillemotleft" unicode="&#xab;" horiz-adv-x="600" 
d="M214 32q-27 22 -61 45q-82 55 -83 61q0 38 13 45q23 14 73 54.5t89.5 74.5t40.5 35q30 17 49 -11q17 -22 3 -39q-3 -5 -7 -6q-19 -11 -60 -40q-52 -38 -78 -58q-35 -27 -35 -29q0 -7 28.5 -30t55 -48.5t22.5 -41.5q-2 -15 -19 -19.5t-31 7.5zM433 33q-31 16 -77 53
q-46 39 -56 58q-11 17 6 35q12 14 107 98l54 48q1 0 6 4.5t11.5 8t12.5 1.5q18 -4 25.5 -13t4.5 -19q-15 -39 -63 -78q-52 -41 -81 -68q58 -65 68 -75q19 -10 10 -37q-8 -21 -23 -18q-1 0 -2.5 0.5t-2.5 1.5z" />
    <glyph glyph-name="registered" unicode="&#xae;" horiz-adv-x="710" 
d="M205 243q-29 52 -41 82q-15 30 -13 87t26 106q44 74 141 137q112 74 225 33q1 0 12.5 -1.5t29.5 -4.5t33 -7q30 -7 64.5 -33t57.5 -65q16 -30 19 -68q5 -61 -24 -122q-18 -35 -27 -50q-7 -11 -30 -41l-19 -27q-24 -35 -86 -71q-58 -33 -128 -51t-137 4q-68 23 -103 92z
M431 192q71 7 137 61q64 54 99 119q34 65 31 131q-1 65 -51 97q-52 34 -113.5 40.5t-106.5 -13.5q-45 -18 -88 -48q-72 -51 -95 -91q-26 -36 -27.5 -91t19.5 -103q22 -51 75 -81t120 -21zM335 234q-44 0 -36 42q6 26 11 39q4 12 17 42.5t16 38.5q16 31 37 87q21 57 34 78
t28 19q14 0 26 -12q32 11 70 -8q41 -18 48 -55q9 -37 -48 -92q-15 -14 -31 -25t-18 -14q0 -1 -1 -3t-0.5 -4t2.5 -6l32 -41q5 -8 11.5 -14.5t9 -10.5t2.5 -11q-2 -8 -16 -15q-15 -8 -20 -6q-12 0 -34 22q-22 24 -33 40q-4 2 -42 50q-12 -42 -31 -90q-19 -51 -34 -51z
M439 462l-21 -50q14 -10 57 16q33 24 46 52q17 35 -23 41q-30 -5 -48 -40z" />
    <glyph glyph-name="overscore" unicode="&#xaf;" horiz-adv-x="600" 
d="M405 474q-86 -35 -175 -45q-110 -13 -105 42q2 12 7 24q3 14 21 11h82l158 6q25 1 31.5 -13t-19.5 -25z" />
    <glyph glyph-name="degree" unicode="&#xb0;" horiz-adv-x="312" 
d="M152 221q-30 0 -41 30q-13 9 -13 31q0 44 41 108q42 63 75 63q11 0 19 -9q2 -3 8 -8t8.5 -9.5t2.5 -11.5q0 -8 4 -11t10 -3t16 -5.5t19 -17.5q15 -22 15 -43q0 -15 -7 -28t-14 -16l-26 -20q-25 -16 -54 -31q-37 -19 -63 -19zM167 283q25 0 65 25q41 26 41 45q0 21 -57 21
q-27 -2 -40 -26q-11 -20 -21 -47q-6 -18 12 -18z" />
    <glyph glyph-name="acute" unicode="&#xb4;" horiz-adv-x="600" 
d="M236 410q-6 0 -12 7q-7 8 -7 19q0 5 3 11q8 24 49 75q43 54 55 54t26 -14t14 -24q0 -18 -26 -40l-7 -6q-5 -5 -25 -26t-28 -28q-28 -28 -42 -28z" />
    <glyph glyph-name="paragraph" unicode="&#xb6;" horiz-adv-x="478" 
d="M514 524q28 -4 28 -25q0 -15 -18 -53q-15 -30 -45 -95q-25 -55 -43 -119l-46 -106q-24 -64 -35 -116q-4 -18 -6 -26t-5.5 -16.5t-7.5 -11.5t-10 -3t-21 4q-17 5 -17 8q-4 19 27 123q36 91 101 271q41 112 55 139q17 29 43 26zM184 -38q11 0 -7 -15t-36 -17q-20 0 -20 30
q0 44 49 163q-15 -4 -31 -4q-51 0 -49 75q0 50 30 127q32 79 86 141q55 64 113 64q29 0 54 -16q6 -4 6 -14q0 -9 -98 -264q-98 -256 -97 -270z" />
    <glyph glyph-name="middot" unicode="&#xb7;" horiz-adv-x="293" 
d="M139 150q-15 0 -24 12.5t-9 31.5q0 22 19 42.5t44 20.5q35 0 35 -38q0 -23 -23 -46t-42 -23z" />
    <glyph glyph-name="cedilla" unicode="&#xb8;" horiz-adv-x="600" 
d="M255 -189q-13 0 -23 7q-19 19 -19 34q0 9 6.5 15t15.5 6l1 -7q2 -6 5.5 -12.5t10.5 -6.5q16 0 47 31q20 20 20 42q0 12 -7 12q-6 0 -13 -9q-6 -19 -13 -23q-4 -3 -9 -3q-15 0 -19 15q-4 9 7 40q13 32 25 55l14 25q3 4 9 4q12 0 22.5 -10.5t6.5 -22.5q-6 -8 -16 -32
q36 -11 36 -43q0 -36 -37 -76q-36 -41 -70 -41z" />
    <glyph glyph-name="guillemotright" unicode="&#xbb;" horiz-adv-x="600" 
d="M600 225q10 -8 9 -25.5t-12 -25.5q-32 -28 -121 -85q-88 -56 -95 -56q-6 -2 -10.5 -2t-7 0.5t-5.5 4t-4 5t-3.5 7.5t-3.5 8q-7 10 19 32l34 26l53 39l67 53q5 2 1.5 9.5t-14.5 19.5l-49 55q-27 30 -25 44q0 15 10.5 26.5t24.5 5.5q16 -5 30 -21q3 -4 21.5 -28t28.5 -37
q6 -8 27 -29t25 -26zM374 264q17 -14 17 -39q0 -24 -21 -24q-23 -5 -217 -152q-32 -26 -60 17q0 13 30 40q30 26 82 67q53 42 78 67q-105 52 -105 92q1 12 11.5 19.5t20.5 4.5q12 -4 40.5 -25t49.5 -28q55 -26 74 -39z" />
    <glyph glyph-name="questiondown" unicode="&#xbf;" horiz-adv-x="394" 
d="M260 380q15 0 24 -12.5t9 -31.5q0 -22 -19 -42.5t-44 -20.5q-35 0 -35 38q0 24 22 46q23 23 43 23zM221 209q20 -26 20 -49q0 -25 -23 -53q-26 -31 -68 -65q-45 -38 -65 -59q-70 -74 -94 -113q-26 -41 -26 -90q0 -64 40 -64q60 0 101 68q42 68 21 134q-2 6 4.5 12t16 7.5
t19.5 -2.5q31 -20 31 -65q0 -87 -62 -149q-62 -63 -122 -63q-50 0 -78.5 36.5t-28.5 94.5q0 54 36.5 109t112.5 130l90 80q58 51 39 79q-6 8 1.5 16t18 9t16.5 -3z" />
    <glyph glyph-name="Agrave" unicode="&#xc0;" horiz-adv-x="448" 
d="M500 832l27 -21q37 -28 37 -43q0 -9 -11 -17q-6 -3 -14 -3q-44 0 -104 45q-59 47 -46 70q17 27 36 27q16 0 28 -9q9 -7 26 -26t21 -23zM420 230q56 -5 65 -38q2 -16 -5 -17q-26 6 -127 4q-43 -216 -34 -245q4 -11 -16 -16q-31 -8 -48 11q-7 7 -9 19q1 15 -1 22q-1 3 2 27
l5 30l6 34q7 29 8 37l8 38l9 40q-91 -5 -142 -10h-3q-128 -200 -184 -247q-20 -17 -33.5 -23t-35.5 -6q-54 0 -27 31l3 3l2 2q97 106 185 231q-40 -6 -58 -6q-11 -1 -21.5 14.5t-10.5 30t13 20.5q33 7 126 11q100 149 258 424q9 17 33.5 18.5t44 -11.5t13.5 -31l-82 -395
q18 0 56 -2zM314 448l-135 -217q104 2 115 2l5 32q18 112 45 230z" />
    <glyph glyph-name="Aacute" unicode="&#xc1;" horiz-adv-x="448" 
d="M515 930q12 0 26 -14t14 -24q0 -18 -26 -40l-7 -6q-5 -5 -25 -26t-28 -28q-28 -28 -42 -28q-6 0 -12 7q-7 8 -7 19q0 5 3 11q8 24 49 75q44 54 55 54zM420 230q56 -5 65 -38q2 -16 -5 -17q-26 6 -127 4q-43 -216 -34 -245q4 -11 -16 -16q-31 -8 -48 11q-7 7 -9 19
q1 15 -1 22q-1 3 2 27l5 30l6 34q7 29 8 37l8 38l9 40q-91 -5 -142 -10h-3q-128 -200 -184 -247q-20 -17 -33.5 -23t-35.5 -6q-54 0 -27 31l3 3l2 2q97 106 185 231q-40 -6 -58 -6q-11 -1 -21.5 14.5t-10.5 30t13 20.5q33 7 126 11q100 149 258 424q9 17 33.5 18.5t44 -11.5
t13.5 -31l-82 -395q18 0 56 -2zM314 448l-135 -217q104 2 115 2l5 32q18 112 45 230z" />
    <glyph glyph-name="Acircumflex" unicode="&#xc2;" horiz-adv-x="448" 
d="M565 967q21 -13 21 -42q0 -11 -4 -31l-5 -20q-6 -42 -7 -62q-1 -17 -7 -17q-7 0 -10 -1q-35 0 -35 46q0 12 6 51l-76 -50l-15 -11l-39 -26q-39 -24 -60 -24q-26 0 -23 37q1 7 130 88q110 71 124 62zM420 230q56 -5 65 -38q2 -16 -5 -17q-26 6 -127 4q-43 -216 -34 -245
q4 -11 -16 -16q-31 -8 -48 11q-7 7 -9 19q1 15 -1 22q-1 3 2 27l5 30l6 34q7 29 8 37l8 38l9 40q-91 -5 -142 -10h-3q-128 -200 -184 -247q-20 -17 -33.5 -23t-35.5 -6q-54 0 -27 31l3 3l2 2q97 106 185 231q-40 -6 -58 -6q-11 -1 -21.5 14.5t-10.5 30t13 20.5q33 7 126 11
q100 149 258 424q9 17 33.5 18.5t44 -11.5t13.5 -31l-82 -395q18 0 56 -2zM314 448l-135 -217q104 2 115 2l5 32q18 112 45 230z" />
    <glyph glyph-name="Atilde" unicode="&#xc3;" horiz-adv-x="448" 
d="M613 880q8 -11 8 -28q0 -32 -21.5 -56t-57.5 -24q-27 0 -46 11.5t-27.5 26t-18 26t-19.5 11.5q-19 0 -33 -11t-31 -36q-9 -13 -16 -13q-10 0 -17.5 11t-7.5 26q0 20 14 37q52 52 91 52q23 0 41 -14.5t27 -31.5t19 -30.5t20 -12.5q11 0 28.5 18.5t30 32t16.5 5.5zM420 230
q56 -5 65 -38q2 -16 -5 -17q-26 6 -127 4q-43 -216 -34 -245q4 -11 -16 -16q-31 -8 -48 11q-7 7 -9 19q1 15 -1 22q-1 3 2 27l5 30l6 34q7 29 8 37l8 38l9 40q-91 -5 -142 -10h-3q-128 -200 -184 -247q-20 -17 -33.5 -23t-35.5 -6q-54 0 -27 31l3 3l2 2q97 106 185 231
q-40 -6 -58 -6q-11 -1 -21.5 14.5t-10.5 30t13 20.5q33 7 126 11q100 149 258 424q9 17 33.5 18.5t44 -11.5t13.5 -31l-82 -395q18 0 56 -2zM314 448l-135 -217q104 2 115 2l5 32q18 112 45 230z" />
    <glyph glyph-name="Adieresis" unicode="&#xc4;" horiz-adv-x="448" 
d="M398 755q-8 0 -15 7q-12 18 -12 42q0 16 5 34.5t11.5 29.5t10.5 10q45 -8 45 -52q0 -26 -14.5 -48.5t-30.5 -22.5zM522 878q7 -1 16 -6q12 -4 27.5 -18t15.5 -28q0 -7 -1 -9q-26 -68 -49 -68q-14 0 -22 21.5t-8 50.5q0 49 21 57zM420 230q56 -5 65 -38q2 -16 -5 -17
q-26 6 -127 4q-43 -216 -34 -245q4 -11 -16 -16q-31 -8 -48 11q-7 7 -9 19q1 15 -1 22q-1 3 2 27l5 30l6 34q7 29 8 37l8 38l9 40q-91 -5 -142 -10h-3q-128 -200 -184 -247q-20 -17 -33.5 -23t-35.5 -6q-54 0 -27 31l3 3l2 2q97 106 185 231q-40 -6 -58 -6
q-11 -1 -21.5 14.5t-10.5 30t13 20.5q33 7 126 11q100 149 258 424q9 17 33.5 18.5t44 -11.5t13.5 -31l-82 -395q18 0 56 -2zM314 448l-135 -217q104 2 115 2l5 32q18 112 45 230z" />
    <glyph glyph-name="Aring" unicode="&#xc5;" horiz-adv-x="448" 
d="M552 952q22 6 48 -21q26 -26 26 -60q0 -74 -123 -98q-14 -2 -15 -2q-37 0 -67 34q-30 35 -30 75q0 42 34 72q23 23 44 23q20 0 35 -19.5t15 -39.5q0 -11 -6 -14q-2 -2 -4 -2t-5.5 1.5t-4.5 1.5q-6 0 -19 -7q-34 -24 -34 -45q0 -23 30 -23q33 0 64 31q29 26 29 48
q0 15 -21 38q-1 6 4 7zM420 230q56 -5 65 -38q2 -16 -5 -17q-26 6 -127 4q-43 -216 -34 -245q4 -11 -16 -16q-31 -8 -48 11q-7 7 -9 19q1 15 -1 22q-1 3 2 27l5 30l6 34q7 29 8 37l8 38l9 40q-91 -5 -142 -10h-3q-128 -200 -184 -247q-20 -17 -33.5 -23t-35.5 -6
q-54 0 -27 31l3 3l2 2q97 106 185 231q-40 -6 -58 -6q-11 -1 -21.5 14.5t-10.5 30t13 20.5q33 7 126 11q100 149 258 424q9 17 33.5 18.5t44 -11.5t13.5 -31l-82 -395q18 0 56 -2zM314 448l-135 -217q104 2 115 2l5 32q18 112 45 230z" />
    <glyph glyph-name="AE" unicode="&#xc6;" horiz-adv-x="658" 
d="M767 605q16 -16 19 -32q2 -11 -9 -11l-12 5q-12 4 -29 6q-104 5 -201 -15q-10 -34 -51 -136q-39 -98 -42 -113q88 5 193 5q25 0 12 -16q-25 -30 -111 -52l-43 -9q-62 -12 -82 -17q-53 -180 -48 -203q4 -14 14 -24q3 -3 11.5 -9.5t9.5 -7.5q17 -11 34 -11q36 0 102 26
l28 14q31 16 31 10q-5 -41 -48 -69q-41 -28 -78 -37q-73 -19 -135 26q-62 46 -46 122q10 39 20 66q-55 -9 -97 -13l-101 -11q-148 -180 -187 -180q-7 0 -14 -1q-48 -3 -49 9q0 7 11 18q65 65 137 145q-13 0 -21 -2q-16 -1 -26 15.5t-8 34.5t15 21q40 7 110 10
q187 215 393 502q15 19 52 4q37 -13 37 -32l18 2q44 7 107 -5q61 -10 84 -35zM412 449q15 56 44 116q-17 -27 -113 -160q-72 -100 -175 -232q136 2 154 2q34 102 39 124q21 52 25 73q23 65 26 77z" />
    <glyph glyph-name="Ccedilla" unicode="&#xc7;" horiz-adv-x="334" 
d="M320 88l45 39q4 3 7 4t4.5 -0.5t0.5 -5.5q-2 -26 -45 -74q-83 -95 -184 -95h-5q10 -10 10 -28q0 -36 -37 -76q-36 -41 -70 -41q-13 0 -23 7q-19 19 -19 34q0 9 6.5 15t15.5 6l2 -7q1 -6 4.5 -12.5t10.5 -6.5q16 0 47 31q20 20 20 42q0 12 -7 12q-5 0 -13 -9
q-6 -19 -13 -23q-5 -3 -9 -3q-14 0 -19 15t22 73q-60 50 -52 169q6 95 54 217q48 121 117 210q69 88 127 88q53 0 81.5 -32t28.5 -87q0 -46 -19 -91t-36 -56q-20 -12 -47 -6q-19 4 -12 20q11 21 31 76q19 53 19 70q0 30 -29 30q-48 0 -107 -87q-56 -82 -98 -194
q-39 -106 -45 -179q-6 -67 20 -97q22 0 29 -20q12 -5 29 -5q55 0 112 43z" />
    <glyph glyph-name="Egrave" unicode="&#xc8;" horiz-adv-x="376" 
d="M463 696q-44 0 -104 45q-59 47 -46 70q17 27 36 27q16 0 28 -9q9 -7 26 -26t21 -23l27 -21q37 -28 37 -43q0 -9 -11 -17q-6 -3 -14 -3zM197 -51q-73 -19 -135 26q-62 46 -46 122q3 15 17 59q13 37 18 56q-30 18 -44 31q-7 7 -9 24q-1 16 7 18q5 0 18 2.5t31 6t27 5.5
q-1 1 41 125q0 2 2 6.5t5 13.5t6 17q30 74 28 83q-1 5 -9.5 12.5t-9.5 10.5q-1 8 -0.5 11.5t5 12t5.5 11.5q20 45 49 45q15 0 37 -15q18 10 53 13q44 7 107 -5q61 -10 84 -35q16 -16 19 -32q2 -11 -9 -11l-12 5q-12 4 -29 6q-103 5 -201 -15l-32 -86q-56 -154 -58 -163
q88 5 193 5q25 0 12 -16q-28 -31 -117 -53l-37 -8q-62 -12 -82 -17q-5 -15 -8 -27q-35 -116 -30 -136q4 -22 22 -37t47 -15q36 0 102 26l28 14q31 16 31 10q-1 -28 -29 -54q-43 -38 -97 -52z" />
    <glyph glyph-name="Eacute" unicode="&#xc9;" horiz-adv-x="376" 
d="M351 712q-6 0 -12 7q-7 8 -7 19q0 5 3 11q8 24 49 75q44 54 55 54q12 0 26 -14t14 -24q0 -18 -26 -40l-7 -6q-5 -5 -25 -26t-28 -28q-28 -28 -42 -28zM197 -51q-73 -19 -135 26q-62 46 -46 122q3 15 17 59q13 37 18 56q-30 18 -44 31q-7 7 -9 24q-1 16 7 18q5 0 18 2.5
t31 6t27 5.5q-1 1 41 125q0 2 2 6.5t5 13.5t6 17q30 74 28 83q-1 5 -9.5 12.5t-9.5 10.5q-1 8 -0.5 11.5t5 12t5.5 11.5q20 45 49 45q15 0 37 -15q18 10 53 13q44 7 107 -5q61 -10 84 -35q16 -16 19 -32q2 -11 -9 -11l-12 5q-12 4 -29 6q-103 5 -201 -15l-32 -86
q-56 -154 -58 -163q88 5 193 5q25 0 12 -16q-28 -31 -117 -53l-37 -8q-62 -12 -82 -17q-5 -15 -8 -27q-35 -116 -30 -136q4 -22 22 -37t47 -15q36 0 102 26l28 14q31 16 31 10q-1 -28 -29 -54q-43 -38 -97 -52z" />
    <glyph glyph-name="Ecircumflex" unicode="&#xca;" horiz-adv-x="376" 
d="M258 728q-26 0 -23 37q1 7 130 88q110 71 124 62q21 -13 21 -42q0 -11 -4 -31l-5 -20q-6 -42 -7 -62q-1 -17 -7 -17q-7 0 -10 -1q-35 0 -35 46q0 12 6 51l-76 -50l-15 -11l-39 -26q-39 -24 -60 -24zM197 -51q-73 -19 -135 26q-62 46 -46 122q3 15 17 59q13 37 18 56
q-30 18 -44 31q-7 7 -9 24q-1 16 7 18q5 0 18 2.5t31 6t27 5.5q-1 1 41 125q0 2 2 6.5t5 13.5t6 17q30 74 28 83q-1 5 -9.5 12.5t-9.5 10.5q-1 8 -0.5 11.5t5 12t5.5 11.5q20 45 49 45q15 0 37 -15q18 10 53 13q44 7 107 -5q61 -10 84 -35q16 -16 19 -32q2 -11 -9 -11l-12 5
q-12 4 -29 6q-103 5 -201 -15l-32 -86q-56 -154 -58 -163q88 5 193 5q25 0 12 -16q-28 -31 -117 -53l-37 -8q-62 -12 -82 -17q-5 -15 -8 -27q-35 -116 -30 -136q4 -22 22 -37t47 -15q36 0 102 26l28 14q31 16 31 10q-1 -28 -29 -54q-43 -38 -97 -52z" />
    <glyph glyph-name="Edieresis" unicode="&#xcb;" horiz-adv-x="376" 
d="M322 703q-8 0 -15 7q-12 18 -12 42q0 16 5 34.5t11.5 29.5t10.5 10q45 -8 45 -52q0 -26 -14.5 -48.5t-30.5 -22.5zM455 697q-14 0 -22 21.5t-8 50.5q0 49 21 57q7 -1 16 -6q12 -4 27.5 -18t15.5 -28q0 -7 -1 -9q-26 -68 -49 -68zM197 -51q-73 -19 -135 26q-62 46 -46 122
q3 15 17 59q13 37 18 56q-30 18 -44 31q-7 7 -9 24q-1 16 7 18q5 0 18 2.5t31 6t27 5.5q-1 1 41 125q0 2 2 6.5t5 13.5t6 17q30 74 28 83q-1 5 -9.5 12.5t-9.5 10.5q-1 8 -0.5 11.5t5 12t5.5 11.5q20 45 49 45q15 0 37 -15q18 10 53 13q44 7 107 -5q61 -10 84 -35
q16 -16 19 -32q2 -11 -9 -11l-12 5q-12 4 -29 6q-103 5 -201 -15l-32 -86q-56 -154 -58 -163q88 5 193 5q25 0 12 -16q-28 -31 -117 -53l-37 -8q-62 -12 -82 -17q-5 -15 -8 -27q-35 -116 -30 -136q4 -22 22 -37t47 -15q36 0 102 26l28 14q31 16 31 10q-1 -28 -29 -54
q-43 -38 -97 -52z" />
    <glyph glyph-name="Igrave" unicode="&#xcc;" horiz-adv-x="351" 
d="M444 688q-44 0 -104 45q-59 47 -46 70q16 27 36 27q16 0 28 -9q9 -7 26 -26t21 -23l27 -21q37 -28 37 -43q0 -9 -11 -17q-6 -3 -14 -3zM75 -40q-36 46 23 77q18 10 57 19q56 204 156 506q-88 -19 -94 -15q-12 6 -7 24q12 37 27 52q15 18 95 26q84 8 142 5q42 -2 60 -24
q9 -10 -2 -12q-75 -14 -144 -36q-16 -56 -79 -239q-65 -195 -82 -277q75 8 141 -10q24 -7 10 -21q-10 -9 -39 -17q-19 -4 -44 -8q-63 -11 -78 -18q0 -1 -2 -5.5t-2.5 -5.5t-3 -4t-5 -4t-7.5 -1.5t-11 -0.5q-14 2 -31 10q-10 -4 -23 -9t-20.5 -8.5t-15 -5.5t-13 -1.5
t-8.5 3.5z" />
    <glyph glyph-name="Iacute" unicode="&#xcd;" horiz-adv-x="351" 
d="M332 704q-6 0 -12 7q-7 8 -7 19q0 5 3 11q8 24 49 75q43 54 55 54t26 -14t14 -24q0 -18 -26 -40l-7 -6q-5 -5 -25 -26t-28 -28q-28 -28 -42 -28zM75 -40q-36 46 23 77q18 10 57 19q56 204 156 506q-88 -19 -94 -15q-12 6 -7 24q12 37 27 52q15 18 95 26q84 8 142 5
q42 -2 60 -24q9 -10 -2 -12q-75 -14 -144 -36q-16 -56 -79 -239q-65 -195 -82 -277q75 8 141 -10q24 -7 10 -21q-10 -9 -39 -17q-19 -4 -44 -8q-63 -11 -78 -18q0 -1 -2 -5.5t-2.5 -5.5t-3 -4t-5 -4t-7.5 -1.5t-11 -0.5q-14 2 -31 10q-10 -4 -23 -9t-20.5 -8.5t-15 -5.5
t-13 -1.5t-8.5 3.5z" />
    <glyph glyph-name="Icircumflex" unicode="&#xce;" horiz-adv-x="351" 
d="M239 720q-26 0 -23 37q1 7 130 88q110 71 124 62q21 -13 21 -42q0 -11 -5 -31l-4 -20q-6 -42 -7 -62q-1 -17 -7 -17q-7 0 -10 -1q-35 0 -35 46q0 12 6 51l-76 -50l-15 -11l-39 -26q-39 -24 -60 -24zM75 -40q-36 46 23 77q18 10 57 19q56 204 156 506q-88 -19 -94 -15
q-12 6 -7 24q12 37 27 52q15 18 95 26q84 8 142 5q42 -2 60 -24q9 -10 -2 -12q-75 -14 -144 -36q-16 -56 -79 -239q-65 -195 -82 -277q75 8 141 -10q24 -7 10 -21q-10 -9 -39 -17q-19 -4 -44 -8q-63 -11 -78 -18q0 -1 -2 -5.5t-2.5 -5.5t-3 -4t-5 -4t-7.5 -1.5t-11 -0.5
q-14 2 -31 10q-10 -4 -23 -9t-20.5 -8.5t-15 -5.5t-13 -1.5t-8.5 3.5z" />
    <glyph glyph-name="Idieresis" unicode="&#xcf;" horiz-adv-x="351" 
d="M303 695q-8 0 -15 7q-12 18 -12 42q0 16 5 34.5t11.5 29.5t10.5 10q45 -8 45 -52q0 -26 -14.5 -48.5t-30.5 -22.5zM436 689q-14 0 -22 21.5t-8 50.5q0 49 21 57q7 -1 16 -6q12 -4 27.5 -18t15.5 -28q0 -7 -1 -9q-26 -68 -49 -68zM75 -40q-36 46 23 77q18 10 57 19
q56 204 156 506q-88 -19 -94 -15q-12 6 -7 24q12 37 27 52q15 18 95 26q84 8 142 5q42 -2 60 -24q9 -10 -2 -12q-75 -14 -144 -36q-16 -56 -79 -239q-65 -195 -82 -277q75 8 141 -10q24 -7 10 -21q-10 -9 -39 -17q-19 -4 -44 -8q-63 -11 -78 -18q0 -1 -2 -5.5t-2.5 -5.5
t-3 -4t-5 -4t-7.5 -1.5t-11 -0.5q-14 2 -31 10q-10 -4 -23 -9t-20.5 -8.5t-15 -5.5t-13 -1.5t-8.5 3.5z" />
    <glyph glyph-name="Eth" unicode="&#xd0;" horiz-adv-x="423" 
d="M227 627q65 0 112 -30t66 -76q18 -42 24 -92q10 -77 0 -121q-43 -189 -154 -269q-96 -69 -204 -69q-39 0 -65.5 13.5t-26.5 31.5q0 14 11.5 31t25.5 18q19 44 75 245l-53 1q-9 4 -9 25q-5 35 28 35q17 0 51 -2q23 83 28 105q11 43 27 89q-37 4 -37 12q0 15 6.5 27.5
t15.5 16.5q21 9 79 9zM348 259q26 67 26 149q0 31 -5.5 55t-19.5 46.5t-41.5 36t-68.5 16.5q-47 -155 -58 -186l-4 -15q63 -8 57 -26q-4 -15 -71 -23l-76 -274q71 -8 148 61q78 68 113 160z" />
    <glyph glyph-name="Ntilde" unicode="&#xd1;" horiz-adv-x="543" 
d="M533 677q-27 0 -46 11.5t-27.5 26t-18 26t-19.5 11.5q-19 0 -33 -11t-31 -36q-9 -13 -16 -13q-10 0 -17.5 11t-7.5 26q0 20 14 37q52 52 91 52q23 0 41 -14.5t27 -31.5t19 -30.5t20 -12.5q11 0 28.5 18.5t30 32t16.5 5.5q8 -11 8 -28q0 -32 -21.5 -56t-57.5 -24zM364 -47
q-10 13 -49 243q-38 233 -38 256q0 9 -16 -35q-1 -3 -2 -5q-66 -175 -129 -388q-13 -46 -15 -59q-4 -30 -35 -14q-28 15 -35 39q-2 6 -2 7q0 28 104 340q105 311 117 311q15 0 38 -17q24 -16 24 -34q0 -9 17 -119q17 -111 36 -218q4 -21 7 -40t5.5 -32.5t4 -23.5t2.5 -16.5
t1 -7.5q16 37 103 284q86 242 87 256q1 13 19 4q27 -12 29 -47q1 -9 -2 -21q-2 -8 -106 -325q-100 -304 -102 -329q-1 -19 -13.5 -25t-27 -0.5t-22.5 16.5z" />
    <glyph glyph-name="Ograve" unicode="&#xd2;" horiz-adv-x="448" 
d="M470 645q-44 0 -104 45q-59 47 -46 70q16 27 36 27q16 0 28 -9q9 -7 26 -26t21 -23l27 -21q37 -28 37 -43q0 -9 -11 -17q-6 -3 -14 -3zM209 -49q-74 0 -111.5 49.5t-37.5 136.5q0 102 43 218q43 117 114 200t139 83q62 0 108 -70q27 -37 27 -100q0 -62 -25 -143
q-25 -84 -46 -136q-21 -55 -18 -60q7 -7 7 -18q0 -31 -81 -96q-79 -64 -119 -64zM196 4q50 0 106 87q57 90 91 204q35 119 35 207q0 73 -49 73q-44 0 -121 -77q-133 -199 -133 -362q0 -56 17.5 -92.5t43.5 -38.5q2 -1 10 -1z" />
    <glyph glyph-name="Oacute" unicode="&#xd3;" horiz-adv-x="448" 
d="M358 661q-6 0 -12 7q-7 8 -7 19q0 5 3 11q8 24 49 75q44 54 55 54q12 0 26 -14t14 -24q0 -18 -26 -40l-7 -6q-5 -5 -25 -26t-28 -28q-28 -28 -42 -28zM209 -49q-74 0 -111.5 49.5t-37.5 136.5q0 102 43 218q43 117 114 200t139 83q62 0 108 -70q27 -37 27 -100
q0 -62 -25 -143q-25 -84 -46 -136q-21 -55 -18 -60q7 -7 7 -18q0 -31 -81 -96q-79 -64 -119 -64zM196 4q50 0 106 87q57 90 91 204q35 119 35 207q0 73 -49 73q-44 0 -121 -77q-133 -199 -133 -362q0 -56 17.5 -92.5t43.5 -38.5q2 -1 10 -1z" />
    <glyph glyph-name="Ocircumflex" unicode="&#xd4;" horiz-adv-x="448" 
d="M265 677q-26 0 -23 37q1 7 130 88q110 71 124 62q21 -14 21 -42q0 -11 -5 -31l-4 -20q-6 -42 -7 -62q-1 -17 -7 -17q-7 0 -10 -1q-35 0 -35 46q0 12 6 51l-76 -50l-15 -11l-39 -26q-39 -24 -60 -24zM209 -49q-74 0 -111.5 49.5t-37.5 136.5q0 102 43 218q43 117 114 200
t139 83q62 0 108 -70q27 -37 27 -100q0 -62 -25 -143q-25 -84 -46 -136q-21 -55 -18 -60q7 -7 7 -18q0 -31 -81 -96q-79 -64 -119 -64zM196 4q50 0 106 87q57 90 91 204q35 119 35 207q0 73 -49 73q-44 0 -121 -77q-133 -199 -133 -362q0 -56 17.5 -92.5t43.5 -38.5
q2 -1 10 -1z" />
    <glyph glyph-name="Otilde" unicode="&#xd5;" horiz-adv-x="448" 
d="M473 669q-27 0 -46 11.5t-27.5 26t-18 26t-19.5 11.5q-19 0 -33 -11t-31 -36q-9 -13 -16 -13q-10 0 -17.5 11t-7.5 26q0 20 14 37q52 52 91 52q23 0 41 -14.5t27 -31.5t19 -30.5t20 -12.5q11 0 28.5 18.5t30 32t16.5 5.5q8 -11 8 -28q0 -32 -21.5 -56t-57.5 -24zM209 -49
q-74 0 -111.5 49.5t-37.5 136.5q0 102 43 218q43 117 114 200t139 83q62 0 108 -70q27 -37 27 -100q0 -62 -25 -143q-25 -84 -46 -136q-21 -55 -18 -60q7 -7 7 -18q0 -31 -81 -96q-79 -64 -119 -64zM196 4q50 0 106 87q57 90 91 204q35 119 35 207q0 73 -49 73
q-44 0 -121 -77q-133 -199 -133 -362q0 -56 17.5 -92.5t43.5 -38.5q2 -1 10 -1z" />
    <glyph glyph-name="Odieresis" unicode="&#xd6;" horiz-adv-x="448" 
d="M329 652q-8 0 -15 7q-12 18 -12 42q0 16 5 34.5t11.5 29.5t10.5 10q45 -7 45 -52q0 -26 -14.5 -48.5t-30.5 -22.5zM462 646q-14 0 -22 21.5t-8 50.5q0 50 21 57q7 -1 16 -6q12 -4 27.5 -18t15.5 -28q0 -7 -1 -9q-26 -68 -49 -68zM209 -49q-74 0 -111.5 49.5t-37.5 136.5
q0 102 43 218q43 117 114 200t139 83q62 0 108 -70q27 -37 27 -100q0 -62 -25 -143q-25 -84 -46 -136q-21 -55 -18 -60q7 -7 7 -18q0 -31 -81 -96q-79 -64 -119 -64zM196 4q50 0 106 87q57 90 91 204q35 119 35 207q0 73 -49 73q-44 0 -121 -77q-133 -199 -133 -362
q0 -56 17.5 -92.5t43.5 -38.5q2 -1 10 -1z" />
    <glyph glyph-name="multiply" unicode="&#xd7;" horiz-adv-x="313" 
d="M39 86q-29 29 63 108q6 5 9 8l18 15q-25 53 -36 66q-21 27 -2 52q15 19 30 6q3 -3 9 -13q0 -6 18 -34q17 -27 27 -37q22 12 67 47q42 33 56 41q6 3 15.5 -3.5t14.5 -16t1 -12.5q-14 -30 -123 -107q58 -76 52 -102q-1 -7 -8 -9.5t-20 1.5q-58 70 -67 79q-15 -13 -30 -27
t-24.5 -23.5t-19 -18.5t-16 -14t-13 -8t-11.5 -2.5t-10 4.5z" />
    <glyph glyph-name="Oslash" unicode="&#xd8;" horiz-adv-x="448" 
d="M530 743q11 17 24 -2q19 -25 7 -58l-6 -11l-82 -120q18 -33 18 -84q0 -62 -25 -143q-25 -84 -46 -136q-21 -55 -18 -60q7 -7 7 -18q0 -31 -81 -96q-79 -64 -119 -64q-78 0 -116 56q-43 -58 -55 -72t-25 2q-13 17 0 36l57 84q-10 33 -10 80q0 102 43 218q43 117 114 200
t139 83q44 0 81 -37q83 124 93 142zM258 498q-133 -200 -133 -360l287 425q-12 12 -33 12q-44 0 -121 -77zM196 4q50 0 104 82q55 84 89 195q34 112 39 205l-294 -421q18 -57 52 -60q2 -1 10 -1z" />
    <glyph glyph-name="Ugrave" unicode="&#xd9;" horiz-adv-x="529" 
d="M476 653q-44 0 -104 45q-59 47 -46 70q16 27 36 27q16 0 28 -9q9 -7 26 -26t21 -23l27 -21q37 -28 37 -43q0 -9 -11 -17q-6 -3 -14 -3zM468 -40q-33 4 -45 15q-18 13 -33 39q-26 54 -26 183l-26 -36l-26 -36q-41 -54 -50 -65q-28 -35 -48 -51q-42 -34 -74 -39
q-9 -3 -19 -3q-29 0 -56 19t-34 45q-7 20 -7 47q0 51 42 183t96 247t82 115q15 0 30.5 -12.5t15.5 -26.5q0 -12 -19 -38q-70 -99 -122 -252q-53 -156 -53 -233q0 -43 24 -43q28 0 104 99q72 94 134 198q10 13 24 42l30 62q5 9 9.5 19.5t7 16t3.5 7.5q13 32 25.5 46.5
t29.5 14.5q14 0 33 -11q15 -10 15 -19q0 -8 -15 -23q-12 -14 -20 -31q-68 -168 -68 -307q0 -21 3 -45t8 -45.5t13.5 -34t19.5 -8.5h5q13 0 22 -15l2 -6q0 -6 -5 -11q-7 -7 -32 -7z" />
    <glyph glyph-name="Uacute" unicode="&#xda;" horiz-adv-x="529" 
d="M364 669q-6 0 -12 7q-7 8 -7 19q0 5 3 11q8 24 49 75q43 54 55 54t26 -14t14 -24q0 -18 -26 -40l-7 -6q-5 -5 -25 -26t-28 -28q-28 -28 -42 -28zM468 -40q-33 4 -45 15q-18 13 -33 39q-26 54 -26 183l-26 -36l-26 -36q-41 -54 -50 -65q-28 -35 -48 -51q-42 -34 -74 -39
q-9 -3 -19 -3q-29 0 -56 19t-34 45q-7 20 -7 47q0 51 42 183t96 247t82 115q15 0 30.5 -12.5t15.5 -26.5q0 -12 -19 -38q-70 -99 -122 -252q-53 -156 -53 -233q0 -43 24 -43q28 0 104 99q72 94 134 198q10 13 24 42l30 62q5 9 9.5 19.5t7 16t3.5 7.5q13 32 25.5 46.5
t29.5 14.5q14 0 33 -11q15 -10 15 -19q0 -8 -15 -23q-12 -14 -20 -31q-68 -168 -68 -307q0 -21 3 -45t8 -45.5t13.5 -34t19.5 -8.5h5q13 0 22 -15l2 -6q0 -6 -5 -11q-7 -7 -32 -7z" />
    <glyph glyph-name="Ucircumflex" unicode="&#xdb;" horiz-adv-x="529" 
d="M271 685q-26 0 -23 37q1 7 130 88q110 71 124 62q21 -14 21 -42q0 -11 -5 -31l-4 -20q-6 -42 -7 -62q-1 -17 -7 -17q-7 0 -10 -1q-35 0 -35 46q0 12 6 51l-76 -50l-15 -11l-39 -26q-39 -24 -60 -24zM468 -40q-33 4 -45 15q-18 13 -33 39q-26 54 -26 183l-26 -36l-26 -36
q-41 -54 -50 -65q-28 -35 -48 -51q-42 -34 -74 -39q-9 -3 -19 -3q-29 0 -56 19t-34 45q-7 20 -7 47q0 51 42 183t96 247t82 115q15 0 30.5 -12.5t15.5 -26.5q0 -12 -19 -38q-70 -99 -122 -252q-53 -156 -53 -233q0 -43 24 -43q28 0 104 99q72 94 134 198q10 13 24 42l30 62
q5 9 9.5 19.5t7 16t3.5 7.5q13 32 25.5 46.5t29.5 14.5q14 0 33 -11q15 -10 15 -19q0 -8 -15 -23q-12 -14 -20 -31q-68 -168 -68 -307q0 -21 3 -45t8 -45.5t13.5 -34t19.5 -8.5h5q13 0 22 -15l2 -6q0 -6 -5 -11q-7 -7 -32 -7z" />
    <glyph glyph-name="Udieresis" unicode="&#xdc;" horiz-adv-x="529" 
d="M335 660q-8 0 -15 7q-12 18 -12 42q0 16 5 34.5t11.5 29.5t10.5 10q45 -7 45 -52q0 -26 -14.5 -48.5t-30.5 -22.5zM468 654q-14 0 -22 21.5t-8 50.5q0 50 21 57q7 -1 16 -6q12 -4 27.5 -18t15.5 -28q0 -7 -1 -9q-26 -68 -49 -68zM468 -40q-33 4 -45 15q-18 13 -33 39
q-26 54 -26 183l-26 -36l-26 -36q-41 -54 -50 -65q-28 -35 -48 -51q-42 -34 -74 -39q-9 -3 -19 -3q-29 0 -56 19t-34 45q-7 20 -7 47q0 51 42 183t96 247t82 115q15 0 30.5 -12.5t15.5 -26.5q0 -12 -19 -38q-70 -99 -122 -252q-53 -156 -53 -233q0 -43 24 -43q28 0 104 99
q72 94 134 198q10 13 24 42l30 62q5 9 9.5 19.5t7 16t3.5 7.5q13 32 25.5 46.5t29.5 14.5q14 0 33 -11q15 -10 15 -19q0 -8 -15 -23q-12 -14 -20 -31q-68 -168 -68 -307q0 -21 3 -45t8 -45.5t13.5 -34t19.5 -8.5h5q13 0 22 -15l2 -6q0 -6 -5 -11q-7 -7 -32 -7z" />
    <glyph glyph-name="Yacute" unicode="&#xdd;" horiz-adv-x="468" 
d="M353 669q-6 0 -12 7q-7 8 -7 19q0 5 3 11q8 24 49 75q44 54 55 54q12 0 26 -14t14 -24q0 -18 -26 -40l-7 -6q-5 -5 -25 -26t-28 -28q-28 -28 -42 -28zM344 -212q-46 5 -63 35q-20 38 -20 73q2 61 7 88l9 41l9 38l7 29q12 45 25 90q17 55 31 111q-41 -53 -110 -112
q-67 -56 -96 -56q-34 -1 -54 32q-19 32 -19 70q0 52 21 118l25 65l22 55q12 30 17 39q11 22 27 51l22 42q12 25 38 -4q25 -27 22 -51l-3 -9q-31 -45 -74 -155q-26 -64 -42 -124q-1 -4 -4 -14.5t-4 -17t-2 -14.5t1 -12t7 -4q29 0 155 158q128 159 156 222q10 22 18 32t21.5 9
t30.5 -20q19 -24 5 -55q-3 -9 -15 -32l-11 -23q-22 -50 -46 -126q-71 -219 -97 -321q-24 -94 -24 -177q0 -31 21 -51q12 -11 9 -16t-22 -4z" />
    <glyph glyph-name="Thorn" unicode="&#xde;" horiz-adv-x="600" 
d="M138 -98q-37 0 -37 65q0 53 24 147t51 186q26 85 32 120q-46 -36 -52 -33q-12 3 -27 17t-15 31q0 18 16 31q19 16 53 32q44 23 49 26q11 51 18 100q16 92 23 103q5 8 19 8q19 0 31 -11.5t9 -31.5q-12 -88 -23 -141q74 23 112 27q6 0 13 0.5t11 1t6 0.5q71 0 110.5 -40.5
t39.5 -105.5q0 -69 -43 -136q-44 -68 -120 -111q-83 -49 -136 -49q-19 0 -29 7q-31 19 -16 27q1 1 28 12l41 19q6 3 22.5 12t24.5 13q20 11 52 31q60 43 89 83q38 56 38 110q1 30 -19 45t-58 15q-79 0 -188 -53l-56 -205q-71 -263 -68 -305q1 -7 2 -15t2 -13t1 -6
q0 -6 -20 -12q-3 -1 -10 -1z" />
    <glyph glyph-name="germandbls" unicode="&#xdf;" horiz-adv-x="380" 
d="M32 -233q4 -6 -8 -9q-28 -8 -51 15q-27 26 -15 83q25 119 108 322q132 333 251 407q15 9 28 9q29 0 52 -30q23 -29 23 -47q0 -73 -46 -136q-30 -42 -48 -61l-71 -78q68 -24 84 -58q7 -13 7 -30q0 -53 -47 -98t-97 -45q-20 0 -40 11q-9 9 -9 13q0 10 27 10q26 0 58 30
q32 31 36 84q1 14 -8.5 20t-28.5 6q-5 0 -21 -1t-19 -1q-9 -2 -13 2.5t-6 16.5l-2 11q-5 11 21 49q23 33 61 80q39 47 64 91q29 51 28 78q0 9 -6 9q-8 0 -24 -16q-111 -111 -201 -356q-75 -206 -93 -308q-9 -48 6 -73z" />
    <glyph glyph-name="agrave" unicode="&#xe0;" horiz-adv-x="377" 
d="M335 394q-44 0 -104 45q-59 47 -46 70q17 27 36 27q16 0 28 -9q9 -7 26 -26t21 -23l27 -21q37 -28 37 -43q0 -9 -11 -17q-6 -3 -14 -3zM308 -21q-44 -5 -74.5 26.5t-34.5 87.5q-86 -94 -148 -89q-39 4 -52.5 30.5t-3.5 63t32.5 76.5t53.5 74q24 27 53 45t61 22.5
t59 -14.5q13 19 47 0q32 -16 22 -37q-26 -47 -44 -101q-20 -58 -20 -96q0 -19 8 -28.5t25 -8.5q7 0 17 2.5t20 7.5t21 11t20.5 12.5t19 12.5t16 11t10.5 9l5 3q7 6 7 0q-1 -17 -37 -62q-44 -54 -83 -58zM55 71q-2 -8 -0.5 -11.5t7.5 -1.5q29 9 92 78q69 77 69 110
q-12 15 -45 -8.5t-69 -71t-54 -95.5z" />
    <glyph glyph-name="aacute" unicode="&#xe1;" horiz-adv-x="377" 
d="M223 410q-6 0 -12 7q-7 8 -7 19q0 5 3 11q8 24 49 75q44 54 55 54q12 0 26 -14t14 -24q0 -18 -26 -40l-7 -6q-5 -5 -25 -26t-28 -28q-28 -28 -42 -28zM308 -21q-44 -5 -74.5 26.5t-34.5 87.5q-86 -94 -148 -89q-39 4 -52.5 30.5t-3.5 63t32.5 76.5t53.5 74q24 27 53 45
t61 22.5t59 -14.5q13 19 47 0q32 -16 22 -37q-26 -47 -44 -101q-20 -58 -20 -96q0 -19 8 -28.5t25 -8.5q7 0 17 2.5t20 7.5t21 11t20.5 12.5t19 12.5t16 11t10.5 9l5 3q7 6 7 0q-1 -17 -37 -62q-44 -54 -83 -58zM55 71q-2 -8 -0.5 -11.5t7.5 -1.5q29 9 92 78q69 77 69 110
q-12 15 -45 -8.5t-69 -71t-54 -95.5z" />
    <glyph glyph-name="acircumflex" unicode="&#xe2;" horiz-adv-x="377" 
d="M130 426q-26 0 -23 37q1 7 130 88q110 71 124 62q21 -13 21 -42q0 -11 -4 -31l-5 -20q-6 -42 -7 -62q-1 -17 -7 -17q-7 0 -10 -1q-35 0 -35 46q0 12 6 51l-76 -50l-15 -11l-39 -26q-39 -24 -60 -24zM308 -21q-44 -5 -74.5 26.5t-34.5 87.5q-86 -94 -148 -89
q-39 4 -52.5 30.5t-3.5 63t32.5 76.5t53.5 74q24 27 53 45t61 22.5t59 -14.5q13 19 47 0q32 -16 22 -37q-26 -47 -44 -101q-20 -58 -20 -96q0 -19 8 -28.5t25 -8.5q7 0 17 2.5t20 7.5t21 11t20.5 12.5t19 12.5t16 11t10.5 9l5 3q7 6 7 0q-1 -17 -37 -62q-44 -54 -83 -58z
M55 71q-2 -8 -0.5 -11.5t7.5 -1.5q29 9 92 78q69 77 69 110q-12 15 -45 -8.5t-69 -71t-54 -95.5z" />
    <glyph glyph-name="atilde" unicode="&#xe3;" horiz-adv-x="377" 
d="M338 418q-27 0 -46 11.5t-27.5 26t-18 26t-19.5 11.5q-19 0 -33 -11t-31 -36q-9 -13 -16 -13q-10 0 -17.5 11t-7.5 26q0 20 14 37q52 52 91 52q23 0 41 -14.5t27 -31.5t19 -30.5t20 -12.5q11 0 28.5 18.5t30 32t16.5 5.5q8 -11 8 -28q0 -32 -21.5 -56t-57.5 -24zM308 -21
q-44 -5 -74.5 26.5t-34.5 87.5q-86 -94 -148 -89q-39 4 -52.5 30.5t-3.5 63t32.5 76.5t53.5 74q24 27 53 45t61 22.5t59 -14.5q13 19 47 0q32 -16 22 -37q-26 -47 -44 -101q-20 -58 -20 -96q0 -19 8 -28.5t25 -8.5q7 0 17 2.5t20 7.5t21 11t20.5 12.5t19 12.5t16 11t10.5 9
l5 3q7 6 7 0q-1 -17 -37 -62q-44 -54 -83 -58zM55 71q-2 -8 -0.5 -11.5t7.5 -1.5q29 9 92 78q69 77 69 110q-12 15 -45 -8.5t-69 -71t-54 -95.5z" />
    <glyph glyph-name="adieresis" unicode="&#xe4;" horiz-adv-x="377" 
d="M194 401q-8 0 -15 7q-12 18 -12 42q0 16 5 34.5t11.5 29.5t10.5 10q45 -8 45 -52q0 -26 -14.5 -48.5t-30.5 -22.5zM327 395q-14 0 -22 21.5t-8 50.5q0 49 21 57q7 -1 16 -6q12 -4 27.5 -18t15.5 -28q0 -7 -1 -9q-26 -68 -49 -68zM308 -21q-44 -5 -74.5 26.5t-34.5 87.5
q-86 -94 -148 -89q-39 4 -52.5 30.5t-3.5 63t32.5 76.5t53.5 74q24 27 53 45t61 22.5t59 -14.5q13 19 47 0q32 -16 22 -37q-26 -47 -44 -101q-20 -58 -20 -96q0 -19 8 -28.5t25 -8.5q7 0 17 2.5t20 7.5t21 11t20.5 12.5t19 12.5t16 11t10.5 9l5 3q7 6 7 0q-1 -17 -37 -62
q-44 -54 -83 -58zM55 71q-2 -8 -0.5 -11.5t7.5 -1.5q29 9 92 78q69 77 69 110q-12 15 -45 -8.5t-69 -71t-54 -95.5z" />
    <glyph glyph-name="aring" unicode="&#xe5;" horiz-adv-x="377" 
d="M284 417q-37 0 -67 34q-30 35 -30 75q0 42 34 72q23 23 44 23q20 0 35 -19.5t15 -39.5q0 -11 -6 -14q-2 -2 -4 -2t-5.5 1.5t-4.5 1.5q-6 0 -19 -7q-34 -24 -34 -45q0 -23 30 -23q33 0 64 31q29 26 29 48q0 15 -21 38q-1 6 4 7q22 6 48 -21q26 -26 26 -60q0 -74 -123 -98
q-14 -2 -15 -2zM308 -21q-44 -5 -74.5 26.5t-34.5 87.5q-86 -94 -148 -89q-39 4 -52.5 30.5t-3.5 63t32.5 76.5t53.5 74q24 27 53 45t61 22.5t59 -14.5q13 19 47 0q32 -16 22 -37q-26 -47 -44 -101q-20 -58 -20 -96q0 -19 8 -28.5t25 -8.5q7 0 17 2.5t20 7.5t21 11
t20.5 12.5t19 12.5t16 11t10.5 9l5 3q7 6 7 0q-1 -17 -37 -62q-44 -54 -83 -58zM55 71q-2 -8 -0.5 -11.5t7.5 -1.5q29 9 92 78q69 77 69 110q-12 15 -45 -8.5t-69 -71t-54 -95.5z" />
    <glyph glyph-name="ae" unicode="&#xe6;" horiz-adv-x="468" 
d="M510 123q2 1 3 -3q3 -24 -22 -55l-4 -5q-27 -31 -71 -53t-82 -22q-48 0 -89 33q-35 30 -36 79q-67 -99 -117 -99q-42 -6 -67 31t-22 78q5 45 30 94q27 52 61 81q44 39 86 39q22 0 57 -23t47 -39q61 58 114 58q17 0 32 -9q21 -12 25 -37q1 -4 1 -17q0 -23 -8 -47
q-12 -36 -38.5 -63t-61.5 -35q-3 -1 -13 -1q-33 0 -59 17q-17 -53 6 -77q12 -13 42 -13q98 0 186 88zM409 264q-1 8 -23.5 -6.5t-49 -41.5t-37.5 -49q20 -11 49 17q14 10 39 40q27 31 22 40zM82 72q22 0 50 28q31 31 65 75l37 49q-43 55 -98 0q-37 -40 -56 -89
q-26 -63 2 -63z" />
    <glyph glyph-name="ccedilla" unicode="&#xe7;" horiz-adv-x="250" 
d="M290 119q2 1 3 -1t1 -6q0 -24 -27 -56q-18 -19 -63 -50q-26 -17 -66 -20l-11 -24q36 -10 36 -43q0 -36 -37 -76q-36 -41 -70 -41q-13 0 -23 7q-19 19 -19 34q0 9 6.5 15t15.5 6l2 -6q1 -7 4.5 -13.5t10.5 -6.5q16 0 47 31q20 20 20 42q0 12 -7 12q-5 0 -13 -9
q-6 -19 -13 -23q-5 -3 -9 -3q-14 0 -19 15q-6 15 29 86q-30 7 -48 25q-34 34 -34 86q0 48 26 98t64 85q40 36 70 36q24 0 47 -20q26 -24 26 -50q0 -18 -20 -18l-14 2q-7 2 -16 6.5t-11 4.5q-5 0 -19 -8q-13 -9 -48 -56q-46 -62 -46 -104q0 -17 9 -29q10 -12 30 -12
q64 0 186 84z" />
    <glyph glyph-name="egrave" unicode="&#xe8;" horiz-adv-x="269" 
d="M302 394q-44 0 -104 45q-59 47 -46 70q16 27 36 27q16 0 28 -9q9 -7 26 -26t21 -23l27 -21q37 -28 37 -43q0 -9 -11 -17q-6 -3 -14 -3zM135 -15q-49 0 -89 33q-22 18 -29 37t-7 49q0 77 65 145q66 68 124 68q17 0 32 -9q21 -12 25 -37q1 -4 1 -17q0 -23 -8 -47
q-12 -36 -38.5 -63t-61.5 -35q-3 -1 -13 -1q-33 0 -59 17q-17 -53 6 -77q12 -13 42 -13q98 0 186 88q1 1 3 -3q3 -24 -22 -55l-4 -5q-27 -31 -71 -53t-82 -22zM100 167q20 -11 49 17q14 10 39 40q27 31 22 40q-1 8 -23.5 -6.5t-49 -41.5t-37.5 -49z" />
    <glyph glyph-name="eacute" unicode="&#xe9;" horiz-adv-x="269" 
d="M190 410q-6 0 -12 7q-7 8 -7 19q0 5 3 11q8 24 49 75q43 54 55 54t26 -14t14 -24q0 -18 -26 -40l-7 -6q-5 -5 -25 -26t-28 -28q-28 -28 -42 -28zM135 -15q-49 0 -89 33q-22 18 -29 37t-7 49q0 77 65 145q66 68 124 68q17 0 32 -9q21 -12 25 -37q1 -4 1 -17q0 -23 -8 -47
q-12 -36 -38.5 -63t-61.5 -35q-3 -1 -13 -1q-33 0 -59 17q-17 -53 6 -77q12 -13 42 -13q98 0 186 88q1 1 3 -3q3 -24 -22 -55l-4 -5q-27 -31 -71 -53t-82 -22zM100 167q20 -11 49 17q14 10 39 40q27 31 22 40q-1 8 -23.5 -6.5t-49 -41.5t-37.5 -49z" />
    <glyph glyph-name="ecircumflex" unicode="&#xea;" horiz-adv-x="269" 
d="M97 426q-26 0 -23 37q1 7 130 88q110 71 124 62q21 -13 21 -42q0 -11 -5 -31l-4 -20q-6 -42 -7 -62q-1 -17 -7 -17q-7 0 -10 -1q-35 0 -35 46q0 12 6 51l-76 -50l-15 -11l-39 -26q-39 -24 -60 -24zM135 -15q-49 0 -89 33q-22 18 -29 37t-7 49q0 77 65 145q66 68 124 68
q17 0 32 -9q21 -12 25 -37q1 -4 1 -17q0 -23 -8 -47q-12 -36 -38.5 -63t-61.5 -35q-3 -1 -13 -1q-33 0 -59 17q-17 -53 6 -77q12 -13 42 -13q98 0 186 88q1 1 3 -3q3 -24 -22 -55l-4 -5q-27 -31 -71 -53t-82 -22zM100 167q20 -11 49 17q14 10 39 40q27 31 22 40
q-1 8 -23.5 -6.5t-49 -41.5t-37.5 -49z" />
    <glyph glyph-name="edieresis" unicode="&#xeb;" horiz-adv-x="269" 
d="M161 401q-8 0 -15 7q-12 18 -12 42q0 16 5 34.5t11.5 29.5t10.5 10q45 -8 45 -52q0 -26 -14.5 -48.5t-30.5 -22.5zM294 395q-14 0 -22 21.5t-8 50.5q0 49 21 57q7 -1 16 -6q12 -4 27.5 -18t15.5 -28q0 -7 -1 -9q-26 -68 -49 -68zM135 -15q-49 0 -89 33q-22 18 -29 37
t-7 49q0 77 65 145q66 68 124 68q17 0 32 -9q21 -12 25 -37q1 -4 1 -17q0 -23 -8 -47q-12 -36 -38.5 -63t-61.5 -35q-3 -1 -13 -1q-33 0 -59 17q-17 -53 6 -77q12 -13 42 -13q98 0 186 88q1 1 3 -3q3 -24 -22 -55l-4 -5q-27 -31 -71 -53t-82 -22zM100 167q20 -11 49 17
q14 10 39 40q27 31 22 40q-1 8 -23.5 -6.5t-49 -41.5t-37.5 -49z" />
    <glyph glyph-name="igrave" unicode="&#xec;" horiz-adv-x="213" 
d="M222 337q-44 0 -104 45q-59 47 -46 70q16 27 36 27q16 0 28 -9q9 -7 26 -26t21 -23l27 -21q37 -28 37 -43q0 -9 -11 -17q-6 -3 -14 -3zM126 -12q-50 -5 -85 32q-34 37 -18 115q10 52 41 130q9 23 18.5 29t24.5 -1q43 -10 30 -35q-54 -113 -54 -181q0 -25 14 -33
q26 -20 86 16q18 9 40 25l24 15q7 3 7 -1q-1 -16 -41 -57q-48 -51 -87 -54z" />
    <glyph glyph-name="iacute" unicode="&#xed;" horiz-adv-x="213" 
d="M110 353q-6 0 -12 7q-7 8 -7 19q0 5 3 11q8 24 49 75q43 54 55 54t26 -14t14 -24q0 -18 -26 -40l-7 -6q-5 -5 -25 -26t-28 -28q-28 -28 -42 -28zM126 -12q-50 -5 -85 32q-34 37 -18 115q10 52 41 130q9 23 18.5 29t24.5 -1q43 -10 30 -35q-54 -113 -54 -181q0 -25 14 -33
q26 -20 86 16q18 9 40 25l24 15q7 3 7 -1q-1 -16 -41 -57q-48 -51 -87 -54z" />
    <glyph glyph-name="icircumflex" unicode="&#xee;" horiz-adv-x="213" 
d="M17 369q-26 0 -23 37q1 7 130 88q110 71 124 62q21 -14 21 -42q0 -11 -5 -31l-4 -20q-6 -42 -7 -62q-1 -17 -7 -17q-7 0 -10 -1q-35 0 -35 46q0 12 6 51l-76 -50l-15 -11l-39 -26q-39 -24 -60 -24zM126 -12q-50 -5 -85 32q-34 37 -18 115q10 52 41 130q9 23 18.5 29
t24.5 -1q43 -10 30 -35q-54 -113 -54 -181q0 -25 14 -33q26 -20 86 16q18 9 40 25l24 15q7 3 7 -1q-1 -16 -41 -57q-48 -51 -87 -54z" />
    <glyph glyph-name="idieresis" unicode="&#xef;" horiz-adv-x="213" 
d="M81 344q-8 0 -15 7q-12 18 -12 42q0 16 5 34.5t11.5 29.5t10.5 10q45 -7 45 -52q0 -26 -14.5 -48.5t-30.5 -22.5zM214 338q-14 0 -22 21.5t-8 50.5q0 50 21 57q7 -1 16 -6q12 -4 27.5 -18t15.5 -28q0 -7 -1 -9q-26 -68 -49 -68zM126 -12q-50 -5 -85 32q-34 37 -18 115
q10 52 41 130q9 23 18.5 29t24.5 -1q43 -10 30 -35q-54 -113 -54 -181q0 -25 14 -33q26 -20 86 16q18 9 40 25l24 15q7 3 7 -1q-1 -16 -41 -57q-48 -51 -87 -54z" />
    <glyph glyph-name="eth" unicode="&#xf0;" horiz-adv-x="325" 
d="M50 -2q-51 40 -23 119q15 69 19 86q7 28 29 73q24 46 52 70q38 33 86 4l18 -12q17 -11 25 -14q20 39 35 123q-33 -35 -47 -36q-10 0 -24 11q-21 16 -21 30q-2 7 10 17.5t33 24.5t31 23q-29 35 -78 -3q-15 -11 -26 -23.5t-15.5 -18.5t-7.5 -4q-13 6 -16 18t1 22.5t11 19.5
q19 25 50.5 40.5t60.5 11.5q31 -3 57 -33q72 54 74 55q6 2 13.5 -9.5t1.5 -21.5q-12 -16 -31.5 -43.5t-24.5 -33.5q11 -82 1 -136q-13 -76 -91 -197q-53 -81 -108 -141q-53 -56 -95 -22zM90 71q11 0 25 17q13 14 34 50l21 35q22 30 59 91q-8 10 -26 14t-24 -1
q-21 -9 -47 -59q-15 -29 -37 -90q-21 -57 -5 -57z" />
    <glyph glyph-name="ntilde" unicode="&#xf1;" horiz-adv-x="421" 
d="M365 384q-27 0 -46 11.5t-27.5 26t-18 26t-19.5 11.5q-19 0 -33 -11t-31 -36q-9 -13 -16 -13q-10 0 -17.5 11t-7.5 26q0 20 14 37q52 52 91 52q23 0 41 -14.5t27 -31.5t19 -30.5t20 -12.5q11 0 28.5 18.5t30 32t16.5 5.5q8 -11 8 -28q0 -32 -21.5 -56t-57.5 -24zM337 -12
q-22 0 -45 11t-35 30q-32 50 3 172l-91 -91q-49 -50 -72 -78q-30 -41 -48 -41q-13 0 -27 17q-13 17 -13 31q0 10 9 40l28 97l38 134q6 25 15.5 29t29.5 -9q36 -19 25 -45q-1 -1 -9.5 -25.5t-21.5 -61t-21 -58.5l95 94q19 19 46 36q28 19 44 19q13 0 29.5 -14t16.5 -28
q0 -5 -12 -62q-13 -53 -13 -87q0 -65 35 -65q19 0 45 15l40 26l37 22q3 2 3 -3q0 -16 -23 -44l-6 -7q-40 -43 -76 -51q-12 -3 -26 -3z" />
    <glyph glyph-name="ograve" unicode="&#xf2;" horiz-adv-x="293" 
d="M334 382q-44 0 -104 45q-59 47 -46 70q16 27 36 27q16 0 28 -9q9 -7 26 -26t21 -23l27 -21q37 -28 37 -43q0 -9 -11 -17q-6 -3 -14 -3zM110 0q-20 0 -39 10q-48 16 -48 74q0 60 38 128q0 1 12 23t19 34q42 71 65 73q11 1 26.5 -10.5t22.5 -22.5q6 -13 6 -19v-2
q0 -4 12 -14q6 -5 46 -34q21 -15 21 -45q0 -11 -1 -14q-2 -27 -24 -57q-8 -10 -11 -14l-27 -31q-70 -79 -118 -79zM93 58q21 0 79 63q59 64 59 87q0 7 -6 13l-12 3q-34 9 -48 1q-35 -20 -68 -110q-12 -31 -12 -45q0 -12 8 -12z" />
    <glyph glyph-name="oacute" unicode="&#xf3;" horiz-adv-x="293" 
d="M222 398q-6 0 -12 7q-7 8 -7 19q0 5 3 11q8 24 49 75q43 54 55 54t26 -14t14 -24q0 -18 -26 -40l-7 -6q-5 -5 -25 -26t-28 -28q-28 -28 -42 -28zM110 0q-20 0 -39 10q-48 16 -48 74q0 60 38 128q0 1 12 23t19 34q42 71 65 73q11 1 26.5 -10.5t22.5 -22.5q6 -13 6 -19v-2
q0 -4 12 -14q6 -5 46 -34q21 -15 21 -45q0 -11 -1 -14q-2 -27 -24 -57q-8 -10 -11 -14l-27 -31q-70 -79 -118 -79zM93 58q21 0 79 63q59 64 59 87q0 7 -6 13l-12 3q-34 9 -48 1q-35 -20 -68 -110q-12 -31 -12 -45q0 -12 8 -12z" />
    <glyph glyph-name="ocircumflex" unicode="&#xf4;" horiz-adv-x="293" 
d="M129 414q-26 0 -23 37q1 7 130 88q110 71 124 62q21 -13 21 -42q0 -11 -5 -31l-4 -20q-6 -42 -7 -62q-1 -17 -7 -17q-7 0 -10 -1q-35 0 -35 46q0 12 6 51l-76 -50l-15 -11l-39 -26q-39 -24 -60 -24zM110 0q-20 0 -39 10q-48 16 -48 74q0 60 38 128q0 1 12 23t19 34
q42 71 65 73q11 1 26.5 -10.5t22.5 -22.5q6 -13 6 -19v-2q0 -4 12 -14q6 -5 46 -34q21 -15 21 -45q0 -11 -1 -14q-2 -27 -24 -57q-8 -10 -11 -14l-27 -31q-70 -79 -118 -79zM93 58q21 0 79 63q59 64 59 87q0 7 -6 13l-12 3q-34 9 -48 1q-35 -20 -68 -110q-12 -31 -12 -45
q0 -12 8 -12z" />
    <glyph glyph-name="otilde" unicode="&#xf5;" horiz-adv-x="293" 
d="M337 406q-27 0 -46 11.5t-27.5 26t-18 26t-19.5 11.5q-19 0 -33 -11t-31 -36q-9 -13 -16 -13q-10 0 -17.5 11t-7.5 26q0 20 14 37q52 52 91 52q23 0 41 -14.5t27 -31.5t19 -30.5t20 -12.5q11 0 28.5 18.5t30 32t16.5 5.5q8 -11 8 -28q0 -32 -21.5 -56t-57.5 -24zM110 0
q-20 0 -39 10q-48 16 -48 74q0 60 38 128q0 1 12 23t19 34q42 71 65 73q11 1 26.5 -10.5t22.5 -22.5q6 -13 6 -19v-2q0 -4 12 -14q6 -5 46 -34q21 -15 21 -45q0 -11 -1 -14q-2 -27 -24 -57q-8 -10 -11 -14l-27 -31q-70 -79 -118 -79zM93 58q21 0 79 63q59 64 59 87
q0 7 -6 13l-12 3q-34 9 -48 1q-35 -20 -68 -110q-12 -31 -12 -45q0 -12 8 -12z" />
    <glyph glyph-name="odieresis" unicode="&#xf6;" horiz-adv-x="293" 
d="M193 389q-8 0 -15 7q-12 18 -12 42q0 16 5 34.5t11.5 29.5t10.5 10q45 -8 45 -52q0 -26 -14.5 -48.5t-30.5 -22.5zM326 383q-14 0 -22 21.5t-8 50.5q0 49 21 57q7 -1 16 -6q12 -4 27.5 -18t15.5 -28q0 -7 -1 -9q-26 -68 -49 -68zM110 0q-20 0 -39 10q-48 16 -48 74
q0 60 38 128q0 1 12 23t19 34q42 71 65 73q11 1 26.5 -10.5t22.5 -22.5q6 -13 6 -19v-2q0 -4 12 -14q6 -5 46 -34q21 -15 21 -45q0 -11 -1 -14q-2 -27 -24 -57q-8 -10 -11 -14l-27 -31q-70 -79 -118 -79zM93 58q21 0 79 63q59 64 59 87q0 7 -6 13l-12 3q-34 9 -48 1
q-35 -20 -68 -110q-12 -31 -12 -45q0 -12 8 -12z" />
    <glyph glyph-name="divide" unicode="&#xf7;" horiz-adv-x="357" 
d="M218 298q-26 -9 -55 3q-25 13 -17 41q9 28 40 27q11 0 24 -5q10 -6 22 -15q15 -12 9.5 -28t-23.5 -23zM64 206q-4 7 -6 15.5t-0.5 19t16.5 15.5t43 3q195 0 205 -3q8 -1 10 -23q2 -20 -11 -20q-36 -6 -85 -11q-51 -5 -111 -7q-53 0 -61 11zM119 75q-11 5 -13.5 19
t13.5 29.5t52 20.5q15 0 34 -16q15 -11 -1 -27q-18 -18 -28 -22q-36 -14 -57 -4z" />
    <glyph glyph-name="oslash" unicode="&#xf8;" horiz-adv-x="293" 
d="M259 249q32 -23 32 -54q0 -11 -1 -14q-2 -27 -24 -57q-8 -10 -11 -14l-27 -31q-70 -79 -118 -79q-15 0 -36 8q-26 -36 -45.5 -52t-44.5 -16q-19 0 51 97q-12 20 -12 47q0 60 38 128q0 1 12 23t19 34q42 71 65 73q11 1 26.5 -10.5t22.5 -22.5q6 -13 6 -19v-2q0 -3 6 -9
l25 34q9 9 13.5 17.5t5 13t3 7.5t7.5 3q2 1 8 1q12 0 19.5 -8t7.5 -21q0 -22 -22 -47q-9 -9 -26 -30zM165 225q-37 -22 -64 -100l78 103q-8 0 -14 -3zM230 213l-105 -137q32 25 70 71q36 43 36 61q0 4 -1 5z" />
    <glyph glyph-name="ugrave" unicode="&#xf9;" horiz-adv-x="423" 
d="M368 394q-44 0 -104 45q-59 47 -46 70q16 27 36 27q16 0 28 -9q9 -7 26 -26t21 -23l27 -21q37 -28 37 -43q0 -9 -11 -17q-6 -3 -14 -3zM67 -30q-87 15 -43 176q18 65 38 121q26 71 40 77q15 5 37 -14q24 -20 24 -41q0 -10 -7 -23q-36 -67 -65 -138q-26 -82 -17 -86h4
q1 0 18 18q32 39 94 106l24 31q17 22 34 41q2 2 14 20.5t24 32t18 12.5q11 1 24.5 -8t19.5 -20q5 -8 6 -13.5t0 -9t-3.5 -11.5t-4.5 -15q-22 -61 -33 -113q-14 -71 14 -71q38 0 111 42l29 16q7 3 7 -1q-1 -16 -41 -57q-48 -50 -87 -54q-48 -4 -77 37t-12 124
q-21 -24 -62 -72q-93 -111 -128 -107z" />
    <glyph glyph-name="uacute" unicode="&#xfa;" horiz-adv-x="423" 
d="M256 410q-6 0 -12 7q-7 8 -7 19q0 5 3 11q8 24 49 75q43 54 55 54t26 -14t14 -24q0 -18 -26 -40l-7 -6q-5 -5 -25 -26t-28 -28q-28 -28 -42 -28zM67 -30q-87 15 -43 176q18 65 38 121q26 71 40 77q15 5 37 -14q24 -20 24 -41q0 -10 -7 -23q-36 -67 -65 -138
q-26 -82 -17 -86h4q1 0 18 18q32 39 94 106l24 31q17 22 34 41q2 2 14 20.5t24 32t18 12.5q11 1 24.5 -8t19.5 -20q5 -8 6 -13.5t0 -9t-3.5 -11.5t-4.5 -15q-22 -61 -33 -113q-14 -71 14 -71q38 0 111 42l29 16q7 3 7 -1q-1 -16 -41 -57q-48 -50 -87 -54q-48 -4 -77 37
t-12 124q-21 -24 -62 -72q-93 -111 -128 -107z" />
    <glyph glyph-name="ucircumflex" unicode="&#xfb;" horiz-adv-x="423" 
d="M163 426q-26 0 -23 37q1 7 130 88q110 71 124 62q21 -13 21 -42q0 -11 -5 -31l-4 -20q-6 -42 -7 -62q-1 -17 -7 -17q-7 0 -10 -1q-35 0 -35 46q0 12 6 51l-76 -50l-15 -11l-39 -26q-39 -24 -60 -24zM67 -30q-87 15 -43 176q18 65 38 121q26 71 40 77q15 5 37 -14
q24 -20 24 -41q0 -10 -7 -23q-36 -67 -65 -138q-26 -82 -17 -86h4q1 0 18 18q32 39 94 106l24 31q17 22 34 41q2 2 14 20.5t24 32t18 12.5q11 1 24.5 -8t19.5 -20q5 -8 6 -13.5t0 -9t-3.5 -11.5t-4.5 -15q-22 -61 -33 -113q-14 -71 14 -71q38 0 111 42l29 16q7 3 7 -1
q-1 -16 -41 -57q-48 -50 -87 -54q-48 -4 -77 37t-12 124q-21 -24 -62 -72q-93 -111 -128 -107z" />
    <glyph glyph-name="udieresis" unicode="&#xfc;" horiz-adv-x="423" 
d="M227 401q-8 0 -15 7q-12 18 -12 42q0 16 5 34.5t11.5 29.5t10.5 10q45 -8 45 -52q0 -26 -14.5 -48.5t-30.5 -22.5zM360 395q-14 0 -22 21.5t-8 50.5q0 49 21 57q7 -1 16 -6q12 -4 27.5 -18t15.5 -28q0 -7 -1 -9q-26 -68 -49 -68zM67 -30q-87 15 -43 176q18 65 38 121
q26 71 40 77q15 5 37 -14q24 -20 24 -41q0 -10 -7 -23q-36 -67 -65 -138q-26 -82 -17 -86h4q1 0 18 18q32 39 94 106l24 31q17 22 34 41q2 2 14 20.5t24 32t18 12.5q11 1 24.5 -8t19.5 -20q5 -8 6 -13.5t0 -9t-3.5 -11.5t-4.5 -15q-22 -61 -33 -113q-14 -71 14 -71
q38 0 111 42l29 16q7 3 7 -1q-1 -16 -41 -57q-48 -50 -87 -54q-48 -4 -77 37t-12 124q-21 -24 -62 -72q-93 -111 -128 -107z" />
    <glyph glyph-name="yacute" unicode="&#xfd;" horiz-adv-x="411" 
d="M235 410q-6 0 -12 7q-7 8 -7 19q0 5 3 11q8 24 49 75q44 54 55 54q12 0 26 -14t14 -24q0 -18 -26 -40l-7 -6q-5 -5 -25 -26t-28 -28q-28 -28 -42 -28zM94 -394q-29 -3 -53.5 18t-29.5 51l-1 5v7q0 7 2 17q8 14 12 14t17 -18l16 -19q7 -7 19 -5q12 3 47 59q19 35 66 132
q15 32 55 135q7 15 32 98q23 75 26 106q-47 -62 -143 -143q-49 -42 -72 -42q-29 0 -45.5 23.5t-16.5 62.5q0 22 6 46q32 134 59 140q12 3 37 -16q19 -15 19 -23q0 -4 -3 -10q-16 -33 -27 -61q-20 -49 -20 -76q0 -24 151 127l4 4l22 24q29 34 53 49q10 6 24 6q19 0 33 -11.5
t13 -29.5q0 -7 -10.5 -36t-12.5 -43q-11 -66 -58 -199q-45 -134 -113 -265q-64 -127 -108 -127z" />
    <glyph glyph-name="thorn" unicode="&#xfe;" horiz-adv-x="323" 
d="M-87 -330q-37 15 -37 47t37 121q36 85 120 314q83 223 168 506q15 45 38 45q13 0 23 -15t10 -35q0 -23 -14 -40q-3 -3 -24 -59l-19 -52q-19 -53 -30 -87q-21 -61 -49 -152q62 51 101 51q37 0 58 -34t21 -85q0 -54 -22 -91q-21 -44 -49.5 -71.5t-57.5 -27.5q-16 0 -31 9
q-33 19 -33 29q0 5 11 9t27 8t21 6q24 13 52 70q30 58 30 93q0 24 -18 24q-6 0 -15 -3q-43 -22 -85 -76q-58 -75 -128 -251q-13 -34 -28.5 -77.5t-25 -72t-19.5 -54.5t-18 -38t-14 -11z" />
    <glyph glyph-name="ydieresis" unicode="&#xff;" horiz-adv-x="411" 
d="M206 401q-8 0 -15 7q-12 18 -12 42q0 16 5 34.5t11.5 29.5t10.5 10q45 -8 45 -52q0 -26 -14.5 -48.5t-30.5 -22.5zM339 395q-14 0 -22 21.5t-8 50.5q0 49 21 57q7 -1 16 -6q12 -4 27.5 -18t15.5 -28q0 -7 -1 -9q-26 -68 -49 -68zM94 -394q-29 -3 -53.5 18t-29.5 51l-1 5
v7q0 7 2 17q8 14 12 14t17 -18l16 -19q7 -7 19 -5q12 3 47 59q19 35 66 132q15 32 55 135q7 15 32 98q23 75 26 106q-47 -62 -143 -143q-49 -42 -72 -42q-29 0 -45.5 23.5t-16.5 62.5q0 22 6 46q32 134 59 140q12 3 37 -16q19 -15 19 -23q0 -4 -3 -10q-16 -33 -27 -61
q-20 -49 -20 -76q0 -24 151 127l4 4l22 24q29 34 53 49q10 6 24 6q19 0 33 -11.5t13 -29.5q0 -7 -10.5 -36t-12.5 -43q-11 -66 -58 -199q-45 -134 -113 -265q-64 -127 -108 -127z" />
    <glyph glyph-name="Amacron" unicode="&#x100;" horiz-adv-x="448" 
d="M448 860l158 6q25 1 31.5 -13t-19.5 -25q-86 -35 -175 -45q-109 -13 -105 42q2 12 7 24q3 14 21 11h82zM420 230q56 -5 65 -38q2 -16 -5 -17q-26 6 -127 4q-43 -216 -34 -245q4 -11 -16 -16q-31 -8 -48 11q-7 7 -9 19q1 15 -1 22q-1 3 2 27l5 30l6 34q7 29 8 37l8 38
l9 40q-91 -5 -142 -10h-3q-128 -200 -184 -247q-20 -17 -33.5 -23t-35.5 -6q-54 0 -27 31l3 3l2 2q97 106 185 231q-40 -6 -58 -6q-11 -1 -21.5 14.5t-10.5 30t13 20.5q33 7 126 11q100 149 258 424q9 17 33.5 18.5t44 -11.5t13.5 -31l-82 -395q18 0 56 -2zM314 448
l-135 -217q104 2 115 2l5 32q18 112 45 230z" />
    <glyph glyph-name="amacron" unicode="&#x101;" horiz-adv-x="377" 
d="M414 474q-86 -35 -175 -45q-109 -13 -105 42q2 12 7 24q3 14 21 11h82l158 6q25 1 31.5 -13t-19.5 -25zM308 -21q-44 -5 -74.5 26.5t-34.5 87.5q-86 -94 -148 -89q-39 4 -52.5 30.5t-3.5 63t32.5 76.5t53.5 74q24 27 53 45t61 22.5t59 -14.5q13 19 47 0q32 -16 22 -37
q-26 -47 -44 -101q-20 -58 -20 -96q0 -19 8 -28.5t25 -8.5q7 0 17 2.5t20 7.5t21 11t20.5 12.5t19 12.5t16 11t10.5 9l5 3q7 6 7 0q-1 -17 -37 -62q-44 -54 -83 -58zM55 71q-2 -8 -0.5 -11.5t7.5 -1.5q29 9 92 78q69 77 69 110q-12 15 -45 -8.5t-69 -71t-54 -95.5z" />
    <glyph glyph-name="Abreve" unicode="&#x102;" horiz-adv-x="448" 
d="M586 923q12 0 23.5 -12.5t9.5 -26.5q-4 -39 -46 -78q-40 -37 -109 -37q-48 0 -77 36q-28 35 -28 75q0 31 21 31q13 0 24 -8q2 -1 16 -34q14 -32 35 -32q25 -2 56.5 20.5t52.5 44.5t22 21zM420 230q56 -5 65 -38q2 -16 -5 -17q-26 6 -127 4q-43 -216 -34 -245
q4 -11 -16 -16q-31 -8 -48 11q-7 7 -9 19q1 15 -1 22q-1 3 2 27l5 30l6 34q7 29 8 37l8 38l9 40q-91 -5 -142 -10h-3q-128 -200 -184 -247q-20 -17 -33.5 -23t-35.5 -6q-54 0 -27 31l3 3l2 2q97 106 185 231q-40 -6 -58 -6q-11 -1 -21.5 14.5t-10.5 30t13 20.5q33 7 126 11
q100 149 258 424q9 17 33.5 18.5t44 -11.5t13.5 -31l-82 -395q18 0 56 -2zM314 448l-135 -217q104 2 115 2l5 32q18 112 45 230z" />
    <glyph glyph-name="abreve" unicode="&#x103;" horiz-adv-x="377" 
d="M260 415q-48 0 -77 36q-28 35 -28 75q0 31 21 31q13 0 24 -8q2 -1 16 -34q14 -32 35 -32q25 -2 56.5 20.5t52.5 44.5t22 21q12 0 23.5 -12.5t9.5 -26.5q-4 -39 -46 -78q-40 -37 -109 -37zM308 -21q-44 -5 -74.5 26.5t-34.5 87.5q-86 -94 -148 -89q-39 4 -52.5 30.5
t-3.5 63t32.5 76.5t53.5 74q24 27 53 45t61 22.5t59 -14.5q13 19 47 0q32 -16 22 -37q-26 -47 -44 -101q-20 -58 -20 -96q0 -19 8 -28.5t25 -8.5q7 0 17 2.5t20 7.5t21 11t20.5 12.5t19 12.5t16 11t10.5 9l5 3q7 6 7 0q-1 -17 -37 -62q-44 -54 -83 -58zM55 71
q-2 -8 -0.5 -11.5t7.5 -1.5q29 9 92 78q69 77 69 110q-12 15 -45 -8.5t-69 -71t-54 -95.5z" />
    <glyph glyph-name="Aogonek" unicode="&#x104;" horiz-adv-x="448" 
d="M420 230q56 -5 65 -38q2 -16 -5 -17q-26 6 -127 4q-33 -170 -36 -221q7 4 18 4q14 0 25.5 -8t11.5 -17q0 -5 -6 -10q-38 -23 -71 -68q-31 -43 -31 -72q0 -20 19 -20q13 0 38 12q7 3 12 3q8 0 8 -8q0 -13 -16 -26t-37 -13q-14 0 -29 6q-41 17 -41 55q0 50 61 121
q-30 6 -33 31q1 15 -1 22q-1 3 2 27l5 30l6 34q7 29 8 37l8 38l9 40q-91 -5 -142 -10h-3q-128 -200 -184 -247q-20 -17 -33.5 -23t-35.5 -6q-54 0 -27 31l3 3l2 2q97 106 185 231q-40 -6 -58 -6q-11 -1 -21.5 14.5t-10.5 30t13 20.5q33 7 126 11q100 149 258 424
q9 17 33.5 18.5t44 -11.5t13.5 -31l-82 -395q18 0 56 -2zM314 448l-135 -217q104 2 115 2l5 32q18 112 45 230z" />
    <glyph glyph-name="aogonek" unicode="&#x105;" horiz-adv-x="377" 
d="M421 99q7 6 7 0q-1 -17 -37 -62q-44 -54 -83 -58h-14q-34 -26 -60 -65q-24 -39 -24 -63q0 -20 19 -20q13 0 38 12q7 3 12 3q8 0 8 -8q0 -13 -16 -26t-37 -13q-14 0 -29 6q-41 17 -41 55q0 52 76 140q-36 31 -41 93q-86 -94 -148 -89q-39 4 -52.5 30.5t-3.5 63t32.5 76.5
t53.5 74q24 27 53 45t61 22.5t59 -14.5q13 19 47 0q32 -16 22 -37q-26 -47 -44 -101q-20 -58 -20 -96q0 -19 8 -28.5t25 -8.5q7 0 17 2.5t20 7.5t21 11t20.5 12.5t19 12.5t16 11t10.5 9zM55 71q-2 -8 -0.5 -11.5t7.5 -1.5q29 9 92 78q69 77 69 110q-12 15 -45 -8.5t-69 -71
t-54 -95.5z" />
    <glyph glyph-name="Cacute" unicode="&#x106;" horiz-adv-x="334" 
d="M284 736q-6 0 -12 7q-7 8 -7 19q0 5 3 11q8 24 49 75q43 54 55 54t26 -14t14 -24q0 -18 -26 -40l-7 -6q-5 -5 -25 -26t-28 -28q-28 -28 -42 -28zM148 -44q-54 0 -95 47q-40 46 -34 151q6 95 54 217q48 121 117 210q69 88 127 88q53 0 81.5 -32t28.5 -87q0 -46 -19 -91
t-36 -56q-20 -12 -47 -6q-19 4 -12 20q11 21 31 76q19 53 19 70q0 30 -29 30q-48 0 -107 -87q-56 -82 -98 -194q-39 -106 -45 -179q-6 -61 15.5 -91.5t62.5 -30.5q55 0 112 43l46 34l45 39q4 3 7 4t4.5 -0.5t0.5 -5.5q-2 -26 -45 -74q-83 -95 -184 -95z" />
    <glyph glyph-name="cacute" unicode="&#x107;" horiz-adv-x="250" 
d="M176 410q-6 0 -12 7q-7 8 -7 19q0 5 3 11q8 24 49 75q43 54 55 54t26 -14t14 -24q0 -18 -26 -40l-7 -6q-5 -5 -25 -26t-28 -28q-28 -28 -42 -28zM124 -15q-55 0 -84 29q-34 34 -34 86q0 48 26 98t64 85q40 36 70 36q24 0 47 -20q26 -24 26 -50q0 -18 -20 -18l-14 2
q-7 2 -16 6.5t-11 4.5q-5 0 -19 -8q-13 -9 -48 -56q-46 -62 -46 -104q0 -17 9 -29q10 -12 30 -12q64 0 186 84q2 1 3 -1t1 -6q0 -24 -27 -56q-18 -19 -63 -50q-32 -21 -80 -21z" />
    <glyph glyph-name="Cdotaccent" unicode="&#x10a;" horiz-adv-x="334" 
d="M322 744q-10 0 -18 14q-6 10 -6 37q0 21 11 51q12 29 31 29q14 0 31 -17q9 -9 9 -30q0 -20 -20 -52t-38 -32zM148 -44q-54 0 -95 47q-40 46 -34 151q6 95 54 217q48 121 117 210q69 88 127 88q53 0 81.5 -32t28.5 -87q0 -46 -19 -91t-36 -56q-20 -12 -47 -6q-19 4 -12 20
q11 21 31 76q19 53 19 70q0 30 -29 30q-48 0 -107 -87q-56 -82 -98 -194q-39 -106 -45 -179q-6 -61 15.5 -91.5t62.5 -30.5q55 0 112 43l46 34l45 39q4 3 7 4t4.5 -0.5t0.5 -5.5q-2 -26 -45 -74q-83 -95 -184 -95z" />
    <glyph glyph-name="cdotaccent" unicode="&#x10b;" horiz-adv-x="250" 
d="M214 418q-10 0 -18 14q-6 10 -6 37q0 21 11 51q12 29 31 29q14 0 31 -17q9 -9 9 -30q0 -20 -20 -52t-38 -32zM124 -15q-55 0 -84 29q-34 34 -34 86q0 48 26 98t64 85q40 36 70 36q24 0 47 -20q26 -24 26 -50q0 -18 -20 -18l-14 2q-7 2 -16 6.5t-11 4.5q-5 0 -19 -8
q-13 -9 -48 -56q-46 -62 -46 -104q0 -17 9 -29q10 -12 30 -12q64 0 186 84q2 1 3 -1t1 -6q0 -24 -27 -56q-18 -19 -63 -50q-32 -21 -80 -21z" />
    <glyph glyph-name="Ccaron" unicode="&#x10c;" horiz-adv-x="334" 
d="M324 757q-26 0 -38 25q-5 6 -8.5 26.5t-6 45t-4.5 31.5t4.5 13t15.5 6q16 0 30 -20q6 -12 14 -73l41 24q15 10 48 29q93 54 117 50q21 0 21 -21q0 -11 -6 -27l-16 -8q-58 -28 -96 -50l-18 -10l-35 -20q-17 -8 -34 -15q-18 -6 -29 -6zM148 -44q-54 0 -95 47
q-40 46 -34 151q6 95 54 217q48 121 117 210q69 88 127 88q53 0 81.5 -32t28.5 -87q0 -46 -19 -91t-36 -56q-20 -12 -47 -6q-19 4 -12 20q11 21 31 76q19 53 19 70q0 30 -29 30q-48 0 -107 -87q-56 -82 -98 -194q-39 -106 -45 -179q-6 -61 15.5 -91.5t62.5 -30.5
q55 0 112 43l46 34l45 39q4 3 7 4t4.5 -0.5t0.5 -5.5q-2 -26 -45 -74q-83 -95 -184 -95z" />
    <glyph glyph-name="ccaron" unicode="&#x10d;" horiz-adv-x="250" 
d="M216 431q-26 0 -38 25q-5 6 -8.5 26.5t-6 45t-4.5 31.5t4.5 13t15.5 6q16 0 30 -20q6 -12 14 -73l41 24q15 10 48 29q93 54 117 50q21 0 21 -21q0 -11 -6 -27l-16 -8q-58 -28 -96 -50l-18 -10l-35 -20q-17 -8 -34 -15q-18 -6 -29 -6zM124 -15q-55 0 -84 29q-34 34 -34 86
q0 48 26 98t64 85q40 36 70 36q24 0 47 -20q26 -24 26 -50q0 -18 -20 -18l-14 2q-7 2 -16 6.5t-11 4.5q-5 0 -19 -8q-13 -9 -48 -56q-46 -62 -46 -104q0 -17 9 -29q10 -12 30 -12q64 0 186 84q2 1 3 -1t1 -6q0 -24 -27 -56q-18 -19 -63 -50q-32 -21 -80 -21z" />
    <glyph glyph-name="Dcaron" unicode="&#x10e;" horiz-adv-x="423" 
d="M317 716q-25 0 -38 25q-5 6 -8.5 26.5t-6 45t-4.5 31.5t4 13t16 6q16 0 30 -20q6 -12 14 -73l41 24q15 10 48 29q93 54 117 50q21 0 21 -21q0 -10 -6 -27l-17 -8q-91 -48 -95 -50l-18 -10l-35 -20q-17 -8 -34 -15q-18 -6 -29 -6zM71 -30q-39 0 -65.5 13.5t-26.5 31.5
q0 14 11.5 31t25.5 18q15 35 60 193q46 161 60 216q11 43 27 89q-37 4 -37 12q0 15 6.5 27.5t15.5 16.5q21 9 79 9q65 0 112 -30t66 -76q18 -42 24 -92q10 -77 0 -121q-43 -189 -154 -269q-96 -69 -204 -69zM181 376l-94 -338q71 -8 148 61q78 68 113 160q26 67 26 149
q0 31 -5.5 55t-19.5 46.5t-41.5 36t-68.5 16.5q-47 -155 -58 -186z" />
    <glyph glyph-name="dcaron" unicode="&#x10f;" horiz-adv-x="410" 
d="M339 -12q-47 -4 -77 30.5t-30 101.5q-2 -4 -27 -40q-13 -17 -41 -42q-29 -26 -66 -26q-48 0 -69 45q-9 19 -9 41q0 70 70 155q48 60 87 60q28 0 56 -25q17 -15 19 -15t13 26l36 95q13 33 28 66q41 94 59 145q12 36 29 36q13 0 29 -22q19 -28 -4 -86l-93 -227
q-26 -52 -39 -94q-23 -75 -23 -117q0 -44 19 -51q7 -4 21 -4q24 0 51 13q17 7 37 19t32 20t13 8q7 3 7 -1q-1 -16 -41 -57q-48 -50 -87 -54zM463 474q0 13 14 43q10 18 16 39q1 4 3.5 10t3.5 10t3 8.5t3 7t3 4.5t3.5 3t3.5 0q41 -8 41 -41q0 -34 -25 -77q-26 -44 -37 -44
q-12 0 -22 12t-10 25zM82 75q22 0 80 66q59 67 59 87q0 5 -7 13t-12 8q-27 0 -76 -64q-50 -65 -50 -99q0 -11 6 -11z" />
    <glyph glyph-name="Dcroat" unicode="&#x110;" horiz-adv-x="423" 
d="M227 627q65 0 112 -30t66 -76q18 -42 24 -92q10 -77 0 -121q-43 -189 -154 -269q-96 -69 -204 -69q-39 0 -65.5 13.5t-26.5 31.5q0 14 11.5 31t25.5 18q19 44 75 245l-53 1q-9 4 -9 25q-5 35 28 35q17 0 51 -2q23 83 28 105q11 43 27 89q-37 4 -37 12q0 15 6.5 27.5
t15.5 16.5q21 9 79 9zM348 259q26 67 26 149q0 31 -5.5 55t-19.5 46.5t-41.5 36t-68.5 16.5q-47 -155 -58 -186l-4 -15q63 -8 57 -26q-4 -15 -71 -23l-76 -274q71 -8 148 61q78 68 113 160z" />
    <glyph glyph-name="dslash" unicode="&#x111;" horiz-adv-x="410" 
d="M460 100q7 3 7 -1q-1 -16 -41 -57q-48 -50 -87 -54q-47 -4 -77 30.5t-30 101.5q-2 -4 -27 -40q-13 -17 -41 -42q-29 -26 -66 -26q-48 0 -69 45q-9 19 -9 41q0 70 70 155q48 60 87 60q28 0 56 -25q17 -15 19 -15t13 26q7 17 19 52l-47 1q-9 4 -9 25q-5 35 28 35
q16 0 52 -2l26 61q40 91 54 134q12 36 29 36q13 0 29 -22q19 -28 -4 -86l-54 -132q47 -9 45 -23q-4 -16 -64 -23q-5 -12 -7.5 -18.5t-6 -15t-5.5 -11.5l-1 -4q-26 -52 -39 -94q-23 -75 -23 -117q0 -44 19 -51q7 -4 21 -4q24 0 51 13q17 7 37 19t32 20t13 8zM82 75
q22 0 80 66q59 67 59 87q0 5 -7 13t-12 8q-27 0 -76 -64q-50 -65 -50 -99q0 -11 6 -11z" />
    <glyph glyph-name="Emacron" unicode="&#x112;" horiz-adv-x="376" 
d="M542 776q-86 -35 -175 -45q-109 -13 -105 42q2 12 7 24q3 14 21 11h82l158 6q25 1 31.5 -13t-19.5 -25zM197 -51q-73 -19 -135 26q-62 46 -46 122q3 15 17 59q13 37 18 56q-30 18 -44 31q-7 7 -9 24q-1 16 7 18q5 0 18 2.5t31 6t27 5.5q-1 1 41 125q0 2 2 6.5t5 13.5
t6 17q30 74 28 83q-1 5 -9.5 12.5t-9.5 10.5q-1 8 -0.5 11.5t5 12t5.5 11.5q20 45 49 45q15 0 37 -15q18 10 53 13q44 7 107 -5q61 -10 84 -35q16 -16 19 -32q2 -11 -9 -11l-12 5q-12 4 -29 6q-103 5 -201 -15l-32 -86q-56 -154 -58 -163q88 5 193 5q25 0 12 -16
q-28 -31 -117 -53l-37 -8q-62 -12 -82 -17q-5 -15 -8 -27q-35 -116 -30 -136q4 -22 22 -37t47 -15q36 0 102 26l28 14q31 16 31 10q-1 -28 -29 -54q-43 -38 -97 -52z" />
    <glyph glyph-name="emacron" unicode="&#x113;" horiz-adv-x="269" 
d="M381 474q-86 -35 -175 -45q-110 -13 -105 42q2 12 7 24q3 14 21 11h82l158 6q25 1 31.5 -13t-19.5 -25zM135 -15q-49 0 -89 33q-22 18 -29 37t-7 49q0 77 65 145q66 68 124 68q17 0 32 -9q21 -12 25 -37q1 -4 1 -17q0 -23 -8 -47q-12 -36 -38.5 -63t-61.5 -35
q-3 -1 -13 -1q-33 0 -59 17q-17 -53 6 -77q12 -13 42 -13q98 0 186 88q1 1 3 -3q3 -24 -22 -55l-4 -5q-27 -31 -71 -53t-82 -22zM100 167q20 -11 49 17q14 10 39 40q27 31 22 40q-1 8 -23.5 -6.5t-49 -41.5t-37.5 -49z" />
    <glyph glyph-name="Edotaccent" unicode="&#x116;" horiz-adv-x="376" 
d="M389 720q-10 0 -18 14q-6 10 -6 37q0 21 11 51q12 29 31 29q14 0 31 -17q9 -9 9 -30q0 -20 -20 -52t-38 -32zM197 -51q-73 -19 -135 26q-62 46 -46 122q3 15 17 59q13 37 18 56q-30 18 -44 31q-7 7 -9 24q-1 16 7 18q5 0 18 2.5t31 6t27 5.5q-1 1 41 125q0 2 2 6.5
t5 13.5t6 17q30 74 28 83q-1 5 -9.5 12.5t-9.5 10.5q-1 8 -0.5 11.5t5 12t5.5 11.5q20 45 49 45q15 0 37 -15q18 10 53 13q44 7 107 -5q61 -10 84 -35q16 -16 19 -32q2 -11 -9 -11l-12 5q-12 4 -29 6q-103 5 -201 -15l-32 -86q-56 -154 -58 -163q88 5 193 5q25 0 12 -16
q-28 -31 -117 -53l-37 -8q-62 -12 -82 -17q-5 -15 -8 -27q-35 -116 -30 -136q4 -22 22 -37t47 -15q36 0 102 26l28 14q31 16 31 10q-1 -28 -29 -54q-43 -38 -97 -52z" />
    <glyph glyph-name="edotaccent" unicode="&#x117;" horiz-adv-x="269" 
d="M228 418q-10 0 -18 14q-6 10 -6 37q0 21 11 51q12 29 31 29q14 0 31 -17q9 -9 9 -30q0 -20 -20 -52t-38 -32zM135 -15q-49 0 -89 33q-22 18 -29 37t-7 49q0 77 65 145q66 68 124 68q17 0 32 -9q21 -12 25 -37q1 -4 1 -17q0 -23 -8 -47q-12 -36 -38.5 -63t-61.5 -35
q-3 -1 -13 -1q-33 0 -59 17q-17 -53 6 -77q12 -13 42 -13q98 0 186 88q1 1 3 -3q3 -24 -22 -55l-4 -5q-27 -31 -71 -53t-82 -22zM100 167q20 -11 49 17q14 10 39 40q27 31 22 40q-1 8 -23.5 -6.5t-49 -41.5t-37.5 -49z" />
    <glyph glyph-name="Eogonek" unicode="&#x118;" horiz-adv-x="376" 
d="M484 605q16 -16 19 -32q2 -11 -9 -11l-12 5q-12 4 -29 6q-103 5 -201 -15l-32 -86q-56 -154 -58 -163q88 5 193 5q25 0 12 -16q-28 -31 -117 -53l-37 -8q-62 -12 -82 -17q-5 -15 -8 -27q-35 -116 -30 -136q4 -22 22 -37t47 -15q36 0 102 26l28 14q31 16 31 10
q-5 -55 -86 -92q-39 -27 -67 -66q-28 -41 -28 -69q0 -20 19 -20q13 0 38 12q7 3 12 3q8 0 8 -8q0 -13 -16 -26t-37 -13q-14 0 -29 6q-41 17 -41 55q0 42 50 107q-63 5 -103 48q-41 42 -27 105q3 15 17 59q13 37 18 56q-30 18 -44 31q-7 7 -9 24q-1 16 7 18q5 0 18 2.5t31 6
t27 5.5q-1 1 41 125q0 2 2 6.5t5 13.5t6 17q30 74 28 83q-1 5 -9.5 12.5t-9.5 10.5q-1 8 -0.5 11.5t5 12t5.5 11.5q20 45 49 45q15 0 37 -15q18 10 53 13q44 7 107 -5q61 -10 84 -35z" />
    <glyph glyph-name="eogonek" unicode="&#x119;" horiz-adv-x="269" 
d="M311 123q1 1 3 -3q3 -24 -22 -55l-4 -5q-22 -26 -58 -46.5t-71 -26.5q-40 -27 -67 -67q-29 -43 -29 -69q0 -20 19 -20q12 0 38 12q8 3 12 3q8 0 8 -8q0 -13 -16 -26t-37 -13q-14 0 -29 6q-41 17 -41 55q0 54 72 134q-23 7 -43 24q-22 18 -29 37t-7 49q0 77 65 145
q66 68 124 68q17 0 32 -9q21 -12 25 -37q1 -4 1 -17q0 -23 -8 -47q-12 -36 -38.5 -63t-61.5 -35q-3 -1 -13 -1q-33 0 -59 17q-17 -53 6 -77q12 -13 42 -13q98 0 186 88zM210 264q-1 8 -23.5 -6.5t-49 -41.5t-37.5 -49q20 -11 49 17q14 10 39 40q27 31 22 40z" />
    <glyph glyph-name="Ecaron" unicode="&#x11a;" horiz-adv-x="376" 
d="M391 733q-25 0 -38 25q-5 6 -8.5 26.5t-6 45t-4.5 31.5t4 13t16 6q16 0 30 -20q6 -12 14 -73l41 24q15 10 48 29q93 54 117 50q21 0 21 -21q0 -11 -6 -27l-17 -8q-91 -48 -95 -50l-18 -10l-35 -20q-17 -8 -34 -15q-18 -6 -29 -6zM197 -51q-73 -19 -135 26q-62 46 -46 122
q3 15 17 59q13 37 18 56q-30 18 -44 31q-7 7 -9 24q-1 16 7 18q5 0 18 2.5t31 6t27 5.5q-1 1 41 125q0 2 2 6.5t5 13.5t6 17q30 74 28 83q-1 5 -9.5 12.5t-9.5 10.5q-1 8 -0.5 11.5t5 12t5.5 11.5q20 45 49 45q15 0 37 -15q18 10 53 13q44 7 107 -5q61 -10 84 -35
q16 -16 19 -32q2 -11 -9 -11l-12 5q-12 4 -29 6q-103 5 -201 -15l-32 -86q-56 -154 -58 -163q88 5 193 5q25 0 12 -16q-28 -31 -117 -53l-37 -8q-62 -12 -82 -17q-5 -15 -8 -27q-35 -116 -30 -136q4 -22 22 -37t47 -15q36 0 102 26l28 14q31 16 31 10q-1 -28 -29 -54
q-43 -38 -97 -52z" />
    <glyph glyph-name="ecaron" unicode="&#x11b;" horiz-adv-x="269" 
d="M230 431q-26 0 -38 25q-5 6 -8.5 26.5t-6 45t-4.5 31.5t4.5 13t15.5 6q16 0 30 -20q6 -12 14 -73l41 24q15 10 48 29q93 54 117 50q21 0 21 -21q0 -11 -6 -27l-16 -8q-58 -28 -96 -50l-18 -10l-35 -20q-17 -8 -34 -15q-18 -6 -29 -6zM135 -15q-49 0 -89 33q-22 18 -29 37
t-7 49q0 77 65 145q66 68 124 68q17 0 32 -9q21 -12 25 -37q1 -4 1 -17q0 -23 -8 -47q-12 -36 -38.5 -63t-61.5 -35q-3 -1 -13 -1q-33 0 -59 17q-17 -53 6 -77q12 -13 42 -13q98 0 186 88q1 1 3 -3q3 -24 -22 -55l-4 -5q-27 -31 -71 -53t-82 -22zM100 167q20 -11 49 17
q14 10 39 40q27 31 22 40q-1 8 -23.5 -6.5t-49 -41.5t-37.5 -49z" />
    <glyph glyph-name="Gbreve" unicode="&#x11e;" horiz-adv-x="520" 
d="M372 730q-48 0 -77 36q-28 35 -28 75q0 31 21 31q13 0 24 -8q2 -1 16 -34q14 -32 35 -32q25 -2 56.5 20.5t52.5 44.5t22 21q12 0 23.5 -12.5t9.5 -26.5q-4 -39 -46 -78q-40 -37 -109 -37zM407 -140q-23 6 -30.5 13t-7.5 28q0 118 16 198q-51 -52 -133 -106
q-82 -55 -125 -55q-21 0 -38 5q-51 16 -74 72q-18 42 -18 94q0 115 64 244q65 132 155 219q91 88 166 88q39 0 71 -29t32 -70q0 -20 -14 -70q-15 -49 -24.5 -67t-21.5 -18q-7 0 -15 5q-26 17 -26 36q0 8 6 23q7 15 7 17q20 60 20 83q0 28 -20 28q-18 0 -48 -15
q-28 -13 -44 -25q-105 -73 -177 -212t-65 -263q6 -81 40 -87q2 -1 8 -1q22 0 53 16q34 18 52 33l112 93q30 24 68 67q-10 -5 -44.5 -12.5t-35.5 -7.5q-41 -12 -71 -9q-17 2 -32 13.5t-15 25.5q0 9 15 13q6 3 24.5 7t19.5 4l56 12q76 17 124 21q8 5 35 3q28 -1 32 -16
q0 -1 6.5 -9t9 -13.5t-1.5 -11.5q-4 -3 -20 -6t-20 -5q-17 -63 -29 -152q-11 -96 -11 -172q0 -36 -31 -29z" />
    <glyph glyph-name="gbreve" unicode="&#x11f;" horiz-adv-x="385" 
d="M282 415q-48 0 -77 36q-28 35 -28 75q0 31 21 31q13 0 24 -8q2 -1 16 -34q14 -32 35 -32q25 -2 56.5 20.5t52.5 44.5t22 21q12 0 23.5 -12.5t9.5 -26.5q-4 -39 -46 -78q-40 -37 -109 -37zM7 -405q-56 0 -92.5 39.5t-36.5 98.5q0 36 10 52q5 8 8 -4q18 -63 43.5 -93
t66.5 -30q39 0 77.5 33.5t68.5 91.5q58 108 88 222q4 13 10 39q8 36 15 59q3 7 9 44q-38 -55 -93 -114q-56 -57 -88 -57q-21 0 -42.5 15.5t-27.5 34.5q-4 9 -4 27q0 44 37 117q44 88 112 131q24 15 45 15q46 0 86 -43q17 17 33 21q4 1 16 -4t18 -10q15 -12 15 -28t-19 -44
q-18 -29 -21 -37q-12 -65 -36 -159q-21 -84 -32 -116q-109 -301 -266 -301zM83 40q23 0 91 74q69 77 95 120q-22 17 -32 17q-29 0 -88 -72l-25 -34q-18 -25 -31 -51q-17 -31 -17 -44q0 -10 7 -10z" />
    <glyph glyph-name="Gdotaccent" unicode="&#x120;" horiz-adv-x="520" 
d="M373 733q-10 0 -18 14q-6 11 -6 37q0 21 11 51q12 29 31 29q14 0 31 -17q9 -9 9 -30q0 -20 -20 -52t-38 -32zM407 -140q-23 6 -30.5 13t-7.5 28q0 118 16 198q-51 -52 -133 -106q-82 -55 -125 -55q-21 0 -38 5q-51 16 -74 72q-18 42 -18 94q0 115 64 244q65 132 155 219
q91 88 166 88q39 0 71 -29t32 -70q0 -20 -14 -70q-15 -49 -24.5 -67t-21.5 -18q-7 0 -15 5q-26 17 -26 36q0 8 6 23q7 15 7 17q20 60 20 83q0 28 -20 28q-18 0 -48 -15q-28 -13 -44 -25q-105 -73 -177 -212t-65 -263q6 -81 40 -87q2 -1 8 -1q22 0 53 16q34 18 52 33l112 93
q30 24 68 67q-10 -5 -44.5 -12.5t-35.5 -7.5q-41 -12 -71 -9q-17 2 -32 13.5t-15 25.5q0 9 15 13q6 3 24.5 7t19.5 4l56 12q76 17 124 21q8 5 35 3q28 -1 32 -16q0 -1 6.5 -9t9 -13.5t-1.5 -11.5q-4 -3 -20 -6t-20 -5q-17 -63 -29 -152q-11 -96 -11 -172q0 -36 -31 -29z" />
    <glyph glyph-name="gdotaccent" unicode="&#x121;" horiz-adv-x="385" 
d="M283 418q-10 0 -18 14q-6 10 -6 37q0 21 11 51q12 29 31 29q14 0 31 -17q9 -9 9 -30q0 -20 -20 -52t-38 -32zM7 -405q-56 0 -92.5 39.5t-36.5 98.5q0 36 10 52q5 8 8 -4q18 -63 43.5 -93t66.5 -30q39 0 77.5 33.5t68.5 91.5q58 108 88 222q4 13 10 39q8 36 15 59
q3 7 9 44q-38 -55 -93 -114q-56 -57 -88 -57q-21 0 -42.5 15.5t-27.5 34.5q-4 9 -4 27q0 44 37 117q44 88 112 131q24 15 45 15q46 0 86 -43q17 17 33 21q4 1 16 -4t18 -10q15 -12 15 -28t-19 -44q-18 -29 -21 -37q-12 -65 -36 -159q-21 -84 -32 -116q-109 -301 -266 -301z
M83 40q23 0 91 74q69 77 95 120q-22 17 -32 17q-29 0 -88 -72l-25 -34q-18 -25 -31 -51q-17 -31 -17 -44q0 -10 7 -10z" />
    <glyph glyph-name="uni0122" unicode="&#x122;" horiz-adv-x="520" 
d="M504 258q0 -1 6.5 -9t9 -13.5t-1.5 -11.5q-4 -3 -20 -6t-20 -5q-17 -63 -29 -152q-11 -96 -11 -172q0 -36 -31 -29q-23 6 -30.5 13t-7.5 28q0 118 16 198q-51 -52 -133 -106q-82 -55 -125 -55q-14 0 -18 1q10 -10 10 -27q0 -34 -25 -77q-26 -44 -37 -44q-12 0 -22 12
t-10 25q0 7 4 18t11 26t9 20q4 9 8.5 23t8 23t6.5 12q-37 21 -57 65q-18 42 -18 94q0 115 64 244q65 132 155 219q91 88 166 88q39 0 71 -29t32 -70q0 -20 -14 -70q-15 -49 -24.5 -67t-21.5 -18q-7 0 -15 5q-26 17 -26 36q0 8 6 23q7 15 7 17q20 60 20 83q0 28 -20 28
q-18 0 -48 -15q-28 -13 -44 -25q-105 -73 -177 -212t-65 -263q6 -81 40 -87q2 -1 8 -1q22 0 53 16q34 18 52 33l112 93q30 24 68 67q-10 -5 -44.5 -12.5t-35.5 -7.5q-41 -12 -71 -9q-17 2 -32 13.5t-15 25.5q0 9 15 13q6 3 24.5 7t19.5 4l56 12q76 17 124 21q8 5 35 3
q28 -1 32 -16z" />
    <glyph glyph-name="uni0123" unicode="&#x123;" horiz-adv-x="385" 
d="M319 430q-48 8 -48 48q0 37 29 89q28 51 43 51t26 -13.5t11 -29.5q0 -10 -13 -39t-15 -35q-1 -4 -6.5 -20.5t-7.5 -21.5q-4 -13 -9.5 -21.5t-9.5 -7.5zM7 -405q-56 0 -92.5 39.5t-36.5 98.5q0 36 10 52q5 8 8 -4q18 -63 43.5 -93t66.5 -30q39 0 77.5 33.5t68.5 91.5
q58 108 88 222q4 13 10 39q8 36 15 59q3 7 9 44q-38 -55 -93 -114q-56 -57 -88 -57q-21 0 -42.5 15.5t-27.5 34.5q-4 9 -4 27q0 44 37 117q44 88 112 131q24 15 45 15q46 0 86 -43q17 17 33 21q4 1 16 -4t18 -10q15 -12 15 -28t-19 -44q-18 -29 -21 -37q-12 -65 -36 -159
q-21 -84 -32 -116q-109 -301 -266 -301zM83 40q23 0 91 74q69 77 95 120q-22 17 -32 17q-29 0 -88 -72l-25 -34q-18 -25 -31 -51q-17 -31 -17 -44q0 -10 7 -10z" />
    <glyph glyph-name="Hbar" unicode="&#x126;" horiz-adv-x="502" 
d="M473 438h8q31 0 51 -29q8 -16 2 -17l-81 -12l-21 -66q68 -3 82 -29q4 -9 -4 -11l-92 -17q-18 -51 -34 -104q-44 -142 -66 -165q-13 -13 -28.5 0t-9.5 38q14 47 30 110q22 78 32 107q-92 -8 -173 -31q-59 -122 -63 -203q-1 -12 -5.5 -18t-12.5 -5q-19 1 -30 34
q-7 17 -5 46q1 12 9 35q5 17 18 53l12 35q-13 -5 -26 -10.5t-18 -7.5l-6 -2q-8 -2 -13 3t-12 23q-3 5 -4.5 10t-2.5 8.5t0.5 7.5t2.5 6.5t4.5 6l5 5t7 4.5t7 4t8 4t7.5 4q11 5 37 13l34 10l22 62l-21 -3l-28 -5q-16 -3 -26 -2q-16 13 -16 29q0 15 15.5 25.5t42.5 13.5
q7 0 53 7q13 36 27 89q17 49 35 123q5 23 32 0q26 -22 28 -45v-4q-7 -41 -47 -153q152 16 161 18l18 47q30 70 43 114q5 11 35 83q11 17 32.5 2t23.5 -35q1 -6 -9 -30l-32 -76q-23 -55 -39 -100zM360 308l9 30l11 33q-29 -3 -162 -20l-3 -8q-3 -8 -8 -23t-11 -32l39 6
q82 13 125 14z" />
    <glyph glyph-name="hbar" unicode="&#x127;" horiz-adv-x="424" 
d="M481 128q7 0 -8 -31q-16 -33 -46 -66t-61 -41q-8 -2 -20 -2q-38 0 -65 26.5t-27 69.5q0 30 21 156q-49 -46 -78 -82q-28 -34 -71 -105q-23 -45 -48 -52q-2 -1 -10 -1q-24 0 -39.5 13.5t-15.5 32.5q0 84 72 275l-49 1q-9 4 -9 25q-5 35 28 35q16 0 52 -2q115 304 150 304
q17 0 29.5 -10t12.5 -22q0 -20 -21 -59q-34 -60 -97 -221q53 -9 51 -24q-2 -17 -69 -24q-55 -146 -55 -185q44 71 93 120q50 50 84 50q19 0 42 -26q24 -27 25 -47q2 -22 -10 -77t-12 -82q0 -36 24 -36q8 0 11 1q33 8 67 40q7 6 17 16.5t16.5 17t7.5 6.5q6 6 8 6z" />
    <glyph glyph-name="Imacron" unicode="&#x12a;" horiz-adv-x="351" 
d="M523 768q-86 -35 -175 -45q-110 -13 -105 42q2 12 7 24q3 14 21 11h82l158 6q25 1 31.5 -13t-19.5 -25zM75 -40q-36 46 23 77q18 10 57 19q56 204 156 506q-88 -19 -94 -15q-12 6 -7 24q12 37 27 52q15 18 95 26q84 8 142 5q42 -2 60 -24q9 -10 -2 -12q-75 -14 -144 -36
q-16 -56 -79 -239q-65 -195 -82 -277q75 8 141 -10q24 -7 10 -21q-10 -9 -39 -17q-19 -4 -44 -8q-63 -11 -78 -18q0 -1 -2 -5.5t-2.5 -5.5t-3 -4t-5 -4t-7.5 -1.5t-11 -0.5q-14 2 -31 10q-10 -4 -23 -9t-20.5 -8.5t-15 -5.5t-13 -1.5t-8.5 3.5z" />
    <glyph glyph-name="imacron" unicode="&#x12b;" horiz-adv-x="213" 
d="M301 417q-86 -35 -175 -45q-110 -14 -105 42q2 12 7 24q3 14 21 11h82l158 6q25 1 31.5 -13t-19.5 -25zM126 -12q-50 -5 -85 32q-34 37 -18 115q10 52 41 130q9 23 18.5 29t24.5 -1q43 -10 30 -35q-54 -113 -54 -181q0 -25 14 -33q26 -20 86 16q18 9 40 25l24 15
q7 3 7 -1q-1 -16 -41 -57q-48 -51 -87 -54z" />
    <glyph glyph-name="Iogonek" unicode="&#x12e;" horiz-adv-x="351" 
d="M474 654q42 -2 60 -24q9 -10 -2 -12q-75 -14 -144 -36q-16 -56 -79 -239q-65 -195 -82 -277q75 8 141 -10q24 -7 10 -21q-10 -9 -39 -17l-38 -7l-45 -9l-5 -5q-38 -23 -71 -68q-31 -43 -31 -72q0 -20 19 -20q12 0 38 12q8 3 12 3q8 0 8 -8q0 -13 -16 -26t-37 -13
q-14 0 -29 6q-41 17 -41 55q0 47 55 114h-1q-1 1 -2 1q-10 -4 -23 -9t-20.5 -8.5t-15 -5.5t-13 -1.5t-8.5 3.5q-36 46 23 77q18 10 57 19q56 204 156 506q-88 -19 -94 -15q-12 6 -7 24q12 37 27 52q15 18 95 26q84 8 142 5z" />
    <glyph glyph-name="iogonek" unicode="&#x12f;" horiz-adv-x="213" 
d="M148 361q-10 0 -18 14q-6 11 -6 37q0 21 11 51q12 29 31 29q14 0 31 -17q9 -9 9 -30q0 -20 -20 -52t-38 -32zM223 85l24 15q7 3 7 -1q-1 -16 -41 -57q-48 -51 -87 -54q-15 -2 -25 1q-40 -26 -69 -68q-29 -44 -29 -70q0 -20 19 -20q12 0 38 12q8 3 12 3q8 0 8 -8
q0 -13 -16 -26t-37 -13q-14 0 -29 6q-41 17 -41 55q0 27 23 67q31 51 67 87q-40 40 -24 121q10 52 41 130q9 23 18.5 29t24.5 -1q43 -10 30 -35q-54 -113 -54 -181q0 -25 14 -33q26 -20 86 16q18 9 40 25z" />
    <glyph glyph-name="Idot" unicode="&#x130;" horiz-adv-x="351" 
d="M370 712q-10 0 -18 14q-6 11 -6 37q0 21 11 51q12 29 31 29q14 0 31 -17q9 -9 9 -30q0 -20 -20 -52t-38 -32zM75 -40q-36 46 23 77q18 10 57 19q56 204 156 506q-88 -19 -94 -15q-12 6 -7 24q12 37 27 52q15 18 95 26q84 8 142 5q42 -2 60 -24q9 -10 -2 -12
q-75 -14 -144 -36q-16 -56 -79 -239q-65 -195 -82 -277q75 8 141 -10q24 -7 10 -21q-10 -9 -39 -17q-19 -4 -44 -8q-63 -11 -78 -18q0 -1 -2 -5.5t-2.5 -5.5t-3 -4t-5 -4t-7.5 -1.5t-11 -0.5q-14 2 -31 10q-10 -4 -23 -9t-20.5 -8.5t-15 -5.5t-13 -1.5t-8.5 3.5z" />
    <glyph glyph-name="dotlessi" unicode="&#x131;" horiz-adv-x="213" 
d="M126 -12q-50 -5 -85 32q-34 37 -18 115q10 52 41 130q9 23 18.5 29t24.5 -1q43 -10 30 -35q-54 -113 -54 -181q0 -25 14 -33q26 -20 86 16q18 9 40 25l24 15q7 3 7 -1q-1 -16 -41 -57q-48 -51 -87 -54z" />
    <glyph glyph-name="uni0136" unicode="&#x136;" horiz-adv-x="398" 
d="M398 -97q-59 29 -118 86q-92 91 -148 190q-4 -4 -14.5 -13t-13.5 -12q-19 -53 -29 -90q-8 -31 -20 -82.5t-15 -61.5q-5 -9 -21.5 -9t-33.5 10t-16 22q8 65 40 167l53 163q22 66 50 164q29 102 36 122q27 85 43 123q9 18 37 8t31 -25q1 -5 -5 -22q-11 -33 -27 -69
q-36 -120 -100 -305q61 26 143 102q78 72 129 130q40 48 65 100q10 22 37 -12q9 -12 12 -20q6 -16 0 -37q0 -2 -4.5 -8.5t-4.5 -7.5l-12 -16q-62 -74 -128 -135q-66 -59 -186 -154l34 -48l30 -44q36 -48 50 -62q76 -78 132 -107l27 -8q24 -7 35 -14t7 -15q-22 -42 -95 -10z
M15 -172q0 13 14 43q11 20 16 40q2 5 5 13t4.5 12.5t4 9.5t4.5 6.5t5 0.5q41 -8 41 -41q0 -34 -25 -77q-26 -44 -37 -44q-12 0 -22 12t-10 25z" />
    <glyph glyph-name="uni0137" unicode="&#x137;" horiz-adv-x="360" 
d="M35 -26q-22 7 -30.5 15t-8.5 24q0 18 50 168q64 191 121 346q21 59 37 97q9 21 37 2q26 -19 25 -38q0 -4 -1 -5q-4 -10 -10.5 -29t-9.5 -27l-11 -31q-85 -228 -87 -238l-21 -63q-18 -57 -39 -117q-1 -3 -4.5 -14t-6 -19.5t-6.5 -20.5t-8 -20.5t-8.5 -16.5t-9.5 -11.5
t-9 -1.5zM269 -19q-2 0 -8 0.5t-7 0.5q-35 5 -60 22q-34 25 -53 57q-6 11 -13 33q-8 26 -9 36q-1 24 17 42l32 35q59 63 107 90q33 18 50 18q28 0 33 -44q1 -8 -9.5 -17.5t-30 -22t-24.5 -16.5l-27 -18q-24 -17 -32 -24q-32 -24 -48 -51q0 -52 55 -76q19 -6 31 -9l21 -3
t24 -3.5t14 -2.5q-15 -47 -63 -47zM-21 -172q0 15 15 43q10 21 15 40q2 5 5 13t4.5 12.5t4 9.5t4.5 6.5t5 0.5q41 -8 41 -41q0 -34 -25 -77q-26 -44 -37 -44q-12 0 -22 12t-10 25z" />
    <glyph glyph-name="Lacute" unicode="&#x139;" horiz-adv-x="302" 
d="M194 707q-6 0 -12 7q-7 8 -7 19q0 5 3 11q8 24 49 75q43 54 55 54t26 -14t14 -24q0 -18 -26 -40l-7 -6q-5 -5 -25 -26t-28 -28q-28 -28 -42 -28zM129 -58q-32 0 -62 14q-25 13 -32 36q-10 33 -8 50q7 52 8 58l8 29q1 5 8 30q2 7 4 13t3 9.5t1 4.5q18 59 70 217
q34 95 43 131q1 4 1 29t3.5 45.5t14.5 24.5q20 15 37 -2q18 -17 24 -39q5 -25 -16 -90q-24 -83 -64 -199q-44 -131 -66 -207q-19 -64 -12 -79q6 -10 19 -10q31 0 91 24l42 18q32 14 63 25q5 2 12 6t12 7t9.5 4.5t6.5 -2t2 -11.5l-7 -7q-19 -21 -62 -52l-38 -23l-36 -22
q-58 -36 -79 -32z" />
    <glyph glyph-name="lacute" unicode="&#x13a;" horiz-adv-x="276" 
d="M237 697q-6 0 -12 7q-7 8 -7 19q0 5 3 11q8 24 49 75q44 54 55 54q12 0 26 -14t14 -24q0 -18 -26 -40l-7 -6q-5 -5 -25 -26t-28 -28q-28 -28 -42 -28zM161 -22q-51 0 -85 21q-28 16 -37.5 44.5t-9.5 77.5q0 66 37 183q24 74 58 150q36 77 79 140q30 46 63 56q6 2 17 2
q29 0 53 -16.5t25 -42.5q2 -78 -29 -149q-45 -106 -98 -184q-81 -125 -140 -167q0 -69 55 -69q54 0 109 49q7 5 23 21q16 15 19 11l2 -4q2 -9 -8 -31t-23 -35q-57 -57 -110 -57zM97 162q36 40 66 84q47 66 70 118l17 37l20 42q35 71 39 130q1 3 1 11q0 13 -6 13
q-17 0 -69 -97q-50 -94 -90 -191q-31 -73 -48 -147z" />
    <glyph glyph-name="uni013B" unicode="&#x13b;" horiz-adv-x="302" 
d="M129 -58q-32 0 -62 14q-25 13 -32 36q-10 33 -8 50q7 52 8 58l8 29q1 5 8 30q2 7 4 13t3 9.5t1 4.5q18 59 70 217q34 95 43 131q1 4 1 29t3.5 45.5t14.5 24.5q20 15 37 -2q18 -17 24 -39q5 -25 -16 -90q-24 -83 -64 -199q-44 -131 -66 -207q-19 -64 -12 -79q6 -10 19 -10
q31 0 91 24l42 18q32 14 63 25q5 2 12 6t12 7t9.5 4.5t6.5 -2t2 -11.5l-7 -7q-19 -21 -62 -52l-38 -23l-36 -22q-58 -36 -79 -32zM-33 -172q0 15 15 43q9 19 16 40q3 11 5.5 17t5 13.5t5.5 10t6 1.5q41 -8 41 -41q0 -34 -25 -77q-26 -44 -37 -44q-12 0 -22 12t-10 25z" />
    <glyph glyph-name="uni013C" unicode="&#x13c;" horiz-adv-x="276" 
d="M161 -22q-51 0 -85 21q-28 16 -37.5 44.5t-9.5 77.5q0 66 37 183q24 74 58 150q36 77 79 140q30 46 63 56q6 2 17 2q29 0 53 -16.5t25 -42.5q2 -78 -29 -149q-45 -106 -98 -184q-81 -125 -140 -167q0 -69 55 -69q54 0 109 49q7 5 23 21q16 15 19 11l2 -4q2 -9 -8 -31
t-23 -35q-57 -57 -110 -57zM97 162q36 40 66 84q47 66 70 118l17 37l20 42q35 71 39 130q1 3 1 11q0 13 -6 13q-17 0 -69 -97q-50 -94 -90 -191q-31 -73 -48 -147zM20 -188q0 13 14 43q11 20 16 40q2 5 5 13t4.5 12.5t4 9.5t4.5 6.5t5 0.5q41 -8 41 -41q0 -34 -25 -77
q-26 -44 -37 -44q-12 0 -22 12t-10 25z" />
    <glyph glyph-name="Lcaron" unicode="&#x13d;" horiz-adv-x="302" 
d="M129 -58q-32 0 -62 14q-25 13 -32 36q-10 33 -8 50q7 52 8 58l8 29q1 5 8 30q2 7 4 13t3 9.5t1 4.5q18 59 70 217q34 95 43 131q1 4 1 29t3.5 45.5t14.5 24.5q20 15 37 -2q18 -17 24 -39q5 -25 -16 -90q-24 -83 -64 -199q-44 -131 -66 -207q-19 -64 -12 -79q6 -10 19 -10
q31 0 91 24l42 18q32 14 63 25q5 2 12 6t12 7t9.5 4.5t6.5 -2t2 -11.5l-7 -7q-19 -21 -62 -52l-38 -23l-36 -22q-58 -36 -79 -32zM342 474q0 13 14 43q10 18 16 39q1 4 3.5 10t3.5 10t3 8.5t3 7t3 4.5t3.5 3t3.5 0q41 -8 41 -41q0 -34 -25 -77q-26 -44 -37 -44q-12 0 -22 12
t-10 25z" />
    <glyph glyph-name="lcaron" unicode="&#x13e;" horiz-adv-x="276" 
d="M161 -22q-51 0 -85 21q-28 16 -37.5 44.5t-9.5 77.5q0 66 37 183q24 74 58 150q36 77 79 140q30 46 63 56q6 2 17 2q29 0 53 -16.5t25 -42.5q2 -78 -29 -149q-45 -106 -98 -184q-81 -125 -140 -167q0 -69 55 -69q54 0 109 49q7 5 23 21q16 15 19 11l2 -4q2 -9 -8 -31
t-23 -35q-57 -57 -110 -57zM97 162q36 40 66 84q47 66 70 118l17 37l20 42q35 71 39 130q1 3 1 11q0 13 -6 13q-17 0 -69 -97q-50 -94 -90 -191q-31 -73 -48 -147zM405 459q0 13 14 43q10 18 16 39q1 4 3.5 10t3.5 10t3 8.5t3 7t3 4.5t3.5 3t3.5 0q41 -8 41 -41
q0 -34 -25 -77q-26 -44 -37 -44q-12 0 -22 12t-10 25z" />
    <glyph glyph-name="Lslash" unicode="&#x141;" horiz-adv-x="302" 
d="M309 74q5 2 12 6t12 7t9.5 4.5t6.5 -2t2 -11.5l-7 -7q-19 -21 -62 -52l-38 -23l-36 -22q-58 -36 -79 -32q-32 0 -62 14q-25 13 -32 36q-10 33 -8 50q7 52 8 58l8 29q1 5 8 30q2 7 4 13t3 9.5t1 4.5q18 59 23 76l-13 -5q-12 -1 -20.5 7t-8.5 20q0 30 67 52l22 67
q34 95 43 131q1 4 1 29t3.5 45.5t14.5 24.5q20 15 37 -2q18 -17 24 -39q5 -25 -16 -90q-7 -26 -44 -142q31 9 47 9q14 0 20 -7.5t-3 -15.5q-20 -15 -84 -45q-43 -126 -66 -205q-19 -64 -12 -79q6 -10 19 -10q31 0 91 24l42 18q32 14 63 25z" />
    <glyph glyph-name="lslash" unicode="&#x142;" horiz-adv-x="276" 
d="M332 444q-45 -106 -98 -184q-28 -44 -39 -57q12 -2 15.5 -9t-4.5 -14q-18 -14 -51 -29q-36 -41 -61 -58q0 -69 55 -69q54 0 109 49q7 5 23 21q16 15 19 11l2 -4q2 -9 -8 -31t-23 -35q-57 -57 -110 -57q-51 0 -85 21q-41 25 -46 96l-11 -4q-12 -1 -20.5 7t-8.5 20
q0 22 41 42q8 58 35 144q24 74 58 150q36 77 79 140q30 46 63 56q6 2 17 2q29 0 53 -16.5t25 -42.5q2 -78 -29 -149zM163 246q47 66 70 118l17 37l20 42q35 71 39 130q1 3 1 11q0 13 -6 13q-17 0 -69 -97q-50 -94 -90 -191q-24 -53 -43 -125l18 5q35 45 43 57z" />
    <glyph glyph-name="Nacute" unicode="&#x143;" horiz-adv-x="543" 
d="M418 669q-6 0 -12 7q-7 8 -7 19q0 5 3 11q8 24 49 75q43 54 55 54t26 -14t14 -24q0 -18 -26 -40l-7 -6q-5 -5 -25 -26t-28 -28q-28 -28 -42 -28zM364 -47q-10 13 -49 243q-38 233 -38 256q0 9 -16 -35q-1 -3 -2 -5q-66 -175 -129 -388q-13 -46 -15 -59q-4 -30 -35 -14
q-28 15 -35 39q-2 6 -2 7q0 28 104 340q105 311 117 311q15 0 38 -17q24 -16 24 -34q0 -9 17 -119q17 -111 36 -218q4 -21 7 -40t5.5 -32.5t4 -23.5t2.5 -16.5t1 -7.5q16 37 103 284q86 242 87 256q1 13 19 4q27 -12 29 -47q1 -9 -2 -21q-2 -8 -106 -325
q-100 -304 -102 -329q-1 -19 -13.5 -25t-27 -0.5t-22.5 16.5z" />
    <glyph glyph-name="nacute" unicode="&#x144;" horiz-adv-x="421" 
d="M250 376q-6 0 -12 7q-7 8 -7 19q0 5 3 11q8 24 49 75q43 54 55 54t26 -14t14 -24q0 -18 -26 -40l-7 -6q-5 -5 -25 -26t-28 -28q-28 -28 -42 -28zM337 -12q-22 0 -45 11t-35 30q-32 50 3 172l-91 -91q-49 -50 -72 -78q-30 -41 -48 -41q-13 0 -27 17q-13 17 -13 31
q0 10 9 40l28 97l38 134q6 25 15.5 29t29.5 -9q36 -19 25 -45q-1 -1 -9.5 -25.5t-21.5 -61t-21 -58.5l95 94q19 19 46 36q28 19 44 19q13 0 29.5 -14t16.5 -28q0 -5 -12 -62q-13 -53 -13 -87q0 -65 35 -65q19 0 45 15l40 26l37 22q3 2 3 -3q0 -16 -23 -44l-6 -7
q-40 -43 -76 -51q-12 -3 -26 -3z" />
    <glyph glyph-name="uni0145" unicode="&#x145;" horiz-adv-x="543" 
d="M364 -47q-10 13 -49 243q-38 233 -38 256q0 9 -16 -35q-1 -3 -2 -5q-66 -175 -129 -388q-13 -46 -15 -59q-4 -30 -35 -14q-28 15 -35 39q-2 6 -2 7q0 28 104 340q105 311 117 311q15 0 38 -17q24 -16 24 -34q0 -9 17 -119q17 -111 36 -218q4 -21 7 -40t5.5 -32.5t4 -23.5
t2.5 -16.5t1 -7.5q16 37 103 284q86 242 87 256q1 13 19 4q27 -12 29 -47q1 -9 -2 -21q-2 -8 -106 -325q-100 -304 -102 -329q-1 -19 -13.5 -25t-27 -0.5t-22.5 16.5zM130 -172q0 13 14 43q11 20 16 40q2 5 5 13t4.5 12.5t4 9.5t4.5 6.5t5 0.5q41 -8 41 -41q0 -34 -25 -77
q-26 -44 -37 -44q-12 0 -22 12t-10 25z" />
    <glyph glyph-name="uni0146" unicode="&#x146;" horiz-adv-x="421" 
d="M337 -12q-22 0 -45 11t-35 30q-32 50 3 172l-91 -91q-49 -50 -72 -78q-30 -41 -48 -41q-13 0 -27 17q-13 17 -13 31q0 10 9 40l28 97l38 134q6 25 15.5 29t29.5 -9q36 -19 25 -45q-1 -1 -9.5 -25.5t-21.5 -61t-21 -58.5l95 94q19 19 46 36q28 19 44 19q13 0 29.5 -14
t16.5 -28q0 -5 -12 -62q-13 -53 -13 -87q0 -65 35 -65q19 0 45 15l40 26l37 22q3 2 3 -3q0 -16 -23 -44l-6 -7q-40 -43 -76 -51q-12 -3 -26 -3zM63 -158q0 13 14 43q11 20 16 40q2 5 5 13t4.5 12.5t4 9.5t4.5 6.5t5 0.5q41 -8 41 -41q0 -34 -25 -77q-26 -44 -37 -44
q-12 0 -22 12t-10 25z" />
    <glyph glyph-name="Ncaron" unicode="&#x147;" horiz-adv-x="543" 
d="M458 690q-26 0 -38 25q-5 6 -8.5 26.5t-6 45t-4.5 31.5t4.5 13t15.5 6q16 0 30 -20q6 -12 14 -73l41 24q15 10 48 29q93 54 117 50q21 0 21 -21q0 -10 -6 -27l-16 -8q-58 -28 -96 -50l-18 -10l-35 -20q-17 -8 -34 -15q-18 -6 -29 -6zM364 -47q-10 13 -49 243
q-38 233 -38 256q0 9 -16 -35q-1 -3 -2 -5q-66 -175 -129 -388q-13 -46 -15 -59q-4 -30 -35 -14q-28 15 -35 39q-2 6 -2 7q0 28 104 340q105 311 117 311q15 0 38 -17q24 -16 24 -34q0 -9 17 -119q17 -111 36 -218q4 -21 7 -40t5.5 -32.5t4 -23.5t2.5 -16.5t1 -7.5
q16 37 103 284q86 242 87 256q1 13 19 4q27 -12 29 -47q1 -9 -2 -21q-2 -8 -106 -325q-100 -304 -102 -329q-1 -19 -13.5 -25t-27 -0.5t-22.5 16.5z" />
    <glyph glyph-name="ncaron" unicode="&#x148;" horiz-adv-x="421" 
d="M290 397q-26 0 -38 25q-5 6 -8.5 26.5t-6 45t-4.5 31.5t4.5 13t15.5 6q16 0 30 -20q6 -12 14 -73l41 24q15 10 48 29q93 54 117 50q21 0 21 -21q0 -11 -6 -27l-16 -8q-58 -28 -96 -50l-18 -10l-35 -20q-17 -8 -34 -15q-18 -6 -29 -6zM337 -12q-22 0 -45 11t-35 30
q-32 50 3 172l-91 -91q-49 -50 -72 -78q-30 -41 -48 -41q-13 0 -27 17q-13 17 -13 31q0 10 9 40l28 97l38 134q6 25 15.5 29t29.5 -9q36 -19 25 -45q-1 -1 -9.5 -25.5t-21.5 -61t-21 -58.5l95 94q19 19 46 36q28 19 44 19q13 0 29.5 -14t16.5 -28q0 -5 -12 -62
q-13 -53 -13 -87q0 -65 35 -65q19 0 45 15l40 26l37 22q3 2 3 -3q0 -16 -23 -44l-6 -7q-40 -43 -76 -51q-12 -3 -26 -3z" />
    <glyph glyph-name="Omacron" unicode="&#x14c;" horiz-adv-x="448" 
d="M549 725q-86 -35 -175 -45q-110 -14 -105 42q2 12 7 24q3 14 21 11h82l158 6q25 1 31.5 -13t-19.5 -25zM209 -49q-74 0 -111.5 49.5t-37.5 136.5q0 102 43 218q43 117 114 200t139 83q62 0 108 -70q27 -37 27 -100q0 -62 -25 -143q-25 -84 -46 -136q-21 -55 -18 -60
q7 -7 7 -18q0 -31 -81 -96q-79 -64 -119 -64zM196 4q50 0 106 87q57 90 91 204q35 119 35 207q0 73 -49 73q-44 0 -121 -77q-133 -199 -133 -362q0 -56 17.5 -92.5t43.5 -38.5q2 -1 10 -1z" />
    <glyph glyph-name="omacron" unicode="&#x14d;" horiz-adv-x="293" 
d="M413 462q-86 -35 -175 -45q-110 -13 -105 42q2 12 7 24q3 14 21 11h82l158 6q25 1 31.5 -13t-19.5 -25zM110 0q-20 0 -39 10q-48 16 -48 74q0 60 38 128q0 1 12 23t19 34q42 71 65 73q11 1 26.5 -10.5t22.5 -22.5q6 -13 6 -19v-2q0 -4 12 -14q6 -5 46 -34q21 -15 21 -45
q0 -11 -1 -14q-2 -27 -24 -57q-8 -10 -11 -14l-27 -31q-70 -79 -118 -79zM93 58q21 0 79 63q59 64 59 87q0 7 -6 13l-12 3q-34 9 -48 1q-35 -20 -68 -110q-12 -31 -12 -45q0 -12 8 -12z" />
    <glyph glyph-name="Ohungarumlaut" unicode="&#x150;" horiz-adv-x="448" 
d="M304 686h-5l-3 1q-18 13 -18 27q0 6 5.5 13.5t16 21.5t18.5 32q30 66 39 69q7 3 19 -1.5t18 -15.5t6 -21q0 -46 -87 -122q-4 -4 -9 -4zM413 691h-6q-9 0 -9 13q0 19 34 68q35 56 43 64q3 3 11 3q13 0 23 -9.5t10 -23.5q0 -26 -32 -60q-6 -4 -23 -21q-13 -13 -29 -27
q-8 -7 -22 -7zM209 -49q-74 0 -111.5 49.5t-37.5 136.5q0 102 43 218q43 117 114 200t139 83q62 0 108 -70q27 -37 27 -100q0 -62 -25 -143q-25 -84 -46 -136q-21 -55 -18 -60q7 -7 7 -18q0 -31 -81 -96q-79 -64 -119 -64zM196 4q50 0 106 87q57 90 91 204q35 119 35 207
q0 73 -49 73q-44 0 -121 -77q-133 -199 -133 -362q0 -56 17.5 -92.5t43.5 -38.5q2 -1 10 -1z" />
    <glyph glyph-name="ohungarumlaut" unicode="&#x151;" horiz-adv-x="293" 
d="M168 423q-2 0 -5 1h-3q-18 14 -18 27q0 6 5.5 13.5t16 21.5t18.5 32q30 66 39 69q7 3 19 -1.5t18 -15.5q6 -10 6 -21q0 -46 -87 -122q-4 -4 -9 -4zM277 428h-6q-9 0 -9 13q0 19 34 68q35 56 43 64q3 3 11 3q13 0 23 -9.5t10 -23.5q0 -26 -32 -60q-6 -4 -23 -21
q-13 -13 -29 -27q-8 -7 -22 -7zM110 0q-20 0 -39 10q-48 16 -48 74q0 60 38 128q0 1 12 23t19 34q42 71 65 73q11 1 26.5 -10.5t22.5 -22.5q6 -13 6 -19v-2q0 -4 12 -14q6 -5 46 -34q21 -15 21 -45q0 -11 -1 -14q-2 -27 -24 -57q-8 -10 -11 -14l-27 -31q-70 -79 -118 -79z
M93 58q21 0 79 63q59 64 59 87q0 7 -6 13l-12 3q-34 9 -48 1q-35 -20 -68 -110q-12 -31 -12 -45q0 -12 8 -12z" />
    <glyph glyph-name="OE" unicode="&#x152;" horiz-adv-x="689" 
d="M797 605q16 -16 19 -32q2 -11 -9 -11l-12 5q-12 4 -29 6q-104 5 -201 -15l-32 -86q-56 -154 -58 -163q88 5 193 5q25 0 12 -16q-28 -31 -117 -53l-37 -8q-62 -12 -82 -17q-5 -15 -8 -27q-35 -116 -30 -136q4 -22 22 -37t47 -15q36 0 102 26l28 14q31 16 31 10
q-1 -28 -29 -54q-43 -38 -97 -52q-52 -14 -102 7q-51 21 -72 66q-85 -71 -127 -71q-74 0 -111.5 49.5t-37.5 136.5q0 102 43 218q43 117 114 200t139 83q58 0 101 -60q0 3 10 24q19 45 49 45q14 0 37 -15q18 10 53 13q44 7 107 -5q61 -10 84 -35zM196 4q41 0 85.5 56.5
t82.5 151.5q-30 18 -44 31q-8 7 -9 24q-1 16 7 18q5 0 18 2.5t31 6t27 5.5q-1 2 10 36q24 96 24 167q0 73 -49 73q-44 0 -121 -77q-133 -199 -133 -362q0 -56 17.5 -92.5t43.5 -38.5q2 -1 10 -1z" />
    <glyph glyph-name="oe" unicode="&#x153;" horiz-adv-x="425" 
d="M457 119q1 1 3 -3q3 -24 -22 -55l-4 -5q-60 -71 -133 -71q-57 0 -86 36q-12 13 -18 27q-1 -2 -4 -4.5t-3 -3.5q-27 -28 -49 -38t-60 -10q-57 6 -57 81q0 45 18 101q19 55 54 97q36 42 76 42q52 0 86 -52q56 56 107 56q17 0 32 -9q21 -12 25 -37q1 -4 1 -17q0 -23 -8 -47
q-14 -45 -47 -72q-42 -36 -130 -36q-1 -29 16.5 -46.5t47.5 -17.5q71 0 155 84zM135 192q28 -28 53 -37q6 8 11 19l5 12q11 30 8 57q-2 15 -7 22.5t-15 6.5q-13 -1 -29 -28q-13 -19 -26 -52zM367 268q-18 0 -52 -37q-33 -36 -56 -80q51 5 83 37q34 34 34 68q0 12 -9 12z
M98 49q20 -3 69 64q-35 14 -52 38q-24 -39 -24 -85q0 -16 7 -17z" />
    <glyph glyph-name="Racute" unicode="&#x154;" horiz-adv-x="379" 
d="M299 703q-6 0 -12 7q-7 8 -7 19q0 5 3 11q8 24 49 75q44 54 55 54q12 0 26 -14t14 -24q0 -18 -26 -40l-7 -6q-5 -5 -25 -26t-28 -28q-28 -28 -42 -28zM449 34q6 -4 -3 -15.5t-27.5 -21.5t-37.5 -10q-69 0 -124.5 61.5t-88.5 172.5q-47 -9 -74 -7l-57 -151
q-18 -74 -30 -77q-19 2 -32 16.5t-11 32.5q21 55 67 197l-3 3q-12 15 -16 31q-3 12 4 12q2 0 13.5 -0.5t15.5 -0.5q67 205 91 292q-26 -12 -26 13q0 28 22 47q7 7 13 8q53 19 125 19q44 0 101 -18q56 -16 79 -45q41 -56 41 -111q0 -48 -41 -93.5t-123 -100.5
q-26 -17 -93 -49q23 -71 72 -137q49 -64 91 -75q10 -2 12 -2q7 0 16.5 3.5t15.5 5.5t8 0zM119 282q113 11 205 79q93 71 93 157q0 31 -42 52q-40 21 -90 22t-88 -15q21 -17 -78 -295z" />
    <glyph glyph-name="racute" unicode="&#x155;" horiz-adv-x="304" 
d="M204 410q-6 0 -12 7q-7 8 -7 19q0 5 3 11q8 24 49 75q43 54 55 54t26 -14t14 -24q0 -18 -26 -40l-7 -6q-5 -5 -25 -26t-28 -28q-28 -28 -42 -28zM67 -13q-32 0 -44 7.5t-12 23.5q0 5 5 30q5 27 12 52l10 36q18 79 35 129q17 47 24 54q8 9 16 6q30 -12 37.5 -20t5.5 -23
q-4 -30 -36 -111q37 71 101 126q16 14 34 7t25 -30q15 -45 47 -73q4 -2 -1 -10t-14 -14.5t-16 -6.5q-24 0 -39 13.5t-30 47.5q-17 -11 -44 -44q-26 -30 -39 -55q-24 -45 -38 -78q-25 -67 -39 -67z" />
    <glyph glyph-name="uni0156" unicode="&#x156;" horiz-adv-x="379" 
d="M449 34q6 -4 -3 -15.5t-27.5 -21.5t-37.5 -10q-69 0 -124.5 61.5t-88.5 172.5q-47 -9 -74 -7l-57 -151q-18 -74 -30 -77q-19 2 -32 16.5t-11 32.5q21 55 67 197l-3 3q-12 15 -16 31q-3 12 4 12q2 0 13.5 -0.5t15.5 -0.5q67 205 91 292q-26 -12 -26 13q0 28 22 47
q7 7 13 8q53 19 125 19q44 0 101 -18q56 -16 79 -45q41 -56 41 -111q0 -48 -41 -93.5t-123 -100.5q-26 -17 -93 -49q23 -71 72 -137q49 -64 91 -75q10 -2 12 -2q7 0 16.5 3.5t15.5 5.5t8 0zM119 282q113 11 205 79q93 71 93 157q0 31 -42 52q-40 21 -90 22t-88 -15
q21 -17 -78 -295zM95 -54q41 -8 41 -41q0 -34 -25 -77q-26 -44 -37 -44q-12 0 -22 12t-10 25t14 43q11 20 16 40q2 5 5 13t4.5 12.5t4 9.5t4.5 6.5t5 0.5z" />
    <glyph glyph-name="uni0157" unicode="&#x157;" horiz-adv-x="304" 
d="M67 -13q-32 0 -44 7.5t-12 23.5q0 5 5 30q5 27 12 52l10 36q18 79 35 129q17 47 24 54q8 9 16 6q30 -12 37.5 -20t5.5 -23q-4 -30 -36 -111q37 71 101 126q16 14 34 7t25 -30q15 -45 47 -73q4 -2 -1 -10t-14 -14.5t-16 -6.5q-24 0 -39 13.5t-30 47.5q-17 -11 -44 -44
q-26 -30 -39 -55q-24 -45 -38 -78q-25 -67 -39 -67zM-76 -192q0 15 15 43q9 19 16 40q3 11 5.5 17t5 13.5t5.5 10t6 1.5q41 -8 41 -41q0 -34 -25 -77q-26 -44 -37 -44q-12 0 -22 12t-10 25z" />
    <glyph glyph-name="Rcaron" unicode="&#x158;" horiz-adv-x="379" 
d="M552 881q21 0 21 -21q0 -10 -6 -27l-17 -8q-91 -48 -95 -50l-18 -10l-35 -20q-17 -8 -34 -15q-18 -6 -29 -6q-25 0 -38 25q-5 6 -8.5 26.5t-6 45t-4.5 31.5t4 13t16 6q16 0 30 -20q6 -12 14 -73l41 24q15 10 48 29q93 54 117 50zM491 482q0 -48 -41 -93.5t-123 -100.5
q-26 -17 -93 -49q23 -71 72 -137q49 -64 91 -75q10 -2 12 -2q7 0 16.5 3.5t15.5 5.5t8 0q6 -4 -3 -15.5t-27.5 -21.5t-37.5 -10q-69 0 -124.5 61.5t-88.5 172.5q-47 -9 -74 -7l-57 -151q-18 -74 -30 -77q-19 2 -32 16.5t-11 32.5q21 55 67 197l-3 3q-12 15 -16 31
q-3 12 4 12q2 0 13.5 -0.5t15.5 -0.5q67 205 91 292q-26 -12 -26 13q0 28 22 47q7 7 13 8q53 19 125 19q44 0 101 -18q56 -16 79 -45q41 -56 41 -111zM119 282q113 11 205 79q93 71 93 157q0 31 -42 52q-40 21 -90 22t-88 -15q21 -17 -78 -295z" />
    <glyph glyph-name="rcaron" unicode="&#x159;" horiz-adv-x="304" 
d="M244 431q-26 0 -38 25q-5 6 -8.5 26.5t-6 45t-4.5 31.5t4.5 13t15.5 6q16 0 30 -20q6 -12 14 -73l41 24q15 10 48 29q93 54 117 50q21 0 21 -21q0 -11 -6 -27l-16 -8q-58 -28 -96 -50l-18 -10l-35 -20q-17 -8 -34 -15q-18 -6 -29 -6zM67 -13q-32 0 -44 7.5t-12 23.5
q0 5 5 30q5 27 12 52l10 36q18 79 35 129q17 47 24 54q8 9 16 6q30 -12 37.5 -20t5.5 -23q-4 -30 -36 -111q37 71 101 126q16 14 34 7t25 -30q15 -45 47 -73q4 -2 -1 -10t-14 -14.5t-16 -6.5q-24 0 -39 13.5t-30 47.5q-17 -11 -44 -44q-26 -30 -39 -55q-24 -45 -38 -78
q-25 -67 -39 -67z" />
    <glyph glyph-name="Sacute" unicode="&#x15a;" horiz-adv-x="420" 
d="M320 743q-6 0 -12 7q-7 8 -7 19q0 5 3 11q8 24 49 75q43 54 55 54t26 -14t14 -24q0 -18 -26 -40l-7 -6q-5 -5 -25 -26t-28 -28q-28 -28 -42 -28zM237 -35q-54 0 -102.5 31t-76.5 88q-22 31 -22 83q0 35 27 35q1 0 9 1t15 0t13 -5q2 -1 5.5 -12t10 -34t10.5 -36
q10 -31 34 -59.5t55 -39.5q16 -16 45.5 -2t29.5 45q0 32 -22 94q-20 61 -48 124q-24 59 -48 136q-21 74 -21 125q0 75 46 109q34 26 107 26t108 -50q34 -49 34 -119q0 -49 -15 -90q-3 -8 -15 -8q-17 0 -37 14t-15 26q5 42 5 69q0 54 -21 88q-16 25 -40 25q-19 0 -47 -19
q-12 -9 -20 -24q-8 -17 -9 -55q-2 -46 32 -137l71 -185q36 -91 36 -134q0 -17 -6 -28q-12 -38 -47 -60t-81 -22z" />
    <glyph glyph-name="sacute" unicode="&#x15b;" horiz-adv-x="240" 
d="M175 410q-6 0 -12 7q-7 8 -7 19q0 5 3 11q8 24 49 75q43 54 55 54t26 -14t14 -24q0 -18 -26 -40l-7 -6q-5 -5 -25 -26t-28 -28q-28 -28 -42 -28zM153 -34q-12 0 -16 1q-31 0 -81 47q-49 48 -49 73q0 11 16 20q6 3 11 3q10 0 38 -40t44 -47q9 6 -26 107q-22 60 -22 103
q0 90 79 100q41 4 69 -25t28 -73q0 -48 -27 -48q-14 0 -27 13q-8 8 -8 16q0 1 2 12t2 16q0 8 -3 18q-7 21 -22 21q-33 0 -20 -79q7 -35 24 -94q19 -92 19 -105q0 -22 -7 -30.5t-24 -8.5z" />
    <glyph glyph-name="Scedilla" unicode="&#x15e;" horiz-adv-x="420" 
d="M446 505q0 -49 -15 -90q-3 -8 -15 -8q-17 0 -37 14t-15 26q5 42 5 69q0 54 -21 88q-16 25 -40 25q-19 0 -47 -19q-12 -9 -20 -24q-8 -17 -9 -55q-2 -46 32 -137l71 -185q36 -91 36 -134q0 -17 -6 -28q-12 -38 -47 -60t-81 -22q-10 0 -13 1q-2 -2 -7 -15q36 -11 36 -43
q0 -36 -37 -76q-36 -41 -70 -41q-13 0 -23 7q-19 19 -19 34q0 9 6.5 15t15.5 6l2 -7q1 -6 4.5 -12.5t10.5 -6.5q16 0 47 31q20 20 20 42q0 12 -7 12q-5 0 -13 -9q-6 -19 -13 -23q-5 -3 -9 -3q-14 0 -19 15q-5 14 27 84q-77 27 -118 108q-22 31 -22 83q0 35 27 35q1 0 9 1
t15 0t13 -5q2 -1 5.5 -12t10 -34t10.5 -36q10 -31 34 -59.5t55 -39.5q16 -16 45.5 -2t29.5 45q0 32 -22 94q-20 61 -48 124q-24 59 -48 136q-21 74 -21 125q0 75 46 109q34 26 107 26t108 -50q34 -49 34 -119z" />
    <glyph glyph-name="scedilla" unicode="&#x15f;" horiz-adv-x="240" 
d="M147 333q41 4 69 -25t28 -73q0 -48 -27 -48q-14 0 -27 13q-8 8 -8 16q0 1 2 12t2 16q0 8 -3 18q-7 21 -22 21q-33 0 -20 -79q7 -35 24 -94q19 -92 19 -105q0 -22 -7 -30.5t-24 -8.5q-12 0 -16 1q-20 0 -51 22q-1 -2 -2 -5l-2 -4v-1q36 -11 36 -43q0 -36 -37 -76
q-36 -41 -70 -41q-13 0 -23 7q-19 19 -19 34q0 9 6.5 15t15.5 6l1 -7q2 -6 5.5 -12.5t10.5 -6.5q16 0 47 31q20 20 20 42q0 12 -7 12q-6 0 -13 -9q-6 -19 -13 -23q-4 -3 -9 -3q-15 0 -19 15q-7 21 36 100q-43 43 -43 67q0 11 16 20q6 3 11 3q10 0 38 -40t44 -47q9 6 -26 107
q-22 60 -22 103q0 90 79 100z" />
    <glyph glyph-name="Scaron" unicode="&#x160;" horiz-adv-x="420" 
d="M360 764q-26 0 -38 25q-5 6 -8.5 26.5t-6 45t-4.5 31.5t4.5 13t15.5 6q16 0 30 -20q6 -12 14 -73l41 24q15 10 48 29q93 54 117 50q21 0 21 -21q0 -10 -6 -27l-16 -8q-58 -28 -96 -50l-18 -10l-35 -20q-17 -8 -34 -15q-18 -6 -29 -6zM237 -35q-54 0 -102.5 31t-76.5 88
q-22 31 -22 83q0 35 27 35q1 0 9 1t15 0t13 -5q2 -1 5.5 -12t10 -34t10.5 -36q10 -31 34 -59.5t55 -39.5q16 -16 45.5 -2t29.5 45q0 32 -22 94q-20 61 -48 124q-24 59 -48 136q-21 74 -21 125q0 75 46 109q34 26 107 26t108 -50q34 -49 34 -119q0 -49 -15 -90q-3 -8 -15 -8
q-17 0 -37 14t-15 26q5 42 5 69q0 54 -21 88q-16 25 -40 25q-19 0 -47 -19q-12 -9 -20 -24q-8 -17 -9 -55q-2 -46 32 -137l71 -185q36 -91 36 -134q0 -17 -6 -28q-12 -38 -47 -60t-81 -22z" />
    <glyph glyph-name="scaron" unicode="&#x161;" horiz-adv-x="240" 
d="M215 431q-25 0 -38 25q-5 6 -8.5 26.5t-6 45t-4.5 31.5t4 13t16 6q16 0 30 -20q6 -12 14 -73l41 24q15 10 48 29q93 54 117 50q21 0 21 -21q0 -11 -6 -27l-17 -8q-91 -48 -95 -50l-18 -10l-35 -20q-17 -8 -34 -15q-18 -6 -29 -6zM153 -34q-12 0 -16 1q-31 0 -81 47
q-49 48 -49 73q0 11 16 20q6 3 11 3q10 0 38 -40t44 -47q9 6 -26 107q-22 60 -22 103q0 90 79 100q41 4 69 -25t28 -73q0 -48 -27 -48q-14 0 -27 13q-8 8 -8 16q0 1 2 12t2 16q0 8 -3 18q-7 21 -22 21q-33 0 -20 -79q7 -35 24 -94q19 -92 19 -105q0 -22 -7 -30.5t-24 -8.5z
" />
    <glyph glyph-name="uni0162" unicode="&#x162;" horiz-adv-x="399" 
d="M563 639q73 -7 92 -22q13 -10 -34 -15h-3l-199 -22q-28 -63 -58 -153q-117 -355 -135 -450q-1 -7 -10 -11l-7 -14q36 -10 36 -43q0 -36 -37 -76q-36 -41 -70 -41q-13 0 -23 7q-19 19 -19 34q0 9 6.5 15t15.5 6l2 -6q1 -7 4.5 -13.5t10.5 -6.5q16 0 47 31q20 20 20 42
q0 12 -7 12q-5 0 -13 -9q-6 -19 -13 -23q-5 -3 -9 -3q-14 0 -19 15q-6 19 33 95q-4 6 -3 12q23 131 79 295l12 41l24 78l27 86q16 50 24 71q-58 -6 -211 -25q-14 -2 -19.5 14t-1 34t15.5 23q37 18 195 26q151 7 247 -4z" />
    <glyph glyph-name="uni0163" unicode="&#x163;" horiz-adv-x="231" 
d="M291 303q23 0 0 -20q-31 -30 -77 -39q-1 -1 -3 -1l-40 -6l-41 -7q-15 -27 -43 -119q-4 -22 -9 -44t-6 -31l-2 -8q-1 -5 0 -16l2 -11v-1q0 -8 -1 -11q-6 -8 -16 -32q36 -11 36 -43q0 -36 -37 -76q-36 -41 -70 -41q-13 0 -23 7q-19 19 -19 34q0 9 6.5 15t15.5 6l2 -7
q1 -6 4.5 -12.5t10.5 -6.5q16 0 47 31q20 20 20 42q0 12 -7 12q-5 0 -13 -9q-6 -19 -13 -23q-5 -3 -9 -3q-14 0 -19 15q-6 16 36 102q-4 4 -9 13q-7 9 -5 36q4 74 46 179q-2 1 -13 0l-11 -1q-22 0 -22 24q0 23 9 29q4 3 12 4.5t22 3.5t25 4l34 85l45 106q26 66 39 72
q8 2 9 2q17 0 32 -16q15 -17 11 -27l-5 -12q-5 -13 -19 -46t-29 -67q-13 -28 -39 -94q8 0 30 2t27 2q8 0 38.5 2t40.5 2z" />
    <glyph glyph-name="Tcaron" unicode="&#x164;" horiz-adv-x="399" 
d="M386 736q-5 6 -8.5 26.5t-6 45t-4.5 31.5t4.5 13t15.5 6q16 0 30 -20q6 -12 14 -73l41 24q15 10 48 29q93 54 117 50q21 0 21 -21q0 -11 -6 -27l-16 -8q-58 -28 -96 -50l-18 -10l-35 -20q-17 -8 -34 -15q-18 -6 -29 -6q-26 0 -38 25zM563 639q73 -7 92 -22
q13 -10 -34 -15h-3l-199 -22q-28 -63 -58 -153q-117 -355 -135 -450q-4 -19 -30 -8q-25 10 -25 29v2q23 131 79 295l12 41l24 78l27 86q16 50 24 71q-58 -6 -211 -25q-14 -2 -19.5 14t-1 34t15.5 23q37 18 195 26q151 7 247 -4z" />
    <glyph glyph-name="tcaron" unicode="&#x165;" horiz-adv-x="231" 
d="M48 -12q-23 2 -34 25q-7 9 -5 36q4 74 46 179q-2 1 -13 0l-11 -1q-22 0 -22 24q0 23 9 29q4 3 12 4.5t22 3.5t25 4l34 85l45 106q26 66 39 72q8 2 9 2q17 0 32 -16q15 -17 11 -27l-5 -12q-5 -13 -19 -46t-29 -67q-13 -28 -39 -94q8 0 30 2t27 2q8 0 38.5 2t40.5 2
q23 0 0 -20q-31 -30 -77 -39q-1 -1 -3 -1l-40 -6l-41 -7q-15 -27 -43 -119q-4 -22 -9 -44t-6 -31l-2 -8q-1 -5 0 -16l2 -11q-3 -15 -24 -13zM268 407q0 13 14 43q10 18 16 39q1 4 3.5 10t3.5 10t3 8.5t3 7t3 4.5t3.5 3t3.5 0q41 -8 41 -41q0 -34 -25 -77q-26 -44 -37 -44
q-12 0 -22 12t-10 25z" />
    <glyph glyph-name="Tbar" unicode="&#x166;" horiz-adv-x="399" 
d="M563 639q73 -7 92 -22q13 -10 -34 -15h-3l-199 -22q-28 -63 -58 -153l-15 -46q80 -9 78 -28q-2 -20 -96 -26q-84 -256 -102 -350q-4 -19 -30 -8q-25 10 -25 29v2q23 131 79 295l2 5q1 6 3.5 13.5t3.5 12.5l-31 1q-9 5 -9 25q-5 35 28 35q20 0 31 -1q42 140 59 185
q-58 -6 -211 -25q-14 -2 -19.5 14t-1 34t15.5 23q37 18 195 26q151 7 247 -4z" />
    <glyph glyph-name="tbar" unicode="&#x167;" horiz-adv-x="231" 
d="M291 303q23 0 0 -20q-31 -30 -77 -39q-1 -1 -3 -1l-40 -6l-41 -7q-4 -7 -16 -38q19 -2 35.5 -5t30.5 -6.5t21 -8.5t5 -11q-6 -20 -111 -25l-8 -25q-4 -22 -9 -44t-6 -31l-2 -8q-1 -5 0 -16l2 -11q-3 -15 -24 -13q-23 2 -34 25q-7 9 -5 36q5 45 16 86l-15 1q-9 4 -9 25
q-5 35 28 35h14q6 18 12 32q-2 1 -13 0l-11 -1q-22 0 -22 24q0 23 9 29q4 3 12 4.5t22 3.5t25 4l34 85l45 106q26 66 39 72q8 2 9 2q17 0 32 -16q15 -17 11 -27l-5 -12q-5 -13 -19 -46t-29 -67q-13 -28 -39 -94q8 0 30 2t27 2q8 0 38.5 2t40.5 2z" />
    <glyph glyph-name="Umacron" unicode="&#x16a;" horiz-adv-x="529" 
d="M555 733q-86 -35 -175 -45q-110 -14 -105 42q2 12 7 24q3 14 21 11h82l158 6q25 1 31.5 -13t-19.5 -25zM468 -40q-33 4 -45 15q-18 13 -33 39q-26 54 -26 183l-26 -36l-26 -36q-41 -54 -50 -65q-28 -35 -48 -51q-42 -34 -74 -39q-9 -3 -19 -3q-29 0 -56 19t-34 45
q-7 20 -7 47q0 51 42 183t96 247t82 115q15 0 30.5 -12.5t15.5 -26.5q0 -12 -19 -38q-70 -99 -122 -252q-53 -156 -53 -233q0 -43 24 -43q28 0 104 99q72 94 134 198q10 13 24 42l30 62q5 9 9.5 19.5t7 16t3.5 7.5q13 32 25.5 46.5t29.5 14.5q14 0 33 -11q15 -10 15 -19
q0 -8 -15 -23q-12 -14 -20 -31q-68 -168 -68 -307q0 -21 3 -45t8 -45.5t13.5 -34t19.5 -8.5h5q13 0 22 -15l2 -6q0 -6 -5 -11q-7 -7 -32 -7z" />
    <glyph glyph-name="umacron" unicode="&#x16b;" horiz-adv-x="423" 
d="M447 474q-86 -35 -175 -45q-110 -13 -105 42q2 12 7 24q3 14 21 11h82l158 6q25 1 31.5 -13t-19.5 -25zM67 -30q-87 15 -43 176q18 65 38 121q26 71 40 77q15 5 37 -14q24 -20 24 -41q0 -10 -7 -23q-36 -67 -65 -138q-26 -82 -17 -86h4q1 0 18 18q32 39 94 106l24 31
q17 22 34 41q2 2 14 20.5t24 32t18 12.5q11 1 24.5 -8t19.5 -20q5 -8 6 -13.5t0 -9t-3.5 -11.5t-4.5 -15q-22 -61 -33 -113q-14 -71 14 -71q38 0 111 42l29 16q7 3 7 -1q-1 -16 -41 -57q-48 -50 -87 -54q-48 -4 -77 37t-12 124q-21 -24 -62 -72q-93 -111 -128 -107z" />
    <glyph glyph-name="Uring" unicode="&#x16e;" horiz-adv-x="529" 
d="M425 676q-37 0 -67 34t-30 75q0 42 34 72q23 23 44 23q20 0 35 -19.5t15 -39.5q0 -11 -6 -14q-2 -2 -4 -2t-5.5 1.5t-4.5 1.5q-6 0 -19 -7q-34 -24 -34 -45q0 -23 30 -23q33 0 64 31q29 26 29 48q0 16 -21 38q-1 6 4 7q23 6 48 -21q26 -26 26 -60q0 -74 -123 -98
q-14 -2 -15 -2zM468 -40q-33 4 -45 15q-18 13 -33 39q-26 54 -26 183l-26 -36l-26 -36q-41 -54 -50 -65q-28 -35 -48 -51q-42 -34 -74 -39q-9 -3 -19 -3q-29 0 -56 19t-34 45q-7 20 -7 47q0 51 42 183t96 247t82 115q15 0 30.5 -12.5t15.5 -26.5q0 -12 -19 -38
q-70 -99 -122 -252q-53 -156 -53 -233q0 -43 24 -43q28 0 104 99q72 94 134 198q10 13 24 42l30 62q5 9 9.5 19.5t7 16t3.5 7.5q13 32 25.5 46.5t29.5 14.5q14 0 33 -11q15 -10 15 -19q0 -8 -15 -23q-12 -14 -20 -31q-68 -168 -68 -307q0 -21 3 -45t8 -45.5t13.5 -34
t19.5 -8.5h5q13 0 22 -15l2 -6q0 -6 -5 -11q-7 -7 -32 -7z" />
    <glyph glyph-name="uring" unicode="&#x16f;" horiz-adv-x="423" 
d="M317 417q-37 0 -67 34q-30 35 -30 75q0 42 34 72q23 23 44 23q20 0 35 -19.5t15 -39.5q0 -11 -6 -14q-2 -2 -4 -2t-5.5 1.5t-4.5 1.5q-6 0 -19 -7q-34 -24 -34 -45q0 -23 30 -23q33 0 64 31q29 26 29 48q0 15 -21 38q-1 6 4 7q23 6 48 -21q26 -26 26 -60q0 -74 -123 -98
q-14 -2 -15 -2zM67 -30q-87 15 -43 176q18 65 38 121q26 71 40 77q15 5 37 -14q24 -20 24 -41q0 -10 -7 -23q-36 -67 -65 -138q-26 -82 -17 -86h4q1 0 18 18q32 39 94 106l24 31q17 22 34 41q2 2 14 20.5t24 32t18 12.5q11 1 24.5 -8t19.5 -20q5 -8 6 -13.5t0 -9t-3.5 -11.5
t-4.5 -15q-22 -61 -33 -113q-14 -71 14 -71q38 0 111 42l29 16q7 3 7 -1q-1 -16 -41 -57q-48 -50 -87 -54q-48 -4 -77 37t-12 124q-21 -24 -62 -72q-93 -111 -128 -107z" />
    <glyph glyph-name="Uhungarumlaut" unicode="&#x170;" horiz-adv-x="529" 
d="M310 694h-5l-3 1q-18 13 -18 27q0 6 5.5 13.5t16 21.5t18.5 32q30 66 39 69q7 3 19 -1.5t18 -15.5t6 -21q0 -46 -87 -122q-4 -4 -9 -4zM419 699h-6q-9 0 -9 13q0 19 34 68q35 56 43 64q3 3 11 3q13 0 23 -9.5t10 -23.5q0 -26 -32 -60q-6 -4 -23 -21q-13 -13 -29 -27
q-8 -7 -22 -7zM468 -40q-33 4 -45 15q-18 13 -33 39q-26 54 -26 183l-26 -36l-26 -36q-41 -54 -50 -65q-28 -35 -48 -51q-42 -34 -74 -39q-9 -3 -19 -3q-29 0 -56 19t-34 45q-7 20 -7 47q0 51 42 183t96 247t82 115q15 0 30.5 -12.5t15.5 -26.5q0 -12 -19 -38
q-70 -99 -122 -252q-53 -156 -53 -233q0 -43 24 -43q28 0 104 99q72 94 134 198q10 13 24 42l30 62q5 9 9.5 19.5t7 16t3.5 7.5q13 32 25.5 46.5t29.5 14.5q14 0 33 -11q15 -10 15 -19q0 -8 -15 -23q-12 -14 -20 -31q-68 -168 -68 -307q0 -21 3 -45t8 -45.5t13.5 -34
t19.5 -8.5h5q13 0 22 -15l2 -6q0 -6 -5 -11q-7 -7 -32 -7z" />
    <glyph glyph-name="uhungarumlaut" unicode="&#x171;" horiz-adv-x="423" 
d="M202 435q-2 0 -5 1h-3q-18 14 -18 27q0 6 5.5 13.5t16 21.5t18.5 32q30 66 39 69q7 3 19 -1.5t18 -15.5q6 -10 6 -21q0 -45 -87 -122q-4 -4 -9 -4zM311 440h-6q-9 0 -9 13q0 19 34 68q35 56 43 64q3 3 11 3q13 0 23 -9.5t10 -23.5q0 -26 -32 -60q-6 -4 -23 -21
q-13 -13 -29 -27q-8 -7 -22 -7zM67 -30q-87 15 -43 176q18 65 38 121q26 71 40 77q15 5 37 -14q24 -20 24 -41q0 -10 -7 -23q-36 -67 -65 -138q-26 -82 -17 -86h4q1 0 18 18q32 39 94 106l24 31q17 22 34 41q2 2 14 20.5t24 32t18 12.5q11 1 24.5 -8t19.5 -20q5 -8 6 -13.5
t0 -9t-3.5 -11.5t-4.5 -15q-22 -61 -33 -113q-14 -71 14 -71q38 0 111 42l29 16q7 3 7 -1q-1 -16 -41 -57q-48 -50 -87 -54q-48 -4 -77 37t-12 124q-21 -24 -62 -72q-93 -111 -128 -107z" />
    <glyph glyph-name="Uogonek" unicode="&#x172;" horiz-adv-x="529" 
d="M520 470q-12 -14 -20 -31q-68 -168 -68 -307q0 -21 3 -45t8 -45.5t13.5 -34t19.5 -8.5h5q13 0 22 -15l2 -6q0 -6 -5 -11q-7 -7 -32 -7l-26 4q-40 -26 -69 -67q-29 -44 -29 -70q0 -20 19 -20q12 0 38 12q7 3 12 3q8 0 8 -8q0 -13 -16 -26t-37 -13q-14 0 -29 6
q-41 17 -41 55q0 28 23 68q23 39 45 62l23 25q5 5 11 8q-3 3 -10 15q-26 54 -26 183l-26 -36l-26 -36q-41 -54 -50 -65q-28 -35 -48 -51q-42 -34 -74 -39q-9 -3 -19 -3q-29 0 -56 19t-34 45q-7 20 -7 47q0 51 42 183t96 247t82 115q15 0 30.5 -12.5t15.5 -26.5
q0 -12 -19 -38q-70 -99 -122 -252q-53 -156 -53 -233q0 -43 24 -43q28 0 104 99q72 94 134 198q10 13 24 42l30 62q5 9 9.5 19.5t7 16t3.5 7.5q13 32 25.5 46.5t29.5 14.5q14 0 33 -11q15 -10 15 -19q0 -8 -15 -23z" />
    <glyph glyph-name="uogonek" unicode="&#x173;" horiz-adv-x="423" 
d="M438 84l29 16q7 3 7 -1q-1 -16 -41 -57q-48 -50 -87 -54q-4 -1 -26 1q-40 -27 -67 -67q-29 -43 -29 -69q0 -20 19 -20q12 0 38 12q7 3 12 3q8 0 8 -8q0 -13 -16 -26t-37 -13q-14 0 -29 6q-41 17 -41 55q0 30 22 68q22 36 46 62l23 25l4 3q-33 44 -16 129q-21 -24 -62 -72
q-93 -111 -128 -107q-87 15 -43 176q18 65 38 121q26 71 40 77q15 5 37 -14q24 -20 24 -41q0 -10 -7 -23q-36 -67 -65 -138q-26 -82 -17 -86h4q1 0 18 18q32 39 94 106l24 31q17 22 34 41q2 2 14 20.5t24 32t18 12.5q11 1 24.5 -8t19.5 -20q5 -8 6 -13.5t0 -9t-3.5 -11.5
t-4.5 -15q-22 -61 -33 -113q-14 -71 14 -71q38 0 111 42z" />
    <glyph glyph-name="Wcircumflex" unicode="&#x174;" horiz-adv-x="639" 
d="M354 685q-26 0 -23 37q1 7 130 88q110 71 124 62q21 -14 21 -42q0 -11 -4 -31l-5 -20q-6 -42 -7 -62q-1 -17 -7 -17q-7 0 -10 -1q-35 0 -35 46q0 12 6 51l-76 -50l-15 -11l-39 -26q-39 -24 -60 -24zM82 -29q-24 0 -40 15q-40 37 -40 115q0 92 64 266q40 108 78 185l17 36
l21 42q23 45 49 69q5 5 13 5q18 0 38 -24q19 -24 13 -35q-53 -75 -97 -163q-33 -71 -80 -206q-43 -122 -38 -183q0 -38 19 -38q10 0 46 44q38 47 56 78q9 13 67 118l57 104q13 15 37 9q23 -4 47 -23q23 -18 18 -30q-8 -17 -14 -41q-3 -13 -7 -41q0 -4 -0.5 -23t-0.5 -23v-28
v-28q0 -33 3 -66q0 -17 7 -36t22 -19q16 -1 42 30.5t61 96.5q93 159 97 294q3 75 -24 139q-11 27 -11 31q0 12 21 15q39 6 67 -58q25 -54 25 -116q0 -45 -17 -108q-16 -60 -33 -103l-52 -122q-15 -32 -66 -98q-31 -45 -82 -58q-11 -3 -21 -3q-32 0 -57 23t-38 60
q-20 60 -20 176q-33 -70 -83 -140q-54 -74 -92 -109q-40 -29 -72 -29z" />
    <glyph glyph-name="wcircumflex" unicode="&#x175;" horiz-adv-x="516" 
d="M217 426q-26 0 -23 37q1 7 130 88q110 71 124 62q21 -13 21 -42q0 -11 -5 -31l-4 -20q-6 -42 -7 -62q-1 -17 -7 -17q-7 0 -10 -1q-35 0 -35 46q0 12 6 51l-76 -50l-15 -11l-39 -26q-39 -24 -60 -24zM86 -10q-56 11 -56 82q0 58 31 136q19 52 80 149q4 7 15 7
q12 0 29 -10.5t23 -18.5q3 -5 -9 -28q-3 -7 -28 -52q-3 -6 -7.5 -13.5t-7 -11.5t-4.5 -8.5t-3 -6.5q-25 -60 -42 -108t-6 -48q8 0 44 48q6 9 17.5 23t14.5 18q9 11 20 26t17.5 23.5t7.5 9.5q2 2 16 25q28 46 47 50q22 4 38 -20q16 -25 12 -46q-19 -4 -19 -71
q0 -28 4.5 -52.5t11.5 -27.5q15 -5 36 27q33 51 52 115q10 36 10 71q0 22 -6 37q-3 7 -3 12q0 6 6 6q16 0 34 -24q25 -28 25 -83q0 -3 -2 -33q-8 -53 -54 -123t-92 -70q-36 0 -61 46q-17 33 -16 101q-4 -5 -27.5 -37.5t-24.5 -34.5l-15 -20q-14 -20 -33 -39q-25 -25 -75 -26
z" />
    <glyph glyph-name="Ycircumflex" unicode="&#x176;" horiz-adv-x="468" 
d="M260 685q-26 0 -23 37q1 7 130 88q110 71 124 62q21 -14 21 -42q0 -11 -4 -31l-5 -20q-6 -42 -7 -62q-1 -17 -7 -17q-7 0 -10 -1q-35 0 -35 46q0 12 6 51l-76 -50l-15 -11l-39 -26q-39 -24 -60 -24zM344 -212q-46 5 -63 35q-20 38 -20 73q2 61 7 88l9 41l9 38l7 29
q12 45 25 90q17 55 31 111q-41 -53 -110 -112q-67 -56 -96 -56q-34 -1 -54 32q-19 32 -19 70q0 52 21 118l25 65l22 55q12 30 17 39q11 22 27 51l22 42q12 25 38 -4q25 -27 22 -51l-3 -9q-31 -45 -74 -155q-26 -64 -42 -124q-1 -4 -4 -14.5t-4 -17t-2 -14.5t1 -12t7 -4
q29 0 155 158q128 159 156 222q10 22 18 32t21.5 9t30.5 -20q19 -24 5 -55q-3 -9 -15 -32l-11 -23q-22 -50 -46 -126q-71 -219 -97 -321q-24 -94 -24 -177q0 -31 21 -51q12 -11 9 -16t-22 -4z" />
    <glyph glyph-name="ycircumflex" unicode="&#x177;" horiz-adv-x="411" 
d="M142 426q-26 0 -23 37q1 7 130 88q110 71 124 62q21 -13 21 -42q0 -11 -4 -31l-5 -20q-6 -42 -7 -62q-1 -17 -7 -17q-7 0 -10 -1q-35 0 -35 46q0 12 6 51l-76 -50l-15 -11l-39 -26q-39 -24 -60 -24zM94 -394q-29 -3 -53.5 18t-29.5 51l-1 5v7q0 7 2 17q8 14 12 14t17 -18
l16 -19q7 -7 19 -5q12 3 47 59q19 35 66 132q15 32 55 135q7 15 32 98q23 75 26 106q-47 -62 -143 -143q-49 -42 -72 -42q-29 0 -45.5 23.5t-16.5 62.5q0 22 6 46q32 134 59 140q12 3 37 -16q19 -15 19 -23q0 -4 -3 -10q-16 -33 -27 -61q-20 -49 -20 -76q0 -24 151 127l4 4
l22 24q29 34 53 49q10 6 24 6q19 0 33 -11.5t13 -29.5q0 -7 -10.5 -36t-12.5 -43q-11 -66 -58 -199q-45 -134 -113 -265q-64 -127 -108 -127z" />
    <glyph glyph-name="Ydieresis" unicode="&#x178;" horiz-adv-x="468" 
d="M324 660q-8 0 -15 7q-12 18 -12 42q0 16 5 34.5t11.5 29.5t10.5 10q45 -7 45 -52q0 -26 -14.5 -48.5t-30.5 -22.5zM457 654q-14 0 -22 21.5t-8 50.5q0 50 21 57q7 -1 16 -6q12 -4 27.5 -18t15.5 -28q0 -7 -1 -9q-26 -68 -49 -68zM344 -212q-46 5 -63 35q-20 38 -20 73
q2 61 7 88l9 41l9 38l7 29q12 45 25 90q17 55 31 111q-41 -53 -110 -112q-67 -56 -96 -56q-34 -1 -54 32q-19 32 -19 70q0 52 21 118l25 65l22 55q12 30 17 39q11 22 27 51l22 42q12 25 38 -4q25 -27 22 -51l-3 -9q-31 -45 -74 -155q-26 -64 -42 -124q-1 -4 -4 -14.5t-4 -17
t-2 -14.5t1 -12t7 -4q29 0 155 158q128 159 156 222q10 22 18 32t21.5 9t30.5 -20q19 -24 5 -55q-3 -9 -15 -32l-11 -23q-22 -50 -46 -126q-71 -219 -97 -321q-24 -94 -24 -177q0 -31 21 -51q12 -11 9 -16t-22 -4z" />
    <glyph glyph-name="Zacute" unicode="&#x179;" horiz-adv-x="438" 
d="M411 708q-6 0 -12 7q-7 8 -7 19q0 5 3 11q8 24 49 75q44 54 55 54q12 0 26 -14t14 -24q0 -18 -26 -40l-7 -6q-5 -5 -25 -26t-28 -28q-28 -28 -42 -28zM120 -60q-30 0 -54 10q-46 22 -46 70q0 45 42 112q41 64 105 134q63 68 126 129q65 63 114 114q49 49 61 71
q-13 4 -34 4q-99 0 -223 -97q-20 -16 -40 -43q-21 -28 -33 -40q-14 -12 -25 -12q-10 1 -20 23q-10 21 -8 33q5 35 65 86q59 50 112 73q2 1 18.5 8.5t20.5 8.5q2 1 11.5 5t18.5 7.5t14 4.5q52 20 95 20q34 0 56 -13q30 -19 40 -63q4 -13 4 -27q0 -23 -33 -50
q-45 -35 -113 -109l-248 -278q-47 -53 -47 -77q0 -23 37 -23q4 0 22 2q101 15 293 110q43 22 40 5q-4 -22 -64 -71q-20 -16 -30 -23q-59 -41 -101.5 -61t-96.5 -32q-58 -11 -79 -11z" />
    <glyph glyph-name="zacute" unicode="&#x17a;" horiz-adv-x="328" 
d="M236 429q-6 0 -12 7q-7 8 -7 19q0 5 3 11q8 24 49 75q43 54 55 54t26 -14t14 -24q0 -18 -26 -40l-7 -6q-5 -5 -25 -26t-28 -28q-28 -28 -42 -28zM60 0q-19 0 -28 4q-14 6 -23 23.5t-9 34.5q0 11 14.5 27t33.5 29l41 28l29 20q136 103 136 130q-3 2 -12 0q-23 0 -90 -45
q-14 -9 -39 -29q-41 -31 -51 -31q-3 0 -18 12q-22 16 -22 32q0 36 118 97q63 33 107 33q25 0 46 -19.5t21 -44.5q0 -4 0.5 -13.5t0 -13t-1.5 -11.5t-4 -13.5t-8 -13t-13 -16.5q-29 -30 -84 -74q-55 -43 -115 -77q55 12 136 12q39 0 71 -7q39 -7 50 -37q2 -7 2 -10.5t-4 -2.5
q-42 5 -59 5q-22 0 -60 -5l-48 -6q-15 -2 -53 -10q-45 -8 -64 -8z" />
    <glyph glyph-name="Zdotaccent" unicode="&#x17b;" horiz-adv-x="438" 
d="M449 716q-10 0 -18 14q-6 10 -6 37q0 21 11 51q12 29 31 29q14 0 31 -17q9 -9 9 -30q0 -20 -20 -52t-38 -32zM120 -60q-30 0 -54 10q-46 22 -46 70q0 45 42 112q41 64 105 134q63 68 126 129q65 63 114 114q49 49 61 71q-13 4 -34 4q-99 0 -223 -97q-20 -16 -40 -43
q-21 -28 -33 -40q-14 -12 -25 -12q-10 1 -20 23q-10 21 -8 33q5 35 65 86q59 50 112 73q2 1 18.5 8.5t20.5 8.5q2 1 11.5 5t18.5 7.5t14 4.5q52 20 95 20q34 0 56 -13q30 -19 40 -63q4 -13 4 -27q0 -23 -33 -50q-45 -35 -113 -109l-248 -278q-47 -53 -47 -77q0 -23 37 -23
q4 0 22 2q101 15 293 110q43 22 40 5q-4 -22 -64 -71q-20 -16 -30 -23q-59 -41 -101.5 -61t-96.5 -32q-58 -11 -79 -11z" />
    <glyph glyph-name="zdotaccent" unicode="&#x17c;" horiz-adv-x="328" 
d="M274 437q-10 0 -18 14q-6 11 -6 37q0 21 11 51q12 29 31 29q14 0 31 -17q9 -9 9 -30q0 -20 -20 -52t-38 -32zM60 0q-19 0 -28 4q-14 6 -23 23.5t-9 34.5q0 11 14.5 27t33.5 29l41 28l29 20q136 103 136 130q-3 2 -12 0q-23 0 -90 -45q-14 -9 -39 -29q-41 -31 -51 -31
q-3 0 -18 12q-22 16 -22 32q0 36 118 97q63 33 107 33q25 0 46 -19.5t21 -44.5q0 -4 0.5 -13.5t0 -13t-1.5 -11.5t-4 -13.5t-8 -13t-13 -16.5q-29 -30 -84 -74q-55 -43 -115 -77q55 12 136 12q39 0 71 -7q39 -7 50 -37q2 -7 2 -10.5t-4 -2.5q-42 5 -59 5q-22 0 -60 -5
l-48 -6q-15 -2 -53 -10q-45 -8 -64 -8z" />
    <glyph glyph-name="Zcaron" unicode="&#x17d;" horiz-adv-x="438" 
d="M451 729q-25 0 -38 25q-5 6 -8.5 26.5t-6 45t-4.5 31.5t4 13t16 6q16 0 30 -20q6 -12 14 -73l41 24q15 10 48 29q93 54 117 50q21 0 21 -21q0 -11 -6 -27l-17 -8q-91 -48 -95 -50l-18 -10l-35 -20q-17 -8 -34 -15q-18 -6 -29 -6zM120 -60q-30 0 -54 10q-46 22 -46 70
q0 45 42 112q41 64 105 134q63 68 126 129q65 63 114 114q49 49 61 71q-13 4 -34 4q-99 0 -223 -97q-20 -16 -40 -43q-21 -28 -33 -40q-14 -12 -25 -12q-10 1 -20 23q-10 21 -8 33q5 35 65 86q59 50 112 73q2 1 18.5 8.5t20.5 8.5q2 1 11.5 5t18.5 7.5t14 4.5q52 20 95 20
q34 0 56 -13q30 -19 40 -63q4 -13 4 -27q0 -23 -33 -50q-45 -35 -113 -109l-248 -278q-47 -53 -47 -77q0 -23 37 -23q4 0 22 2q101 15 293 110q43 22 40 5q-4 -22 -64 -71q-20 -16 -30 -23q-59 -41 -101.5 -61t-96.5 -32q-58 -11 -79 -11z" />
    <glyph glyph-name="zcaron" unicode="&#x17e;" horiz-adv-x="328" 
d="M276 450q-26 0 -38 25q-5 6 -8.5 26.5t-6 45t-4.5 31.5t4.5 13t15.5 6q16 0 30 -20q6 -12 14 -73l41 24q15 10 48 29q93 54 117 50q21 0 21 -21q0 -10 -6 -27l-16 -8q-58 -28 -96 -50l-18 -10l-35 -20q-17 -8 -34 -15q-18 -6 -29 -6zM60 0q-19 0 -28 4q-14 6 -23 23.5
t-9 34.5q0 11 14.5 27t33.5 29l41 28l29 20q136 103 136 130q-3 2 -12 0q-23 0 -90 -45q-14 -9 -39 -29q-41 -31 -51 -31q-3 0 -18 12q-22 16 -22 32q0 36 118 97q63 33 107 33q25 0 46 -19.5t21 -44.5q0 -4 0.5 -13.5t0 -13t-1.5 -11.5t-4 -13.5t-8 -13t-13 -16.5
q-29 -30 -84 -74q-55 -43 -115 -77q55 12 136 12q39 0 71 -7q39 -7 50 -37q2 -7 2 -10.5t-4 -2.5q-42 5 -59 5q-22 0 -60 -5l-48 -6q-15 -2 -53 -10q-45 -8 -64 -8z" />
    <glyph glyph-name="uni01B5" unicode="&#x1b5;" horiz-adv-x="438" 
d="M536 585q4 -13 4 -27q0 -23 -33 -50q-45 -35 -113 -109l-78 -87q22 -5 32 -10.5t8 -12.5q-4 -18 -82 -24l-128 -144q-47 -53 -47 -77q0 -23 37 -23q4 0 22 2q101 15 293 110q43 22 40 5q-4 -22 -64 -71q-20 -16 -30 -23q-59 -41 -101.5 -61t-96.5 -32q-58 -11 -79 -11
q-30 0 -54 10q-46 22 -46 70q0 81 146 244h-6q-9 4 -9 25q-5 35 28 35q27 0 42 -1q39 40 103 103q130 127 144 154q-13 4 -34 4q-99 0 -223 -97q-20 -16 -40 -43q-21 -28 -33 -40q-14 -12 -25 -12q-10 1 -20 23q-10 21 -8 33q5 35 65 86q59 50 112 73q2 1 18.5 8.5t20.5 8.5
q2 1 11.5 5t18.5 7.5t14 4.5q52 20 95 20q34 0 56 -13q30 -19 40 -63z" />
    <glyph glyph-name="uni01B6" unicode="&#x1b6;" horiz-adv-x="328" 
d="M296 74q39 -7 50 -37q2 -7 2 -10.5t-4 -2.5q-42 5 -59 5q-22 0 -60 -5l-48 -6q-15 -2 -53 -10q-45 -8 -64 -8t-28 4q-14 6 -23 23.5t-9 34.5q0 20 51 58q-4 5 -4 21q-5 35 28 35q16 0 54 -2q125 98 125 122q-3 2 -12 0q-23 0 -90 -45q-14 -9 -39 -29q-41 -31 -51 -31
q-3 0 -18 12q-22 16 -22 32q0 36 118 97q63 33 107 33q25 0 46 -19.5t21 -44.5q0 -4 0.5 -13.5t0 -13t-1.5 -11.5t-4 -13.5t-8 -13t-13 -16.5q-19 -20 -65 -58q17 -5 24 -10t5 -11q-4 -18 -88 -24q-36 -25 -75 -48q55 12 136 12q39 0 71 -7z" />
    <glyph glyph-name="uni0218" unicode="&#x218;" horiz-adv-x="420" 
d="M237 -35q-54 0 -102.5 31t-76.5 88q-22 31 -22 83q0 35 27 35q1 0 9 1t15 0t13 -5q2 -1 5.5 -12t10 -34t10.5 -36q10 -31 34 -59.5t55 -39.5q16 -16 45.5 -2t29.5 45q0 32 -22 94q-20 61 -48 124q-24 59 -48 136q-21 74 -21 125q0 75 46 109q34 26 107 26t108 -50
q34 -49 34 -119q0 -49 -15 -90q-3 -8 -15 -8q-17 0 -37 14t-15 26q5 42 5 69q0 54 -21 88q-16 25 -40 25q-19 0 -47 -19q-12 -9 -20 -24q-8 -17 -9 -55q-2 -46 32 -137l71 -185q36 -91 36 -134q0 -17 -6 -28q-12 -38 -47 -60t-81 -22zM83 -192q0 13 14 43q11 20 16 40
q2 5 5 13t4.5 12.5t4 9.5t4.5 6.5t5 0.5q41 -8 41 -41q0 -34 -25 -77q-26 -44 -37 -44q-12 0 -22 12t-10 25z" />
    <glyph glyph-name="uni0219" unicode="&#x219;" horiz-adv-x="240" 
d="M153 -34q-12 0 -16 1q-31 0 -81 47q-49 48 -49 73q0 11 16 20q6 3 11 3q10 0 38 -40t44 -47q9 6 -26 107q-22 60 -22 103q0 90 79 100q41 4 69 -25t28 -73q0 -48 -27 -48q-14 0 -27 13q-8 8 -8 16q0 1 2 12t2 16q0 8 -3 18q-7 21 -22 21q-33 0 -20 -79q7 -35 24 -94
q19 -92 19 -105q0 -22 -7 -30.5t-24 -8.5zM-52 -164q0 15 15 43q9 19 16 40q3 11 5.5 17t5 13.5t5.5 10t6 1.5q41 -8 41 -41q0 -34 -25 -77q-26 -44 -37 -44q-12 0 -22 12t-10 25z" />
    <glyph glyph-name="uni021A" unicode="&#x21a;" horiz-adv-x="399" 
d="M563 639q73 -7 92 -22q13 -10 -34 -15h-3l-199 -22q-28 -63 -58 -153q-117 -355 -135 -450q-4 -19 -30 -8q-25 10 -25 29v2q23 131 79 295l12 41l24 78l27 86q16 50 24 71q-58 -6 -211 -25q-14 -2 -19.5 14t-1 34t15.5 23q37 18 195 26q151 7 247 -4zM128 -66
q41 -8 41 -41q0 -34 -25 -77q-26 -44 -37 -44q-12 0 -22 12t-10 25t14 43q11 20 16 40q2 5 5 13t4.5 12.5t4 9.5t4.5 6.5t5 0.5z" />
    <glyph glyph-name="uni021B" unicode="&#x21b;" horiz-adv-x="231" 
d="M48 -12q-23 2 -34 25q-7 9 -5 36q4 74 46 179q-2 1 -13 0l-11 -1q-22 0 -22 24q0 23 9 29q4 3 12 4.5t22 3.5t25 4l34 85l45 106q26 66 39 72q8 2 9 2q17 0 32 -16q15 -17 11 -27l-5 -12q-5 -13 -19 -46t-29 -67q-13 -28 -39 -94q8 0 30 2t27 2q8 0 38.5 2t40.5 2
q23 0 0 -20q-31 -30 -77 -39q-1 -1 -3 -1l-40 -6l-41 -7q-15 -27 -43 -119q-4 -22 -9 -44t-6 -31l-2 -8q-1 -5 0 -16l2 -11q-3 -15 -24 -13zM-79 -186q0 15 15 43q9 19 16 40q3 11 5.5 17t5 13.5t5.5 10t6 1.5q41 -8 41 -41q0 -34 -25 -77q-26 -44 -37 -44q-12 0 -22 12
t-10 25z" />
    <glyph glyph-name="circumflex" unicode="&#x2c6;" horiz-adv-x="600" 
d="M196 426q-26 0 -23 37q1 7 130 88q110 71 124 62q21 -13 21 -42q0 -11 -4 -31l-5 -20q-6 -42 -7 -62q-1 -17 -7 -17q-7 0 -10 -1q-35 0 -35 46q0 12 6 51l-76 -50l-15 -11l-39 -26q-39 -24 -60 -24z" />
    <glyph glyph-name="caron" unicode="&#x2c7;" horiz-adv-x="600" 
d="M297 431q-25 0 -38 25q-5 6 -8.5 26.5t-6 45t-4.5 31.5t4 13t16 6q16 0 30 -20q6 -12 14 -73l41 24q15 10 48 29q93 54 117 50q21 0 21 -21q0 -11 -6 -27l-17 -8q-91 -48 -95 -50l-18 -10l-35 -20q-17 -8 -34 -15q-18 -6 -29 -6z" />
    <glyph glyph-name="breve" unicode="&#x2d8;" horiz-adv-x="600" 
d="M276 415q-48 0 -77 36q-28 35 -28 75q0 31 21 31q13 0 24 -8q2 -1 16 -34q14 -32 35 -32q25 -2 56.5 20.5t52.5 44.5t22 21q12 0 23.5 -12.5t9.5 -26.5q-4 -39 -46 -78q-40 -37 -109 -37z" />
    <glyph glyph-name="dotaccent" unicode="&#x2d9;" horiz-adv-x="603" 
d="M145 418q-10 0 -18 14q-6 10 -6 37q0 21 11 51q12 29 31 29q14 0 31 -17q9 -9 9 -30q0 -20 -20 -52t-38 -32z" />
    <glyph glyph-name="ring" unicode="&#x2da;" horiz-adv-x="600" 
d="M288 417q-37 0 -67 34q-30 35 -30 75q0 42 34 72q23 23 44 23q20 0 35 -19.5t15 -39.5q0 -11 -6 -14q-2 -2 -4 -2t-5.5 1.5t-4.5 1.5q-6 0 -19 -7q-34 -24 -34 -45q0 -23 30 -23q33 0 64 31q29 26 29 48q0 15 -21 38q-1 6 4 7q22 6 48 -21q26 -26 26 -60q0 -74 -123 -98
q-14 -2 -15 -2z" />
    <glyph glyph-name="ogonek" unicode="&#x2db;" horiz-adv-x="600" 
d="M281 -201q-14 0 -29 6q-41 17 -41 55q0 30 22 68q22 36 46 62l23 25q11 11 26 11q14 0 25.5 -8t11.5 -17q0 -5 -6 -10q-38 -23 -71 -68q-31 -43 -31 -72q0 -20 19 -20q12 0 38 12q8 3 12 3q8 0 8 -8q0 -13 -16 -26t-37 -13z" />
    <glyph glyph-name="tilde" unicode="&#x2dc;" horiz-adv-x="600" 
d="M327 418q-27 0 -46 11.5t-27.5 26t-18 26t-19.5 11.5q-19 0 -33 -11t-31 -36q-9 -13 -16 -13q-10 0 -17.5 11t-7.5 26q0 20 14 37q52 52 91 52q23 0 41 -14.5t27 -31.5t19 -30.5t20 -12.5q11 0 28.5 18.5t30 32t16.5 5.5q8 -11 8 -28q0 -32 -21.5 -56t-57.5 -24z" />
    <glyph glyph-name="hungarumlaut" unicode="&#x2dd;" horiz-adv-x="600" 
d="M152 435q-2 0 -5 1h-3q-18 14 -18 27q0 6 5.5 13.5t16 21.5t18.5 32q30 66 39 69q7 3 19 -1.5t18 -15.5q6 -10 6 -21q0 -45 -87 -122q-4 -4 -9 -4zM261 440h-6q-9 0 -9 13q0 19 34 68q35 56 43 64q3 3 11 3q13 0 23 -9.5t10 -23.5q0 -26 -32 -60q-6 -4 -23 -21
q-13 -13 -29 -27q-8 -7 -22 -7z" />
    <glyph glyph-name="gravecomb" unicode="&#x300;" horiz-adv-x="0" 
d="M-285 394q-44 0 -103 45q-60 47 -47 70q17 27 36 27q16 0 28 -9q9 -7 26 -26t21 -23l27 -21q37 -28 37 -43q0 -9 -11 -17q-6 -3 -14 -3z" />
    <glyph glyph-name="acutecomb" unicode="&#x301;" horiz-adv-x="0" 
d="M-364 410q-6 0 -12 7q-7 8 -7 19q0 5 3 11q8 25 50 75q42 54 54 54t26 -14t14 -24q0 -18 -26 -40l-7 -6q-7 -6 -27 -27.5t-25 -26.5q-32 -28 -43 -28z" />
    <glyph glyph-name="uni0302" unicode="&#x302;" horiz-adv-x="0" 
d="M-404 426q-26 0 -23 37q1 7 130 88q110 71 124 62q21 -13 21 -42q0 -11 -4 -31l-5 -20q-6 -42 -7 -62q-1 -17 -7 -17q-7 0 -10 -1q-35 0 -35 46q0 12 6 51l-76 -50l-14 -11l-40 -26q-39 -24 -60 -24z" />
    <glyph glyph-name="tildecomb" unicode="&#x303;" horiz-adv-x="0" 
d="M-273 418q-27 0 -46 11.5t-27.5 26t-18 26t-19.5 11.5q-19 0 -33 -11t-31 -36q-9 -13 -16 -13q-10 0 -17.5 11t-7.5 26q0 20 14 37q52 52 91 52q23 0 41 -14.5t27 -31.5t19 -30.5t20 -12.5q11 0 28.5 18.5t30 32t16.5 5.5q8 -11 8 -28q0 -32 -21.5 -56t-57.5 -24z" />
    <glyph glyph-name="uni0304" unicode="&#x304;" horiz-adv-x="0" 
d="M-194 474q-86 -35 -175 -45q-109 -13 -105 42q2 12 7 24q3 14 21 11h82l158 6q25 1 31.5 -13t-19.5 -25z" />
    <glyph glyph-name="uni0306" unicode="&#x306;" horiz-adv-x="0" 
d="M-324 415q-48 0 -77 36q-28 35 -28 75q0 31 21 31q13 0 24 -8q2 -1 16 -34q14 -32 35 -32q25 -2 56.5 20.5t52.5 44.5t22 21q12 0 23.5 -12.5t9.5 -26.5q-5 -40 -45 -78q-40 -37 -110 -37z" />
    <glyph glyph-name="uni0307" unicode="&#x307;" horiz-adv-x="0" 
d="M-186 418q-10 0 -18 14q-6 10 -6 37q0 23 12 51q11 29 30 29q14 0 31 -17q9 -9 9 -30q0 -20 -20 -52t-38 -32z" />
    <glyph glyph-name="uni0308" unicode="&#x308;" horiz-adv-x="0" 
d="M-236 401q-8 0 -15 7q-12 18 -12 42q0 16 5 34.5t11.5 29.5t10.5 10q45 -8 45 -52q0 -26 -14.5 -48.5t-30.5 -22.5zM-103 395q-14 0 -22 21.5t-8 50.5q0 49 21 57q6 -1 17 -6q12 -4 27 -18t15 -28q0 -7 -1 -9q-26 -68 -49 -68z" />
    <glyph glyph-name="uni030A" unicode="&#x30a;" horiz-adv-x="0" 
d="M-312 417q-37 0 -67 34q-30 35 -30 75q0 42 34 72q23 23 44 23q20 0 35 -19.5t15 -39.5q0 -11 -6 -14q-2 -2 -4 -2t-5.5 1.5t-4.5 1.5q-6 0 -19 -7q-34 -24 -34 -45q0 -23 30 -23q33 0 64 31q29 26 29 48q0 15 -21 38q-1 6 4 7q23 6 49 -21q25 -25 25 -60q0 -74 -123 -98
q-14 -2 -15 -2z" />
    <glyph glyph-name="uni030B" unicode="&#x30b;" horiz-adv-x="0" 
d="M-448 435q-2 0 -5 1h-3q-18 14 -18 27q0 6 5.5 13.5t16 21.5t18.5 32q30 66 39 69q7 3 19 -1.5t18 -15.5q6 -10 6 -21q0 -45 -87 -122q-4 -4 -9 -4zM-339 440h-6q-9 0 -9 13q0 19 34 68q35 56 43 64q3 3 11 3q13 0 23 -9.5t10 -23.5q0 -26 -32 -60q-7 -5 -22 -21l-30 -27
q-8 -7 -22 -7z" />
    <glyph glyph-name="uni030C" unicode="&#x30c;" horiz-adv-x="0" 
d="M-303 431q-25 0 -38 25q-5 6 -8.5 26.5t-6 45t-4.5 31.5t4 13t16 6q16 0 30 -20q6 -12 14 -73l41 24q23 15 49 29q91 54 116 50q21 0 21 -21q0 -11 -6 -27l-17 -8q-91 -48 -95 -50l-17 -10l-36 -20q-15 -8 -33 -15q-19 -6 -30 -6z" />
    <glyph glyph-name="uni0312" unicode="&#x312;" horiz-adv-x="0" 
d="M-162 430q-48 8 -48 48q0 37 29 89q29 51 43 51q15 0 26 -13.5t11 -29.5q0 -10 -13 -39t-15 -35t-7 -22.5t-6 -19.5q-14 -29 -20 -29z" />
    <glyph glyph-name="uni0326" unicode="&#x326;" horiz-adv-x="0" 
d="M-205 -172q0 15 15 43q9 19 16 40q3 11 5.5 17t5 13.5t5.5 10t6 1.5q41 -8 41 -41q0 -34 -25 -77q-26 -44 -37 -44q-12 0 -22 12t-10 25z" />
    <glyph glyph-name="uni0327" unicode="&#x327;" horiz-adv-x="0" 
d="M-345 -189q-13 0 -23 7q-19 19 -19 34q0 9 6.5 15t15.5 6l1 -7q2 -6 5.5 -12.5t10.5 -6.5q16 0 47 31q20 20 20 42q0 12 -7 12q-6 0 -13 -9q-6 -19 -13 -23q-4 -3 -9 -3q-15 0 -19 15q-4 10 8 40q10 29 24 55l14 25q3 4 9 4q12 0 22.5 -10.5t6.5 -22.5q-6 -8 -16 -32
q36 -11 36 -43q0 -35 -36 -76q-38 -41 -71 -41z" />
    <glyph glyph-name="uni0328" unicode="&#x328;" horiz-adv-x="0" 
d="M-319 -201q-14 0 -29 6q-41 17 -41 55q0 28 23 68q23 39 45 62l23 25q11 11 26 11q14 0 25.5 -8t11.5 -17q0 -5 -6 -10q-38 -23 -71 -68q-31 -43 -31 -72q0 -20 19 -20q12 0 38 12q8 3 12 3q8 0 8 -8q0 -13 -16 -26t-37 -13z" />
    <glyph glyph-name="uni0335" unicode="&#x335;" horiz-adv-x="0" 
d="M-202 301q-9 5 -9 25q-5 35 28 35q6 0 18.5 -0.5t34.5 -1.5t43.5 -3.5t41 -6t30.5 -9.5t9 -14q-5 -14 -55 -21q-51 -8 -92 -6q-12 0 -23.5 0.5t-17.5 1t-8 0.5z" />
    <glyph glyph-name="uni0336" unicode="&#x336;" horiz-adv-x="0" 
d="M-432 330q-16 13 -16 29q0 15 15.5 25.5t42.5 13.5q5 0 17.5 2t36.5 5t45 6q115 15 156 19q78 8 114 8q31 0 51 -29q8 -16 2 -17q-44 -7 -187 -25q-130 -15 -223 -30l-28 -5q-16 -3 -26 -2z" />
    <glyph glyph-name="uni0337" unicode="&#x337;" horiz-adv-x="0" 
d="M-203 266l-38 -15q-12 -1 -20.5 7t-8.5 20q0 38 143 74q46 11 56 11q14 0 20 -7.5t-3 -15.5q-15 -12 -64 -36q-14 -7 -85 -38z" />
    <glyph glyph-name="uni0338" unicode="&#x338;" horiz-adv-x="0" 
d="M-410 -65q-12 -14 -25 2q-13 17 0 36q5 5 251 368q243 362 266 402q11 17 24 -2q19 -25 7 -58l-6 -11q-38 -60 -260 -380q-224 -321 -257 -357z" />
    <glyph glyph-name="uni0401" unicode="&#x401;" 
d="M371 716q-8 0 -15 7q-12 18 -12 42q0 16 5 34.5t11.5 29.5t10.5 10q45 -7 45 -52q0 -26 -14.5 -48.5t-30.5 -22.5zM504 710q-14 0 -22 21.5t-8 50.5q0 50 21 57q7 -1 16 -6q12 -4 27.5 -18t15.5 -28q0 -7 -1 -9q-26 -68 -49 -68zM184 -136q-64 0 -94 40q-35 49 -35 104
q0 77 57 156l40 54l37 42q-15 0 -25.5 3t-24 13.5t-25.5 35t-22 62.5q-2 14 -2 17q0 52 62 123q63 72 142 118q50 29 117 29q51 0 90 -20.5t57 -56.5q15 -30 15 -42q0 -15 -24.5 -21.5t-29.5 -3.5l-11 25q-10 26 -20 40q-17 24 -62 24q-19 0 -37.5 -4.5t-28 -8.5t-10.5 -6
q-2 -5 -8 -5h-4l-2 -4q-1 -3 -3 -5q-76 -49 -125 -115q-61 -84 -44 -127q9 -23 42 -20q45 5 117 50q74 46 105 46q22 0 38 -15q11 -11 11 -36q0 -8 -2.5 -12t-7.5 -3q-2 1 -10 1q-7 0 -51 -15q-102 -37 -191 -138q-88 -100 -88 -156q0 -7 3 -13q4 -9 4 -27l-1 -17
q-1 -21 13 -31.5t42 -10.5q84 0 179 64q96 62 143 127q7 7 9 -7q0 -28 -27 -71t-79 -85q-42 -33 -109 -66q-66 -32 -120 -32z" />
    <glyph glyph-name="uni0410" unicode="&#x410;" horiz-adv-x="448" 
d="M420 230q56 -5 65 -38q2 -16 -5 -17q-26 6 -127 4q-43 -216 -34 -245q4 -11 -16 -16q-31 -8 -48 11q-7 7 -9 19q1 15 -1 22q-1 3 2 27l5 30l6 34q7 29 8 37l8 38l9 40q-91 -5 -142 -10h-3q-128 -200 -184 -247q-20 -17 -33.5 -23t-35.5 -6q-54 0 -27 31l3 3l2 2
q97 106 185 231q-40 -6 -58 -6q-11 -1 -21.5 14.5t-10.5 30t13 20.5q33 7 126 11q100 149 258 424q9 17 33.5 18.5t44 -11.5t13.5 -31l-82 -395q18 0 56 -2zM314 448l-135 -217q104 2 115 2l5 32q18 112 45 230z" />
    <glyph glyph-name="uni0411" unicode="&#x411;" horiz-adv-x="562" 
d="M177 -20q-3 0 -21 8q-26 14 -26 65q0 77 41 218q39 133 68 200q7 17 7 29t-14 24q-15 15 -16 32q-1 3 -1 11q0 44 77 65q76 21 178 21q61 0 102 -7t41 -19q0 -16 -80 -31q-36 -5 -107 -15q-36 -7 -59 -13.5t-34 -14t-10 -14.5q2 -7 4.5 -13t2.5 -9q0 -4 -7 -17
q-15 -55 -33 -113q-28 -92 -28 -93q28 28 86 55q57 28 92 28t63 -26.5t28 -62.5q0 -55 -43 -128q-44 -74 -105 -126t-109 -52q-41 0 -60 40q-5 12 -5 20q0 6 5 6q7 0 21 -10l5 -3q28 0 84 52q57 51 104 115t47 91q0 15 -17 15q-38 0 -147 -73q-3 -6 -9 -9.5t-11 -5t-6 -2.5
q-63 -96 -82 -158q-4 -14 -7.5 -29t-5 -23t-3.5 -15t-4.5 -10t-5.5 -3z" />
    <glyph glyph-name="uni0412" unicode="&#x412;" horiz-adv-x="374" 
d="M44 -17q-13 -11 -40 -1q-28 10 -31 25q-9 47 30 172q49 150 85 255q46 129 49 175q-3 47 13 51t39 -15q23 -18 26 -17l17 7q9 4 37 10q27 7 38 -1q48 -7 74 -40q27 -32 27 -62q0 -94 -170 -222q68 -10 103 -61q35 -50 0 -95q-52 -77 -96 -103q-43 -24 -108 -24
q-27 0 -87 29q0 -7 0.5 -25.5t0.5 -23.5q2 -20 -7 -34zM133 329q55 25 138 111q84 85 78 128q-1 14 -22.5 17t-53 -7.5t-58.5 -30.5q-45 -94 -82 -218zM118 94q43 -4 112 49q68 53 65 94q-2 20 -32 29q-31 10 -57 6q-52 -8 -103 -26q-2 -10 -12 -40.5t-12 -40.5
q-11 -24 -2.5 -48t41.5 -23z" />
    <glyph glyph-name="uni0413" unicode="&#x413;" horiz-adv-x="272" 
d="M83 -1q-9 -37 -25 -40t-28 15.5t-10 37.5q2 25 88 303q89 281 111 299q19 14 138 10q169 -4 208 -42q19 -19 -5 -43q-2 -2 -51 1q-56 3 -127 2q-76 0 -129 -9q-13 -43 -39 -116q-60 -173 -131 -418z" />
    <glyph glyph-name="uni0414" unicode="&#x414;" horiz-adv-x="681" 
d="M224 -38q-41 0 -73 23q-31 22 -31 45q0 19 41 17h56q114 339 151 507q-15 1 -48 -8.5t-72 -28t-67.5 -53.5t-28.5 -78q0 -8 1 -11q9 -19 9 -34q0 -19 -18 -5q-30 22 -40 70q-3 14 -3 28q0 112 169 173q23 8 64 18l53 15q0 43 15 43q13 0 48 -44q55 -6 106 -30
q33 -16 58 -39q60 -58 60 -161q0 -187 -130 -317t-320 -130zM292 51q101 22 178 84q146 117 146 271q0 76 -45 114.5t-128 38.5q-58 -172 -151 -508z" />
    <glyph glyph-name="uni0415" unicode="&#x415;" 
d="M184 -136q-64 0 -94 40q-35 49 -35 104q0 77 57 156l40 54l37 42q-15 0 -25.5 3t-24 13.5t-25.5 35t-22 62.5q-2 14 -2 17q0 52 62 123q63 72 142 118q50 29 117 29q51 0 90 -20.5t57 -56.5q15 -30 15 -42q0 -15 -24.5 -21.5t-29.5 -3.5l-11 25q-10 26 -20 40
q-17 24 -62 24q-19 0 -37.5 -4.5t-28 -8.5t-10.5 -6q-2 -5 -8 -5h-4l-2 -4q-1 -3 -3 -5q-76 -49 -125 -115q-61 -84 -44 -127q9 -23 42 -20q45 5 117 50q74 46 105 46q22 0 38 -15q11 -11 11 -36q0 -8 -2.5 -12t-7.5 -3q-2 1 -10 1q-7 0 -51 -15q-102 -37 -191 -138
q-88 -100 -88 -156q0 -7 3 -13q4 -9 4 -27l-1 -17q-1 -21 13 -31.5t42 -10.5q84 0 179 64q96 62 143 127q7 7 9 -7q0 -28 -27 -71t-79 -85q-42 -33 -109 -66q-66 -32 -120 -32z" />
    <glyph glyph-name="uni0416" unicode="&#x416;" horiz-adv-x="756" 
d="M62 -46q-12 0 -24 3q-68 17 -68 81q0 2 2 14t2 16q0 20 74 79q28 22 82.5 64t74.5 58q82 64 98 94q36 77 36 120q0 23 -12.5 41.5t-30.5 18.5q-38 0 -101 -73q-62 -72 -76 -72q-19 0 -30 38q-5 12 13 40t48 58q32 31 71 52.5t70 21.5q91 0 91 -172q26 26 54.5 52t46.5 42
l18 15q11 37 19 81q12 37 17 39q11 0 25 -11q26 -17 23 -39q-11 -89 -108 -339q-96 -247 -106 -290q-3 -13 -27 1q-23 15 -25 32q0 34 73 211q72 176 74 204q-25 -31 -119 -136q-17 -50 -65 -137q-28 -51 -61 -97q-32 -45 -75 -77q-44 -33 -84 -33zM595 -61q-53 0 -79.5 39
t-26.5 109q0 115 62 253q61 137 142 192q26 17 46 17q26 0 42 -26t16 -61q0 -31 -12 -37q-8 -4 -24 5t-20 20q0 14 -7 14q-18 0 -66 -72q-48 -74 -89 -171q-41 -100 -41 -160q0 -55 33 -68q7 -3 17 -3q29 0 73 25q51 29 77 50l31 25q16 37 40 37q17 0 17 -21q0 -25 -29 -60
t-87 -73q-68 -34 -115 -34zM56 18q12 -11 53 33q42 45 61 82q-45 -28 -77 -61q-1 -1 -8.5 -8t-12 -11.5t-11.5 -13t-6.5 -12t1.5 -9.5z" />
    <glyph glyph-name="uni0417" unicode="&#x417;" horiz-adv-x="351" 
d="M90 -44q-27 0 -46 16q-44 38 -44 67q0 17 14 5q4 -4 9 -10q18 -25 47 -25q52 0 114 63q62 64 62 113q0 50 -70 50q-4 -2 -11 -9q-2 -2 -20 -18q-24 -17 -53 -17q-32 0 -48 37q-3 8 -3 15q0 23 29.5 38t62 20.5t33.5 6.5q45 28 121 129q78 102 78 146q0 20 -22 20
q-49 0 -191 -91q-15 -10 -45 -49q-27 -38 -40 -38q-10 0 -18 11q-16 17 -16 37q0 23 55 72q58 51 128 91q74 42 114 42q1 0 15 -2q29 -5 56 -38q28 -31 28 -80q0 -123 -194 -284q66 -23 66 -125q0 -74 -95 -146q-62 -47 -116 -47z" />
    <glyph glyph-name="uni0418" unicode="&#x418;" horiz-adv-x="529" 
d="M468 -40q-33 4 -45 15q-18 13 -33 39q-26 54 -26 183l-26 -36l-26 -36q-41 -54 -50 -65q-28 -35 -48 -51q-42 -34 -74 -39q-9 -3 -19 -3q-29 0 -56 19t-34 45q-7 20 -7 47q0 51 42 183t96 247t82 115q15 0 30.5 -12.5t15.5 -26.5q0 -12 -19 -38q-70 -99 -122 -252
q-53 -156 -53 -233q0 -43 24 -43q28 0 104 99q72 94 134 198q10 13 24 42l30 62q5 9 9.5 19.5t7 16t3.5 7.5q13 32 25.5 46.5t29.5 14.5q14 0 33 -11q15 -10 15 -19q0 -8 -15 -23q-12 -14 -20 -31q-68 -168 -68 -307q0 -21 3 -45t8 -45.5t13.5 -34t19.5 -8.5h5q13 0 22 -15
l2 -6q0 -6 -5 -11q-7 -7 -32 -7z" />
    <glyph glyph-name="uni0419" unicode="&#x419;" horiz-adv-x="529" 
d="M398 643q-37 0 -66 22q-30 23 -30 45q0 16 23 16q8 0 29 -10q22 -9 39 -9q16 0 38 18l21 19l58 55q8 7 19.5 -0.5t18 -22.5t1.5 -27q-11 -18 -30 -40q-16 -21 -52 -44q-34 -22 -69 -22zM468 -40q-33 4 -45 15q-18 13 -33 39q-26 54 -26 183l-26 -36l-26 -36
q-41 -54 -50 -65q-28 -35 -48 -51q-42 -34 -74 -39q-9 -3 -19 -3q-29 0 -56 19t-34 45q-7 20 -7 47q0 51 42 183t96 247t82 115q15 0 30.5 -12.5t15.5 -26.5q0 -12 -19 -38q-70 -99 -122 -252q-53 -156 -53 -233q0 -43 24 -43q28 0 104 99q72 94 134 198q10 13 24 42l30 62
q5 9 9.5 19.5t7 16t3.5 7.5q13 32 25.5 46.5t29.5 14.5q14 0 33 -11q15 -10 15 -19q0 -8 -15 -23q-12 -14 -20 -31q-68 -168 -68 -307q0 -21 3 -45t8 -45.5t13.5 -34t19.5 -8.5h5q13 0 22 -15l2 -6q0 -6 -5 -11q-7 -7 -32 -7z" />
    <glyph glyph-name="uni041A" unicode="&#x41a;" horiz-adv-x="398" 
d="M398 -97q-59 29 -118 86q-92 91 -148 190q-4 -4 -14.5 -13t-13.5 -12q-19 -53 -29 -90q-8 -31 -20 -82.5t-15 -61.5q-5 -9 -21.5 -9t-33.5 10t-16 22q8 65 40 167l53 163q22 66 50 164q29 102 36 122q27 85 43 123q9 18 37 8t31 -25q1 -5 -5 -22q-11 -33 -27 -69
q-36 -120 -100 -305q61 26 143 102q78 72 129 130q40 48 65 100q10 22 37 -12q9 -12 12 -20q6 -16 0 -37q0 -2 -4.5 -8.5t-4.5 -7.5l-12 -16q-62 -74 -128 -135q-66 -59 -186 -154l34 -48l30 -44q36 -48 50 -62q76 -78 132 -107l27 -8q24 -7 35 -14t7 -15q-22 -42 -95 -10z
" />
    <glyph glyph-name="uni041B" unicode="&#x41b;" horiz-adv-x="520" 
d="M40 -94q-10 0 -22 5q-8 3 -14.5 20.5t-3.5 24.5q1 5 5.5 8t20.5 17.5t39 41.5q323 422 323 562q0 13 -1.5 22.5t-3 13.5t-1.5 5q0 14 13 18q1 1 9 1q3 0 8 -0.5t9 -0.5h4q33 0 33 -72q0 -3 -2 -41l-7 -91q-12 -180 -12 -255q0 -96 13 -128q3 -19 11 -39.5t14 -33.5t6 -16
q0 -11 -31 -11q-99 0 -76 386q0 5 0.5 9.5t0.5 7.5q-271 -454 -335 -454z" />
    <glyph glyph-name="uni041C" unicode="&#x41c;" horiz-adv-x="593" 
d="M535 -77q-9 0 -14 5q-69 34 -69 140q0 58 16 130l16 73q4 18 9 42t5 25q-10 -15 -71 -126q-66 -120 -101 -176q-45 -74 -60 -74q-46 0 -58 99q-10 80 -10 197v72v35q0 -5 -40 -112q-44 -116 -91 -218q-51 -111 -72 -111q-13 0 -35 19q-24 20 -14 34q107 166 215 451
q32 87 43 123q23 80 35 77q24 -12 33 -18q25 -15 25 -43q0 -17 -9 -64l-12 -80q-2 -14 -7 -106q-4 -76 -4 -149q0 -79 8 -79t83 130q68 116 148 261l71 131q15 2 34 -16q20 -17 20 -37q0 -8 -1 -10l-38 -120l-43 -226q-21 -107 -21 -169q0 -49 13 -69q13 -21 12 -28
q-1 -13 -16 -13z" />
    <glyph glyph-name="uni041D" unicode="&#x41d;" horiz-adv-x="502" 
d="M318 -12q-13 -13 -28.5 0t-9.5 38q14 47 30 110q22 78 32 107q-92 -8 -173 -31q-59 -122 -63 -203q-1 -12 -5.5 -18t-12.5 -5q-19 1 -30 34q-7 17 -5 46q1 12 9 35q5 17 18 53l12 35q-13 -5 -26 -10.5t-18 -7.5l-6 -2q-8 -2 -13 3t-12 23q-3 5 -4.5 10t-2.5 8.5t0.5 7.5
t2.5 6.5t4.5 6l5 5t7 4.5t7 4t8 4t7.5 4q11 5 37 13l34 10q37 104 69 216q17 49 35 123q5 23 32 0q26 -22 28 -45v-4l-8 -32q-3 -13 -24 -77q-10 -31 -16 -46l-21 -60l-22 -65l39 6q82 13 125 14q33 105 59 172q30 70 43 114q5 11 35 83q11 17 32.5 2t23.5 -35q1 -5 -16 -47
q-29 -69 -49 -119q-27 -67 -56 -164q68 -3 82 -29q4 -9 -4 -11l-92 -17q-18 -51 -34 -104q-44 -142 -66 -165z" />
    <glyph glyph-name="uni041E" unicode="&#x41e;" horiz-adv-x="448" 
d="M209 -49q-74 0 -111.5 49.5t-37.5 136.5q0 102 43 218q43 117 114 200t139 83q62 0 108 -70q27 -37 27 -100q0 -62 -25 -143q-25 -84 -46 -136q-21 -55 -18 -60q7 -7 7 -18q0 -31 -81 -96q-79 -64 -119 -64zM196 4q50 0 106 87q57 90 91 204q35 119 35 207q0 73 -49 73
q-44 0 -121 -77q-133 -199 -133 -362q0 -56 17.5 -92.5t43.5 -38.5q2 -1 10 -1z" />
    <glyph glyph-name="uni041F" unicode="&#x41f;" horiz-adv-x="421" 
d="M475 554q3 -17 -17 -67q-14 -45 -53 -139q-77 -190 -100 -329q-4 -43 -22 -43q-20 0 -32.5 17.5t-13.5 42.5q-2 52 68 236q70 185 82 250q3 11 -38 11q-26 0 -79 -6q-15 -1 -28.5 -2.5t-19.5 -2.5h-5q13 -5 14 -12.5t-4 -27.5q-1 -4 -2 -6q-161 -465 -161 -495v-2v-4
q1 -4 1 -6q0 -13 -11 -13q-14 0 -43 21q-11 8 -11 29q0 17 69 250q68 231 77 247q-24 2 -35 13q-20 15 -20 42q0 10 5 12q152 18 155 18q68 14 115 14q31 0 55 -7q22 -7 37 -18.5t17 -22.5z" />
    <glyph glyph-name="uni0420" unicode="&#x420;" horiz-adv-x="403" 
d="M75 0q-7 -12 -14 -13.5t-11.5 2t-11.5 13t-10 12.5q-12 4 5 62q21 65 24 79l69 228q36 110 40 145q-26 0 -36 25q0 1 -5 11.5t-6 12.5q0 11 11 20q39 26 65 40q2 7 4.5 10.5t4 4.5t6.5 2h3q3 0 14.5 -4t15.5 -5q55 4 106 -17q48 -20 82 -63.5t44 -94.5q3 -21 -1 -68
q-5 -43 -22 -73q-25 -46 -56 -77q-55 -55 -137 -85q-85 -29 -129 -25q-2 -5 -16 -46l-17 -44q-18 -44 -22 -52zM141 187q37 3 84 28q67 36 115 79q44 39 67 83q22 36 18.5 82.5t-33.5 75.5q-48 43 -132 36l-43 -148l-15 -48q-36 -108 -61 -188z" />
    <glyph glyph-name="uni0421" unicode="&#x421;" horiz-adv-x="334" 
d="M148 -44q-54 0 -95 47q-40 46 -34 151q6 95 54 217q48 121 117 210q69 88 127 88q53 0 81.5 -32t28.5 -87q0 -46 -19 -91t-36 -56q-20 -12 -47 -6q-19 4 -12 20q11 21 31 76q19 53 19 70q0 30 -29 30q-48 0 -107 -87q-56 -82 -98 -194q-39 -106 -45 -179
q-6 -61 15.5 -91.5t62.5 -30.5q55 0 112 43l46 34l45 39q4 3 7 4t4.5 -0.5t0.5 -5.5q-2 -26 -45 -74q-83 -95 -184 -95z" />
    <glyph glyph-name="uni0422" unicode="&#x422;" horiz-adv-x="399" 
d="M563 639q73 -7 92 -22q13 -10 -34 -15h-3l-199 -22q-28 -63 -58 -153q-117 -355 -135 -450q-4 -19 -30 -8q-25 10 -25 29v2q23 131 79 295l12 41l24 78l27 86q16 50 24 71q-58 -6 -211 -25q-14 -2 -19.5 14t-1 34t15.5 23q37 18 195 26q151 7 247 -4z" />
    <glyph glyph-name="uni0423" unicode="&#x423;" horiz-adv-x="410" 
d="M151 -28q-30 0 -60 8q-44 12 -67.5 46t-23.5 73q0 34 13 35q4 1 7 -2q3 -8 21 -21q8 -6 8 -29q0 -22 25.5 -40t58.5 -18q76 0 136 88q54 81 84 176q27 92 37 150l-26 -29l-30 -33l-29 -31l-31 -33q-47 -47 -58 -56q-48 -37 -68 -37q-34 0 -57 27.5t-23 76.5q0 92 32 194
q17 51 32 75.5t29 22.5q20 0 22 -2t12 -21q1 -2 4.5 -6t5.5 -9t2 -10q0 -14 -10 -28q-12 -23 -38 -104q-26 -87 -26 -124q0 -23 11 -23q44 0 268 263q10 51 22 78q16 39 49 39q16 0 28 -10.5t12 -28.5q0 -31 -32 -75q-53 -244 -94 -348q-95 -232 -246 -234z" />
    <glyph glyph-name="uni0424" unicode="&#x424;" horiz-adv-x="733" 
d="M301 -60q-5 0 -10 5q-28 0 -28 39q0 50 20 106l17 48l26 61q16 37 23 52q48 141 51 151q-107 -116 -145 -148q-67 -58 -115 -58q-37 0 -58.5 20t-21.5 61q0 51 39 131q42 82 91 140q52 60 83 60q40 0 100 -71q9 -11 9 -21q0 -22 -25 -22q-23 0 -36 27q-8 17 -22 17
q-37 0 -94 -78q-58 -78 -77 -156q-2 -10 -2 -20q0 -20 14 -20q15 0 82 54q68 54 144 135q75 79 101 138q29 87 31 90q5 5 13 6q31 -2 42 -26q6 -9 6 -29q0 -18 -7 -34q-9 -26 -20 -52q26 30 39 41q18 18 46 33t53 15q47 0 73 -44q31 -47 31 -102q0 -36 -20.5 -98.5
t-55.5 -128.5t-93.5 -114t-123.5 -48q-41 0 -76 35q-12 9 -26 23q-39 -160 -55 -193q-12 -25 -23 -25zM457 158q49 0 108 53t103 140q43 86 43 170q0 55 -38 55q-11 0 -25 -10q-70 -51 -153 -167q-84 -119 -84 -189q0 -3 2 -17q15 -35 44 -35z" />
    <glyph glyph-name="uni0425" unicode="&#x425;" horiz-adv-x="376" 
d="M50 -40q-17 0 -32 21q-19 22 -18 28q0 2 12 14.5t27.5 29t21.5 25.5q16 24 31 44q46 61 71 106q-12 55 -23 129q-24 173 -24 193q0 17 7 24q11 12 30 12h9.5h8.5t6.5 -0.5t6.5 -1.5t4.5 -3t4 -5t2.5 -7q1 -83 23 -260l47 61q11 15 30 39l29 36q18 25 36.5 51t26 36
t8.5 11l45 51q3 4 13 -2t17.5 -18t3.5 -23q-38 -59 -125 -177q-95 -129 -113 -155q15 -51 31 -87q13 -28 42 -57q19 -19 28 -19l14 6q14 7 25 8q4 0 16 -12q13 -10 13 -12q0 -8 -17 -20t-26 -15q-9 -4 -25 -4q-37 0 -74 27q-18 13 -40.5 43t-35.5 64l-27 -43l-31 -50
q-22 -38 -44.5 -64.5t-34.5 -23.5z" />
    <glyph glyph-name="uni0426" unicode="&#x426;" horiz-adv-x="600" 
d="M430 -189q-38 0 -67 20t-29 45q0 16 14 30l80 84q-27 4 -27 31q-1 5 -1 23q0 36 3 67q3 37 10 77q9 58 11 72q-54 -100 -129 -192t-116 -92q-38 0 -67.5 28.5t-32.5 74.5q-1 6 -1 28q0 69 43 228l37 125l33 105l16 49q4 16 30 -2q32 -22 31 -48q0 -5 -1 -8l-7 -20
q-33 -99 -57 -174q-58 -201 -58 -261q0 -38 18 -38q31 0 117 113q84 109 159 235q73 121 73 149q-1 3 -1 12q0 27 29 27q19 0 38 -12t22 -27q0 -3 -25 -66q-26 -70 -54 -158q-31 -95 -38 -156q-3 -19 -8 -129q12 7 54 45q39 35 80 66q40 29 55 29q11 0 11 -16q0 -5 -5 -27
q-3 -12 -39 -37l-37 -28q-30 -39 -46 -55q17 -34 17 -70q0 -60 -40 -103q-41 -44 -95 -44zM435 -140q23 0 48 39q25 38 22 88q-11 -13 -36 -36q-26 -26 -36.5 -40.5t-10.5 -30.5q0 -20 13 -20z" />
    <glyph glyph-name="uni0427" unicode="&#x427;" horiz-adv-x="511" 
d="M391 -44q-11 0 -33 9q-17 9 -17 50q0 60 20 135l17 63q10 35 22 71l16 50q-22 -37 -74 -86q-51 -48 -75 -45q-95 12 -95 139q0 93 52 256q11 41 35 41q15 0 30.5 -15t15.5 -27q-74 -210 -74 -294q0 -38 18 -38q8 0 19 7q35 24 98 90q67 72 109 133q33 85 41 101
q11 20 26 20q30 0 30 -35q0 -9 -86 -262q-85 -251 -85 -293q0 -11 1 -25t1 -20.5t-0.5 -13t-3 -9t-8.5 -2.5z" />
    <glyph glyph-name="uni0428" unicode="&#x428;" horiz-adv-x="768" 
d="M92 -72q-92 0 -92 142q0 103 40 231l33 102q18 48 36 91l22 54q7 19 38 2q31 -18 31 -42q1 -3 -1 -9q-2 -4 -20.5 -50t-47 -118.5t-52.5 -142.5q-24 -99 -24 -144q0 -47 23 -47q35 0 105 94q73 95 143 230q70 131 109 245q2 8 14 8q20 0 40 -16.5t20 -38.5q0 -12 -4 -20
q-55 -111 -71 -147q-23 -51 -42 -116q-20 -69 -20 -122t23 -53q57 0 241 307q11 21 44 101q32 75 50.5 105.5t37.5 30.5q12 0 24 -13q21 -20 21 -37t-57 -100q-25 -36 -53.5 -114.5t-47.5 -172.5q-11 -39 -11 -98q0 -88 33 -91q23 -3 62 33q41 38 63 73q10 16 12 -5
q5 -30 -12 -62q-19 -38 -51.5 -62.5t-71.5 -24.5q-16 0 -27 4q-67 22 -67 148q0 21 5 89q-35 -62 -76 -113q-56 -70 -113 -70q-46 0 -70 45t-13 138q-15 -19 -45 -65q-41 -61 -59 -85q-26 -33 -60 -63q-34 -31 -62 -31zM446 -53q56 -1 79 -26q13 -15 -7 -20q-2 -1 -7 -1
q-67 -3 -187 -23q-91 -16 -175 -34q-6 -1 -10 2.5t-6 13.5q-7 30 9 48q5 5 10 6q55 15 156 26q100 9 138 8z" />
    <glyph glyph-name="uni0429" unicode="&#x429;" horiz-adv-x="827" 
d="M599 -268q-52 0 -98 38q-32 29 -32 79q0 95 122 172q25 13 25 22l-2 17q-2 22 -2 37q0 21 2 47q0 12 5 37q6 26 4 26q-3 0 -15 -16q-14 -13 -51 -66q-43 -60 -72 -98q-34 -45 -42 -46q-24 -10 -47 -10q-76 0 -76 135q0 56 9 103q4 23 10 45q5 20 10 46l-39 -72
q-33 -61 -50 -88q-29 -47 -49 -76q-57 -85 -109 -85q-25 0 -43.5 18t-25.5 49q-4 12 -4 38q0 73 36 212q29 113 55 195l12 36q3 13 23 13q19 0 33.5 -12.5t14.5 -32.5q0 -9 -1 -12q-1 -6 -55 -176q-75 -234 -38 -234q17 0 61 71l50 83l73 123q39 66 93 152q5 9 28 35
q0 25 11 30q5 2 23 -7q19 -7 22 -14q15 -20 15 -39q1 -7 -0.5 -13.5t-3.5 -10.5t-7 -12t-8 -15q-75 -234 -89 -382q-1 -18 3 -27.5t12 -7.5q10 3 85 106q79 109 152 225q79 123 89 162q4 14 9 37.5t7 30.5q10 36 35 36q5 0 11 -3q33 -12 33 -49q0 -24 -67 -235
q-66 -213 -59 -264q49 35 69 41l8 2q2 0 3 -1t2.5 -0.5t10 4t24.5 11.5q37 22 97 45q9 4 11.5 1t-2.5 -11q-16 -31 -73 -83q-23 -19 -26 -21q-59 -39 -88 -63q1 -2 10 -21.5t16 -33.5q5 -30 5 -47q0 -77 -46 -126q-47 -50 -109 -50zM568 -216q16 0 31 7q37 14 65 54
q30 39 30 78q0 33 -24 56q-5 1 -57 -31q-49 -31 -59 -46q-25 -34 -25 -72q0 -21 10.5 -33.5t28.5 -12.5z" />
    <glyph glyph-name="uni042A" unicode="&#x42a;" horiz-adv-x="509" 
d="M129 -67q-38 11 -38 53q0 40 25 119l30 87l46 131l58 163q38 109 38 139q0 11 -11 11q-48 0 -109 -46q-84 -63 -122 -63q-12 0 -25 21q-13 22 -9 36q8 22 108 72q103 50 131 50q50 0 82 -18.5t32 -47.5q0 -33 -32 -120q-31 -84 -39 -121q-6 -19 -6 -24q62 44 120 44
q45 0 71.5 -42t26.5 -108q0 -81 -48 -179q-56 -111 -139 -111q-34 0 -58 21t-24 50q0 10 1 13q5 14 12 14q5 0 13.5 -10t15.5 -22l7 -12q4 -4 11 -4q24 0 58 37q36 38 65 100q30 63 30 120q0 69 -38 69q-80 0 -146 -107q-66 -106 -111 -276q-5 -23 -10 -31t-16 -8z" />
    <glyph glyph-name="uni042B" unicode="&#x42b;" horiz-adv-x="600" 
d="M171 -130q-30 0 -54 39q-13 19 -13 42q0 33 32 71q33 38 84 81q52 43 72 69q28 31 28 61q0 17 -10 27.5t-27 10.5q-43 0 -106 -77q-62 -75 -88 -163q-7 -22 -11 -22q-15 0 -30 11.5t-18 25.5q0 2 -0.5 6t-0.5 6q0 27 7 56q7 31 24 85l22 69q15 52 50 186l33 126
q4 15 9.5 39.5t7.5 31.5q4 18 6.5 27.5t6 15t4 6.5t6.5 2t8 2q14 0 32 -7q24 -6 24 -23q0 -10 -10 -37q-38 -119 -52 -180q-40 -140 -47 -174q67 47 128 47q37 0 55 -22t27 -70q172 177 246 315q11 18 42 2.5t31 -29.5q0 -2 -18 -36q-20 -38 -45 -94q-27 -58 -45 -111
q-25 -66 -37 -138q-12 -69 -12 -104q0 -37 9 -46q13 -13 13 -23q0 -17 -21 -17q-35 0 -58 47q-6 22 -6 52q0 55 6 97l6 35q0 3 1.5 9t4 16.5t4.5 19.5l10 43q-17 -14 -47 -43q-46 -44 -75 -65l-19 -44q-32 -78 -60 -128q-60 -119 -129 -126zM183 -47q9 -10 20 7.5t24 57.5
q-41 -31 -47 -43q-7 -12 3 -22z" />
    <glyph glyph-name="uni042C" unicode="&#x42c;" horiz-adv-x="600" 
d="M221 -129q-71 0 -71 146q0 113 44 292q46 181 100 305q56 129 84 129q12 0 31 -17q18 -16 18 -32q0 -4 -14 -27q-50 -86 -73 -143q-44 -112 -83 -254q-35 -134 -40 -181q45 91 61 116q22 35 42 58q78 94 156 94q45 0 71.5 -33.5t26.5 -92.5q0 -95 -69 -219
q-47 -69 -97 -69q-40 0 -65 34q-12 17 -3 17q2 0 4 -1q12 -6 23 -6q53 0 100 93q47 96 47 170q0 57 -32 57q-46 0 -94 -62q-95 -124 -123 -232q-21 -84 -21 -124q0 -13 -23 -18z" />
    <glyph glyph-name="uni042D" unicode="&#x42d;" horiz-adv-x="600" 
d="M206 -90q-46 0 -87 37q-41 38 -41 67q0 20 24 25q2 1 7 -7t13.5 -19.5t19.5 -23t26 -19.5t31 -7q41 0 99 47q45 37 89 97q40 54 55 99q-31 2 -76 -14q-39 -18 -96 -49q-4 -4 -10 -4q-13 0 -27.5 17t-14.5 34q0 10 4 14q20 29 84.5 48.5t158.5 18.5q11 31 21 85
q10 53 10 107q0 142 -78 142q-14 0 -34 -6q-69 -22 -119 -82q-49 -58 -52 -93q0 -2 2 -13.5t2 -15.5q0 -12 -10 -15q-7 -3 -20 5t-20 16q-15 18 -15 47q0 71 82 147q83 77 165 77q62 0 102.5 -34t55 -87.5t13 -113.5t-17.5 -119q-30 -108 -80 -197q-32 -59 -67 -103
q-38 -48 -87 -77.5t-99 -29.5q-3 -1 -13 -1z" />
    <glyph glyph-name="uni042E" unicode="&#x42e;" horiz-adv-x="698" 
d="M143 45l-37 -139q-5 -8 -19 -9t-29.5 9.5t-15.5 26.5q0 19 8 62q11 49 16 65l25 81q15 51 20 63q-44 12 -59.5 23.5t-15.5 30.5q0 11 2 21q2 7 21 1q31 -7 70 -19q16 41 52 151q37 116 60.5 174t35.5 55q23 -5 36 -15t10 -21q-7 -27 -55 -166q-13 -38 -25 -75
t-22.5 -68.5l-14.5 -43.5q86 -3 163 9q21 85 87 218q32 65 71.5 107.5t72.5 42.5q21 0 36 -18q10 -7 10 -16q1 -19 -46 -54q69 -34 92 -81q22 -45 22 -117q0 -87 -43 -182q-45 -97 -104 -158q-60 -62 -110 -62q-27 0 -49 16q-42 31 -55 81q-14 53 1 164q-25 -7 -170 -11
q-18 -59 -41 -146zM452 3q15 0 38 15q23 17 56 55q34 41 72 117q38 78 38 148q0 43 -13 82q-11 32 -33 49t-46 17q-29 0 -66 -79q-36 -74 -62 -172q-24 -95 -24 -144q0 -88 40 -88z" />
    <glyph glyph-name="uni042F" unicode="&#x42f;" horiz-adv-x="600" 
d="M111 -102q-55 0 -69 102q-2 18 -2 39q0 45 14 67.5t36 22.5q19 0 34.5 -13.5t15.5 -29.5q0 -7 -5 -15q-2 -3 -11.5 -12.5t-12.5 -13.5q-10 -18 -10 -57q0 -21 12 -21q30 0 111 95q83 99 135 172q-15 -15 -47.5 -24.5t-62.5 -9.5q-37 0 -72 23q-34 22 -34 68q0 77 111 188
q33 43 117 97q87 57 148 57q45 0 63 -36q9 -12 31 -28q23 -15 23 -33q0 -22 -29 -82q-5 -4 -30 -90q-26 -87 -54 -196q-27 -113 -27 -164q0 -13 1 -16q7 -24 16 -24q3 0 10 4t9 4q8 0 13 -24q1 -2 1 -9q0 -20 -22 -20q-35 0 -60 33.5t-25 99.5q0 29 10 80q8 40 29 132
q18 80 19 81q-5 0 -28 -42q-48 -96 -110 -184q-64 -93 -133 -156q-70 -65 -115 -65zM226 254q9 0 29 7q79 25 134 80q48 48 63 76l7 13q5 3 8 3l7 -1q12 0 35 20q22 17 52 84q-4 28 -29 28q-23 0 -59 -14q-28 -11 -48 -22q-59 -37 -140 -126q-79 -85 -79 -129q0 -19 20 -19z
" />
    <glyph glyph-name="uni0430" unicode="&#x430;" horiz-adv-x="377" 
d="M308 -21q-44 -5 -74.5 26.5t-34.5 87.5q-86 -94 -148 -89q-39 4 -52.5 30.5t-3.5 63t32.5 76.5t53.5 74q24 27 53 45t61 22.5t59 -14.5q13 19 47 0q32 -16 22 -37q-26 -47 -44 -101q-20 -58 -20 -96q0 -19 8 -28.5t25 -8.5q7 0 17 2.5t20 7.5t21 11t20.5 12.5t19 12.5
t16 11t10.5 9l5 3q7 6 7 0q-1 -17 -37 -62q-44 -54 -83 -58zM55 71q-2 -8 -0.5 -11.5t7.5 -1.5q29 9 92 78q69 77 69 110q-12 15 -45 -8.5t-69 -71t-54 -95.5z" />
    <glyph glyph-name="uni0431" unicode="&#x431;" horiz-adv-x="298" 
d="M130 -7q-12 0 -20 4q-69 24 -69 98q0 55 33 118q10 20 22 40q11 19 37 48q23 26 40 26q11 0 18 -10q-3 7 -11.5 16t-16 15.5t-19 16t-14.5 12.5q-36 34 -36 74q0 26 13 51q24 55 103 125q7 7 23 -10q16 -16 16 -30q0 -5 -3 -8q-32 -35 -57 -72q-31 -40 -31 -70
q0 -27 24 -49q38 -35 58 -60.5t34 -61.5q10 -23 10 -47t-10 -48q-7 -17 -10 -21q-2 -5 -8 -15t-12.5 -21.5t-7.5 -13.5q-56 -107 -106 -107zM132 79l12 16q24 31 39 55q40 59 40 92q0 16 -9 23q-12 11 -34 -18.5t-55 -96.5q-17 -42 -17 -73q0 -28 24 2z" />
    <glyph glyph-name="uni0432" unicode="&#x432;" horiz-adv-x="308" 
d="M42 28q-20 34 -14 91q6 58 27 115q26 72 61 152q120 275 218 275q48 0 67 -42q13 -27 -17 -104q-31 -78 -99 -154q-15 -17 -36 -37q-13 -13 -42.5 -39.5t-36.5 -33.5q-8 -8 -54 -43q-13 -27 -30 -91q61 91 119 120q25 13 50.5 2t36.5 -41q10 -27 -15 -76
q-11 -21 -38 -48.5t-63 -52t-71.5 -25.5t-62.5 32zM128 273l30 29q27 27 30 31l24 25q22 22 27 29l47 60q54 75 64 128q6 25 -0.5 35t-20 4t-25.5 -22q-25 -35 -79 -130q-56 -98 -97 -189zM171 85q7 6 23 22q11 11 28 33q16 20 11 28q-9 17 -50 -21q-21 -19 -41 -49
q-19 -36 -5 -37q13 -1 34 24z" />
    <glyph glyph-name="uni0433" unicode="&#x433;" horiz-adv-x="260" 
d="M91 -33q-24 0 -38 8q-47 29 -24 78q21 43 47 76q23 28 37 43q53 60 62 86q6 18 1.5 23t-19.5 -3q-27 -14 -68 -54q-4 -4 -16.5 -18t-15.5 -17q-26 -26 -43 16q-15 38 25 78q42 42 83 55q53 18 89 -13t24 -84q-8 -32 -63 -98q-54 -66 -63 -84q-12 -24 -6 -28.5t34 2.5
q43 10 155 74q6 5 6 -4q-2 -25 -36 -62q-26 -28 -59 -45q-56 -29 -112 -29z" />
    <glyph glyph-name="uni0434" unicode="&#x434;" horiz-adv-x="385" 
d="M7 -405q-56 0 -92.5 39.5t-36.5 98.5q0 36 10 52q5 8 8 -4q18 -63 43.5 -93t66.5 -30q39 0 77.5 33.5t68.5 91.5q58 108 88 222q4 13 10 39q8 36 15 59q3 7 9 44q-38 -55 -93 -114q-56 -57 -88 -57q-21 0 -42.5 15.5t-27.5 34.5q-4 9 -4 27q0 44 37 117q44 88 112 131
q24 15 45 15q46 0 86 -43q17 17 33 21q4 1 16 -4t18 -10q15 -12 15 -28t-19 -44q-18 -29 -21 -37q-12 -65 -36 -159q-21 -84 -32 -116q-109 -301 -266 -301zM83 40q23 0 91 74q69 77 95 120q-22 17 -32 17q-29 0 -88 -72l-25 -34q-18 -25 -31 -51q-17 -31 -17 -44
q0 -10 7 -10z" />
    <glyph glyph-name="uni0435" unicode="&#x435;" horiz-adv-x="269" 
d="M135 -15q-49 0 -89 33q-22 18 -29 37t-7 49q0 77 65 145q66 68 124 68q17 0 32 -9q21 -12 25 -37q1 -4 1 -17q0 -23 -8 -47q-12 -36 -38.5 -63t-61.5 -35q-3 -1 -13 -1q-33 0 -59 17q-17 -53 6 -77q12 -13 42 -13q98 0 186 88q1 1 3 -3q3 -24 -22 -55l-4 -5
q-27 -31 -71 -53t-82 -22zM100 167q20 -11 49 17q14 10 39 40q27 31 22 40q-1 8 -23.5 -6.5t-49 -41.5t-37.5 -49z" />
    <glyph glyph-name="uni0436" unicode="&#x436;" horiz-adv-x="538" 
d="M72 -6q-22 0 -49.5 12.5t-39.5 30.5q-7 14 -8.5 24t10.5 22.5t24.5 21.5t34.5 20.5t40 20t40.5 19.5t36.5 20l7 14q2 4 16 38q15 40 12 78q-2 50 -58 1l-14 -13q-27 -27 -37 -47l-1 -4q-2 -5 -4 -10.5t-6 -10.5t-8 -7q-18 -7 -32 16q-14 25 -11 42q7 39 70 83
q43 31 63 36q14 3 27 0q51 -9 64 -76q7 -33 -4 -80q25 16 54 43q5 18 16 46q23 59 31 67q9 9 25 0.5t25 -26.5q9 -17 -44 -141q-54 -128 -68 -177q-1 -3 -3.5 -11.5t-4 -12.5t-4.5 -10t-6.5 -8t-9 -3.5t-12.5 -0.5q-30 6 -25 51q3 21 11 58q2 9 8.5 28t6.5 22q-2 -2 -14 -11
t-17 -13q-50 -79 -83 -115.5t-59 -36.5zM362 25q-45 39 -22 117q17 58 53 115q45 69 73 76q19 6 40 -7t22 -33q0 -9 -2 -14t-7.5 -7t-8 -3t-10.5 -1l-7 1q-49 -38 -73 -99q-27 -65 -28 -74q-4 -19 3 -27.5t23 -6.5q13 1 35 11q69 29 139 90q17 14 17 7q0 -4 -9 -27
q-15 -38 -57.5 -78t-91.5 -57t-89 17z" />
    <glyph glyph-name="uni0437" unicode="&#x437;" horiz-adv-x="391" 
d="M22 -287q-30 15 -41.5 34.5t-9.5 38t13 41.5q7 17 28 41q43 45 67 65q30 27 106 72q18 11 86 49q-10 28 -40 31q-47 6 -98 -26l-27 -22q-24 -20 -34 -21q-17 -3 -35 17q-17 20 -12 38q2 9 9.5 15t20.5 11t16 7q19 12 66 55q23 21 57 65q33 42 20 52q-7 6 -32 -7
q-22 -11 -37 -21q-7 -4 -24.5 -21t-23.5 -21q-30 -21 -51 5q-12 13 -9.5 26t8.5 20t20 18q85 67 147 61q39 -3 61 -39q28 -44 -65 -154q91 -10 113 -70q8 4 27.5 8.5t42 6.5t38 -5t13.5 -23q0 -3 -7 -5.5t-23 -6.5t-28 -9q-50 -21 -58 -26q-9 -55 -13 -66q-28 -85 -92 -144
q-1 -1 -11 -9t-14 -12q-10 -9 -19 -19q-9 -9 -18 -1q-1 0 -5 -5t-8 -11t-6 -8q-22 -18 -56 -25.5t-62 0.5zM64 -241q60 20 116 82q21 27 26 34q17 22 36 58q20 36 22 57q-86 -56 -130 -89q-64 -53 -89 -90q-23 -28 -19 -44.5t38 -7.5z" />
    <glyph glyph-name="uni0438" unicode="&#x438;" horiz-adv-x="423" 
d="M67 -30q-87 15 -43 176q18 65 38 121q26 71 40 77q15 5 37 -14q24 -20 24 -41q0 -10 -7 -23q-36 -67 -65 -138q-26 -82 -17 -86h4q1 0 18 18q32 39 94 106l24 31q17 22 34 41q2 2 14 20.5t24 32t18 12.5q11 1 24.5 -8t19.5 -20q5 -8 6 -13.5t0 -9t-3.5 -11.5t-4.5 -15
q-22 -61 -33 -113q-14 -71 14 -71q38 0 111 42l29 16q7 3 7 -1q-1 -16 -41 -57q-48 -50 -87 -54q-48 -4 -77 37t-12 124q-21 -24 -62 -72q-93 -111 -128 -107z" />
    <glyph glyph-name="uni0439" unicode="&#x439;" horiz-adv-x="423" 
d="M298 402q-37 0 -66 22q-30 22 -30 45q0 16 23 16q8 0 29 -10q22 -9 39 -9q16 0 38 18l21 19l58 55q8 7 19.5 -0.5t18 -22.5t1.5 -27q-11 -18 -30 -40q-16 -21 -52 -44q-34 -22 -69 -22zM67 -30q-87 15 -43 176q18 65 38 121q26 71 40 77q15 5 37 -14q24 -20 24 -41
q0 -10 -7 -23q-36 -67 -65 -138q-26 -82 -17 -86h4q1 0 18 18q32 39 94 106l24 31q17 22 34 41q2 2 14 20.5t24 32t18 12.5q11 1 24.5 -8t19.5 -20q5 -8 6 -13.5t0 -9t-3.5 -11.5t-4.5 -15q-22 -61 -33 -113q-14 -71 14 -71q38 0 111 42l29 16q7 3 7 -1q-1 -16 -41 -57
q-48 -50 -87 -54q-48 -4 -77 37t-12 124q-21 -24 -62 -72q-93 -111 -128 -107z" />
    <glyph glyph-name="uni043A" unicode="&#x43a;" horiz-adv-x="327" 
d="M53 -32q-13 0 -30 23q-15 21 -17 42q-2 25 9 57l10 27q3 9 12.5 31.5t9.5 23.5l30 84q15 47 22 89q2 14 36 -8q28 -18 31 -32q6 -19 -15 -77q68 96 119 84q17 -4 35 -25q17 -20 10 -32q-1 -1 -5 -1.5l-12 -1.5t-17 -4q-17 -8 -48 -27q-33 -22 -54 -55q-31 -45 7 -78
q59 -47 108 -28q32 12 57 33q9 7 9 -3q-2 -13 -10 -32q-22 -49 -66 -55q-49 -6 -86 12q-47 23 -86 109q-6 -7 -11 -25q-2 -7 -18 -70q0 -1 -3 -15.5t-5 -20.5q-6 -25 -22 -25z" />
    <glyph glyph-name="uni043B" unicode="&#x43b;" horiz-adv-x="370" 
d="M266 -22q-10 0 -23 5q-36 18 -48 67q-5 25 -5 46q0 20 3 42q-72 -127 -134 -127q-27 0 -48 20t-21 47q-2 20 12 38t34.5 16t32.5 -31q5 -11 12 -11q2 -2 7 2.5t12 13t9 10.5q48 57 82 136q11 27 41 71q3 4 8 4q13 0 29 -16q18 -17 18 -28q2 -19 -23 -78q-15 -45 -15 -82
q0 -29 9 -59q10 -34 34 -34q30 0 100 66q14 10 14 2q0 -13 -24 -46t-54 -52q-34 -22 -62 -22z" />
    <glyph glyph-name="uni043C" unicode="&#x43c;" horiz-adv-x="519" 
d="M430 -36q-20 0 -37 11q-54 26 -54 128q-53 -93 -95 -96q-26 -1 -45 27t-19 62q0 12 1 15q-16 -44 -44.5 -71t-65.5 -27q-26 0 -52 17q-25 18 -25 48q0 22 13 38.5t33 16.5t33 -32q5 -11 12 -11q22 0 54 68q35 73 59 148q10 31 27 31q8 0 25 -18q16 -16 16 -25
q0 -13 -23 -79q-2 -5 -17 -68q-8 -27 -6 -44q1 -25 19 -25q14 0 35.5 21t39.5 48q38 55 50 92q30 92 56 103q13 4 29 -10q17 -15 17 -33q0 -12 -9 -33t-24 -48l-19 -38q-26 -63 -26 -100q0 -45 37 -48q26 -3 55.5 15.5t75.5 62.5q4 4 5 -4q1 -31 -40 -83l-21 -24
q-33 -35 -70 -35z" />
    <glyph glyph-name="uni043D" unicode="&#x43d;" horiz-adv-x="391" 
d="M45 -8q-33 22 -38 46q-2 16 -2 22q0 19 4 39q-15 13 -15 34q0 14 4 22q1 6 23 -2q8 17 24 58l15 39q3 7 6.5 18.5t6 21.5t5.5 19.5t5.5 14t4.5 3.5q27 0 45 -8t18 -19q0 -5 -11 -33q-3 -6 -10.5 -26t-12.5 -32q-4 -9 -17 -44q17 0 57 17q43 19 60 31q5 5 21 39
q42 83 76 83q12 0 25 -12q13 -13 13 -30q0 -40 -82 -118l-17 -42q-11 -26 -11 -48q0 -32 31 -32q11 0 14 1q26 4 86 44q26 18 63 58q2 2 4 2t3.5 -2.5t1.5 -6.5q0 -29 -67 -99q-16 -17 -36 -29q-31 -19 -65 -19q-12 0 -32 5q-52 16 -52 79q0 2 2 40l-38 -23q-33 -17 -85 -16
q-9 -23 -4 -76q1 -17 -7 -22.5t-16 3.5z" />
    <glyph glyph-name="uni043E" unicode="&#x43e;" horiz-adv-x="293" 
d="M110 0q-20 0 -39 10q-48 16 -48 74q0 60 38 128q0 1 12 23t19 34q42 71 65 73q11 1 26.5 -10.5t22.5 -22.5q6 -13 6 -19v-2q0 -4 12 -14q6 -5 46 -34q21 -15 21 -45q0 -11 -1 -14q-2 -27 -24 -57q-8 -10 -11 -14l-27 -31q-70 -79 -118 -79zM93 58q21 0 79 63q59 64 59 87
q0 7 -6 13l-12 3q-34 9 -48 1q-35 -20 -68 -110q-12 -31 -12 -45q0 -12 8 -12z" />
    <glyph glyph-name="uni043F" unicode="&#x43f;" horiz-adv-x="421" 
d="M337 -12q-22 0 -45 11t-35 30q-32 50 3 172l-91 -91q-49 -50 -72 -78q-30 -41 -48 -41q-13 0 -27 17q-13 17 -13 31q0 10 9 40l28 97l38 134q6 25 15.5 29t29.5 -9q36 -19 25 -45q-1 -1 -9.5 -25.5t-21.5 -61t-21 -58.5l95 94q19 19 46 36q28 19 44 19q13 0 29.5 -14
t16.5 -28q0 -5 -12 -62q-13 -53 -13 -87q0 -65 35 -65q19 0 45 15l40 26l37 22q3 2 3 -3q0 -16 -23 -44l-6 -7q-40 -43 -76 -51q-12 -3 -26 -3z" />
    <glyph glyph-name="uni0440" unicode="&#x440;" horiz-adv-x="401" 
d="M-3 -387q8 -11 -10 -13q-30 -4 -54 23q-12 16 -16 32q-10 37 13 128q0 1 0.5 4.5t1.5 4.5q34 136 103 320q33 91 71 181q32 76 47 83q11 4 42 -3q24 -6 7 -42q-20 -37 -81 -175q30 41 51 62q61 67 101 81q9 4 24 4q33 0 56 -32q22 -30 17 -69q-1 -25 -25 -74
q-23 -46 -63 -87q-40 -40 -82 -40q-36 0 -52 31q-10 19 1 22q2 2 5 0q28 -6 58 11.5t48 46.5q50 81 49 126q0 15 -7 15q-19 0 -65 -40q-68 -60 -121.5 -143t-79.5 -167q-42 -136 -49 -182q-13 -69 10 -108z" />
    <glyph glyph-name="uni0441" unicode="&#x441;" horiz-adv-x="250" 
d="M124 -15q-55 0 -84 29q-34 34 -34 86q0 48 26 98t64 85q40 36 70 36q24 0 47 -20q26 -24 26 -50q0 -18 -20 -18l-14 2q-7 2 -16 6.5t-11 4.5q-5 0 -19 -8q-13 -9 -48 -56q-46 -62 -46 -104q0 -17 9 -29q10 -12 30 -12q64 0 186 84q2 1 3 -1t1 -6q0 -24 -27 -56
q-18 -19 -63 -50q-32 -21 -80 -21z" />
    <glyph glyph-name="uni0442" unicode="&#x442;" horiz-adv-x="563" 
d="M253 322q-16 0 -20 4q-14 8 -14 35q0 30 10 36q3 3 17.5 5.5t28.5 3.5t30 1.5t18 0.5q87 14 107 14q52 0 52 -26q0 -10 -4 -18q0 -10 -62 -25q-60 -15 -98 -21l-12 -2q-13 -3 -29 -5.5t-24 -2.5zM45 -40q-12 0 -24 13q-16 15 -16 47q1 18 22 87q28 82 56 158q1 2 3.5 12
t5 19.5t6 19.5t7.5 16.5t9 6.5q13 6 34 -11t20 -27q0 -10 -13.5 -44t-14.5 -37q-19 -49 -29 -84l70 85q53 65 77 56q43 -16 42 -70q0 -4 -1.5 -15.5t-1.5 -13.5q-2 -16 -12 -71q20 20 34 39l19 24l16 21l22 26q26 28 45 28q10 0 18 -5q30 -20 30 -45q0 -5 -18 -74
q-4 -16 -4 -22q0 -13 9 -13q7 0 55 23q52 27 93 52q8 5 13 5q4 0 4 -6q0 -13 -24 -40t-62 -53q-71 -50 -97 -50q-54 0 -49 92q0 5 1.5 20.5t1.5 21.5l-70 -75q-6 -6 -17 -21.5t-20 -26t-16 -11.5q-12 -2 -22 -2q-31 0 -32 18q-1 7 0 21q1 51 16 134q-32 -37 -68 -86
q-76 -105 -82 -123q-20 -19 -36 -19z" />
    <glyph glyph-name="uni0443" unicode="&#x443;" horiz-adv-x="411" 
d="M94 -394q-29 -3 -53.5 18t-29.5 51l-1 5v7q0 7 2 17q8 14 12 14t17 -18l16 -19q7 -7 19 -5q12 3 47 59q19 35 66 132q15 32 55 135q7 15 32 98q23 75 26 106q-47 -62 -143 -143q-49 -42 -72 -42q-29 0 -45.5 23.5t-16.5 62.5q0 22 6 46q32 134 59 140q12 3 37 -16
q19 -15 19 -23q0 -4 -3 -10q-16 -33 -27 -61q-20 -49 -20 -76q0 -24 151 127l4 4l22 24q29 34 53 49q10 6 24 6q19 0 33 -11.5t13 -29.5q0 -7 -10.5 -36t-12.5 -43q-11 -66 -58 -199q-45 -134 -113 -265q-64 -127 -108 -127z" />
    <glyph glyph-name="uni0444" unicode="&#x444;" horiz-adv-x="569" 
d="M146 -285q-36 16 -13 105q21 70 38 108q43 107 61 178l-35 -38q-27 -31 -37 -39q-36 -34 -79 -34q-22 0 -39 15t-24 38q-15 49 14 115q29 67 72 110q14 14 23.5 22t22.5 14.5t27 4.5t29 -13q17 -13 28.5 -38.5t12.5 -49.5q57 92 87 157q10 21 37 -7q22 -20 20 -35
q-1 -11 -31 -80q25 33 51 55t44 24q36 6 65 -26q30 -33 31 -65q3 -52 -24 -114q-21 -49 -67 -89q-45 -39 -86 -39q-36 0 -45 32q-7 20 1 23h3q22 -10 41 -3q22 9 51 41q54 60 67 124q11 47 -12 49q-21 3 -51 -25q-47 -39 -97 -124q-22 -41 -29 -48q-19 -19 -22 -24
q-19 -31 -50 -111q-30 -78 -47 -174q-4 -31 -5 -32q-5 -20 -33 -7zM70 58q18 6 49 33l25 24q5 4 12 11l12.5 12.5t10 10.5t5.5 6q14 12 31 36q-15 43 -33 47q-34 10 -69 -47q-36 -59 -43 -133z" />
    <glyph glyph-name="uni0445" unicode="&#x445;" horiz-adv-x="307" 
d="M190 -20q-27 1 -67 34q-13 11 -34 42l-17.5 -22.5t-16 -20t-12.5 -14t-12 -10t-9 -2.5q-10 0 -21 32q-1 2 -1 9q0 12 8 26q10 15 31 36q14 14 29 32q-7 66 -7 118q0 58 13 93q6 18 16 19q32 4 42 4q32 0 32 -21q0 -9 -12 -54q-11 -40 -16 -84q8 10 25 27q10 11 56.5 60
t75.5 80q6 -2 17 -24q1 -3 1 -11q0 -13 -11 -33q-35 -62 -157 -168q-1 -19 6 -50q8 -30 23 -41q4 -4 14 -4q13 0 36 13q25 14 32 14q13 0 18 -26q3 -27 -25 -40q-28 -14 -57 -14z" />
    </font>
</defs>
</svg>
